<?xml version="1.0" encoding="UTF-8"?>
<svg width="300px" height="244px" viewBox="0 0 300 244" version="1.1" xmlns="http://www.w3.org/2000/svg" xmlns:xlink="http://www.w3.org/1999/xlink">
    <title>资源 8</title>
    <defs>
        <linearGradient x1="-0.00821089158%" y1="49.9223602%" x2="99.9958934%" y2="49.9223602%" id="linearGradient-1">
            <stop stop-color="#F9E7A8" offset="0%"></stop>
            <stop stop-color="#F5A623" offset="100%"></stop>
        </linearGradient>
        <linearGradient x1="31.197989%" y1="59.1342172%" x2="66.5710363%" y2="36.8851799%" id="linearGradient-2">
            <stop stop-color="#C6DFFE" offset="0%"></stop>
            <stop stop-color="#72B1FE" offset="100%"></stop>
        </linearGradient>
        <linearGradient x1="-0.00816792338%" y1="49.9928234%" x2="99.9822704%" y2="49.9928234%" id="linearGradient-3">
            <stop stop-color="#C6DFFE" offset="0%"></stop>
            <stop stop-color="#72B1FE" offset="100%"></stop>
        </linearGradient>
        <linearGradient x1="-0.0226459219%" y1="50.0002851%" x2="100.143552%" y2="50.0002851%" id="linearGradient-4">
            <stop stop-color="#C6DFFE" offset="0%"></stop>
            <stop stop-color="#72B1FE" offset="100%"></stop>
        </linearGradient>
        <linearGradient x1="-1336.02578%" y1="560.783649%" x2="-1230.86982%" y2="560.783649%" id="linearGradient-5">
            <stop stop-color="#C6DFFE" offset="0%"></stop>
            <stop stop-color="#72B1FE" offset="100%"></stop>
        </linearGradient>
        <linearGradient x1="-0.0548265901%" y1="50.0076576%" x2="99.9765458%" y2="50.0076576%" id="linearGradient-6">
            <stop stop-color="#C6DFFE" offset="0%"></stop>
            <stop stop-color="#72B1FE" offset="100%"></stop>
        </linearGradient>
        <linearGradient x1="0.0781361852%" y1="50.2588997%" x2="100.014317%" y2="50.2588997%" id="linearGradient-7">
            <stop stop-color="#C6DFFE" offset="0%"></stop>
            <stop stop-color="#72B1FE" offset="100%"></stop>
        </linearGradient>
        <linearGradient x1="0.0103263685%" y1="49.9638039%" x2="99.8372433%" y2="49.9638039%" id="linearGradient-8">
            <stop stop-color="#C6DFFE" offset="0%"></stop>
            <stop stop-color="#72B1FE" offset="100%"></stop>
        </linearGradient>
        <linearGradient x1="0%" y1="50%" x2="100%" y2="50%" id="linearGradient-9">
            <stop stop-color="#EAF2FD" offset="0%"></stop>
            <stop stop-color="#C4DFFD" offset="100%"></stop>
        </linearGradient>
        <linearGradient x1="5.68434189e-13%" y1="50.2%" x2="100%" y2="50.2%" id="linearGradient-10">
            <stop stop-color="#EAF2FD" offset="0%"></stop>
            <stop stop-color="#C4DFFD" offset="100%"></stop>
        </linearGradient>
        <linearGradient x1="-0.0354609929%" y1="49.929078%" x2="100%" y2="49.929078%" id="linearGradient-11">
            <stop stop-color="#EAF2FD" offset="0%"></stop>
            <stop stop-color="#C4DFFD" offset="100%"></stop>
        </linearGradient>
        <linearGradient x1="-0.0810372771%" y1="50.1618123%" x2="99.9189627%" y2="50.1618123%" id="linearGradient-12">
            <stop stop-color="#EAF2FD" offset="0%"></stop>
            <stop stop-color="#C4DFFD" offset="100%"></stop>
        </linearGradient>
        <linearGradient x1="2.30321794e-13%" y1="49.8381877%" x2="100%" y2="49.8381877%" id="linearGradient-13">
            <stop stop-color="#EAF2FD" offset="0%"></stop>
            <stop stop-color="#C4DFFD" offset="100%"></stop>
        </linearGradient>
        <linearGradient x1="-0.0523743017%" y1="50%" x2="100%" y2="50%" id="linearGradient-14">
            <stop stop-color="#C6DFFE" offset="0%"></stop>
            <stop stop-color="#72B1FE" offset="100%"></stop>
        </linearGradient>
        <linearGradient x1="20.9750552%" y1="17.9304025%" x2="58.5428089%" y2="57.7692477%" id="linearGradient-15">
            <stop stop-color="#C6DFFE" offset="0%"></stop>
            <stop stop-color="#72B1FE" offset="100%"></stop>
        </linearGradient>
        <linearGradient x1="0%" y1="50%" x2="100%" y2="50%" id="linearGradient-16">
            <stop stop-color="#C6DFFE" offset="0%"></stop>
            <stop stop-color="#72B1FE" offset="100%"></stop>
        </linearGradient>
        <linearGradient x1="-3.26686315e-14%" y1="50%" x2="100%" y2="50%" id="linearGradient-17">
            <stop stop-color="#F9E7A8" offset="0%"></stop>
            <stop stop-color="#F5A623" offset="100%"></stop>
        </linearGradient>
        <linearGradient x1="0%" y1="49.9510885%" x2="99.9865481%" y2="49.9510885%" id="linearGradient-18">
            <stop stop-color="#C6DFFE" offset="0%"></stop>
            <stop stop-color="#72B1FE" offset="100%"></stop>
        </linearGradient>
        <linearGradient x1="0.00374851787%" y1="50.0000273%" x2="99.9963438%" y2="50.0000273%" id="linearGradient-19">
            <stop stop-color="#C6DFFE" offset="0%"></stop>
            <stop stop-color="#72B1FE" offset="100%"></stop>
        </linearGradient>
        <linearGradient x1="6.46682808e-13%" y1="50%" x2="100%" y2="50%" id="linearGradient-20">
            <stop stop-color="#C6DFFE" offset="0%"></stop>
            <stop stop-color="#72B1FE" offset="100%"></stop>
        </linearGradient>
        <linearGradient x1="0.0108485001%" y1="49.9609761%" x2="100.008471%" y2="49.9609761%" id="linearGradient-21">
            <stop stop-color="#C6DFFE" offset="0%"></stop>
            <stop stop-color="#72B1FE" offset="100%"></stop>
        </linearGradient>
        <linearGradient x1="0%" y1="50.0194704%" x2="100.160471%" y2="50.0194704%" id="linearGradient-22">
            <stop stop-color="#1A1114" offset="0%"></stop>
            <stop stop-color="#30231E" offset="25%"></stop>
            <stop stop-color="#4A372A" offset="50%"></stop>
            <stop stop-color="#5A372A" offset="59%"></stop>
            <stop stop-color="#60372A" offset="66%"></stop>
            <stop stop-color="#98372A" offset="98%"></stop>
        </linearGradient>
        <linearGradient x1="0.00271954112%" y1="50.0095438%" x2="99.9837746%" y2="50.0095438%" id="linearGradient-23">
            <stop stop-color="#1A1114" offset="0%"></stop>
            <stop stop-color="#30231E" offset="25%"></stop>
            <stop stop-color="#4A372A" offset="50%"></stop>
            <stop stop-color="#5A372A" offset="59%"></stop>
            <stop stop-color="#60372A" offset="66%"></stop>
            <stop stop-color="#98372A" offset="98%"></stop>
        </linearGradient>
        <linearGradient x1="-7.87317087e-14%" y1="49.9905397%" x2="99.9184352%" y2="49.9905397%" id="linearGradient-24">
            <stop stop-color="#F3835D" offset="0%"></stop>
            <stop stop-color="#FFC644" offset="100%"></stop>
        </linearGradient>
        <linearGradient x1="0%" y1="50.1233299%" x2="100.016069%" y2="50.1233299%" id="linearGradient-25">
            <stop stop-color="#F3835D" offset="0%"></stop>
            <stop stop-color="#FFC644" offset="100%"></stop>
        </linearGradient>
    </defs>
    <g id="页面" stroke="none" stroke-width="1" fill="none" fill-rule="evenodd">
        <g id="缺省页" transform="translate(-1251.000000, -475.000000)">
            <g id="资源-8" transform="translate(1251.000000, 475.000000)">
                <path d="M151.728271,0 C124.687776,-0.0627149546 98.3587244,8.65401416 76.705799,24.837944 L85.0815787,24.837944 C86.9865603,24.837944 88.8135188,25.5940838 90.1605442,26.9400213 C91.5075696,28.2859588 92.2643205,30.1114418 92.2643205,32.0148849 L92.2643205,32.0148849 L92.2643205,32.5700976 C92.2643205,36.5338126 89.0484975,39.7470385 85.0815787,39.7470385 L60.125841,39.7470385 C55.3841489,44.8479277 51.0866993,50.3437836 47.280255,56.1748031 L35.4234195,56.1748031 C31.1528089,56.179309 27.6931853,59.6397927 27.6931877,63.9069567 L27.6931877,64.339696 C27.6904251,67.7825811 29.9708457,70.8106924 33.2824885,71.7615837 L44.1996023,71.7615837 C49.0807909,71.766085 53.0366521,75.7187513 53.0411571,80.5959978 L53.0411571,80.5959978 L53.0411571,83.3557316 C53.0411571,88.2348438 49.0826582,92.1901458 44.1996023,92.1901458 L6.68428077,92.1901458 C2.75547832,93.1778206 0,96.7071477 0,100.755118 L0,101.245012 C0,106.124124 3.9584989,110.079426 8.84155476,110.079426 L28.2733637,110.079426 C27.8920273,114.009461 27.6986354,117.983043 27.6931877,122.00017 C27.6931877,189.376866 83.2593359,244 151.728271,244 C206.526299,244 253.054776,209.054258 269.438618,160.587454 L274.088198,160.587454 C275.716514,160.575986 277.110319,159.417602 277.418199,157.819907 C277.726078,156.222213 276.862413,154.629511 275.354779,154.014715 L269.634734,154.014715 C265.671005,154.014718 262.456502,150.806465 262.451992,146.845939 L262.451992,146.845939 L262.451992,146.290726 C262.451992,142.327011 265.667816,139.113785 269.634734,139.113785 L274.562144,139.113785 L274.562144,139.023972 L286.819383,139.023972 C289.955911,139.023972 292.49857,136.483366 292.49857,133.349371 C292.49857,130.215376 289.955911,127.67477 286.819383,127.67477 L275.63261,127.67477 C275.72522,125.796845 275.768801,123.891703 275.763354,121.959345 C275.780531,104.534388 271.996469,87.3150719 264.674638,71.5003071 L284.531365,71.5003071 C293.072588,71.4958023 299.995492,64.5784898 300,56.0441648 L300,55.1786861 C300,46.9877608 293.606003,40.2186765 285.422058,39.7470385 L215.465911,39.7470385 C212.41513,39.7470385 209.941982,37.2758886 209.941982,34.2275709 C209.941982,31.1792531 212.41513,28.7081032 215.465911,28.7081032 L231.661809,28.7081032 L231.253235,28.3733426 L239.310326,28.3733426 C242.094446,28.3733435 244.764416,27.2676909 246.73232,25.2998452 C248.700223,23.3319996 249.804691,20.6633257 249.802522,17.8814552 L249.802522,17.3017478 C249.804691,14.5198773 248.700223,11.8512034 246.73232,9.8833578 C244.764416,7.91551217 242.094446,6.80985955 239.310326,6.8098604 L192.691962,6.8098604 C179.509658,2.2865046 165.666232,-0.0147307424 151.728271,0 Z" id="背景" fill="#EDF0F4" opacity="0.35"></path>
                <path d="M148.721161,190.242345 C176.798409,190.242345 202.081007,192.528515 219.755945,196.186387 C237.038651,196.300696 250.962874,201.477238 250.962874,207.837689 C250.962874,212.883593 242.219377,217.178327 229.986653,218.80314 C227.061259,219.668619 223.776319,220.476943 220.180862,221.252608 C220.271984,221.734485 220.318485,222.223724 220.319778,222.714124 C220.319778,233.818379 196.148503,242.824255 166.338899,242.824255 C139.520061,242.824255 117.309945,235.533006 113.06894,225.980081 C77.285975,223.269337 51.9788585,216.58229 51.9788585,208.768487 C51.9625201,198.497052 95.2796012,190.242345 148.721161,190.242345 Z" id="形状结合" fill="url(#linearGradient-1)" opacity="0.27"></path>
                <path d="M76.1991665,214.590056 C81.1510909,212.254896 89.7311579,204.792184 84.2317435,191.548728 C79.0428459,178.133809 70.4627789,185.572026 67.7661864,176.647798 C65.0695939,167.72357 65.4291395,165.282267 58.1728543,161.902002 C50.9165691,158.521736 54.9696293,155.133305 49.7071882,151.165167 C44.4447471,147.197029 41.5356958,146.690806 37.8421812,148.438093 C34.1486667,150.18538 40.4652303,160.415991 37.025032,164.310645 C33.5848337,168.205299 33.3723749,169.421868 39.2231635,175.36591 C45.073952,181.309952 47.3374554,181.358941 45.3762972,186.79676 C43.4151391,192.234579 45.3762972,193.981866 49.0371258,193.761414 C52.6979544,193.540962 58.3689701,193.524632 56.2035246,200.954684 C54.0380792,208.384737 54.8960859,211.013833 62.0297987,213.316332 C69.1635116,215.618832 69.3841419,217.774364 76.223681,214.573726 L76.1991665,214.590056 Z" id="路径" fill="url(#linearGradient-2)" fill-rule="nonzero"></path>
                <path d="M79.0019884,212.516173 C78.9196499,212.555258 78.8251321,212.560007 78.7392849,212.529372 C78.6534377,212.498737 78.5833148,212.435235 78.5443848,212.352875 L47.8032305,167.160193 C47.6561436,166.849927 47.6561436,166.849927 47.9666603,166.711124 C48.277177,166.57232 48.277177,166.564155 48.4242639,166.874421 L79.1654182,212.058939 C79.3125051,212.369205 79.3125051,212.369205 79.0019884,212.516173 Z" id="路径" fill="url(#linearGradient-3)" fill-rule="nonzero"></path>
                <path d="M58.9082886,182.706149 C58.5977719,182.844952 58.450685,182.542851 58.3035982,182.232585 L59.1942909,170.483304 C59.1942909,170.483304 59.3577207,170.034235 59.5048076,170.344501 C59.5048076,170.344501 59.9542396,170.507799 59.6518944,170.646602 L58.9082886,182.706149 L58.9082886,182.706149 Z M63.9255849,190.152531 L54.5937406,190.397478 C54.5125948,190.436245 54.4192567,190.440782 54.3347278,190.410069 C54.2501989,190.379356 54.1815792,190.315973 54.1443086,190.23418 C54.1028463,190.15227 54.0968642,190.056942 54.1277619,189.970498 C54.1586595,189.884054 54.2237261,189.81408 54.3077384,189.776946 L63.29638,189.678967 C63.9174135,189.393196 64.0563288,189.678967 63.892899,190.152531 L63.9255849,190.152531 Z M71.0266118,200.407637 L71.0266118,200.407637 C70.7160951,200.554605 70.5771797,200.244339 70.4300929,199.934073 L71.7865606,187.588755 C71.7865606,187.588755 71.9499905,187.131521 72.0970773,187.441787 C72.0970773,187.441787 72.5546809,187.605085 72.2441642,187.752053 L71.0266118,200.407637 Z M75.17773,206.768088 L62.3158009,206.768088 C62.0052842,206.906891 61.8581974,206.60479 62.1687141,206.457822 C62.0216272,206.147556 62.3321439,206.000588 62.4792308,206.310854 L75.0143001,206.449657 C75.3248168,206.302689 75.3248168,206.302689 75.161387,206.759923 L75.17773,206.768088 Z" id="形状" fill="url(#linearGradient-4)" fill-rule="nonzero"></path>
                <path d="M83.6188816,211.095481 C87.9497726,209.054258 90.2459619,209.111413 90.0825321,203.151041 C89.7475009,197.639738 93.931305,195.296414 91.259227,192.022292 C88.587149,188.74817 85.9477569,190.389313 86.6014763,182.134606 C87.2551957,173.8799 82.5892736,170.42615 79.8599951,169.446363 C77.1307166,168.466576 75.7742489,166.441682 73.3228012,161.959156 C70.8713535,157.47663 66.4832621,160.269023 66.1237164,162.702161 C65.7641707,165.135299 68.673222,171.316123 66.7447498,175.243437 C64.8162776,179.17075 68.5669926,182.322399 71.7293602,184.224819 C74.8917277,186.127239 72.971427,190.062717 71.2227276,192.773462 C69.5884292,195.786307 65.6987988,200.285163 68.6977365,202.644817 C71.6966742,205.004471 76.5260262,214.443088 83.6352246,211.095481 L83.6188816,211.095481 Z" id="路径" fill="url(#linearGradient-5)" fill-rule="nonzero"></path>
                <path d="M84.239915,210.801545 C84.1579387,210.842974 84.0625332,210.848951 83.9760198,210.818079 C83.8895064,210.787206 83.8194754,210.722192 83.7823114,210.638247 L75.7170485,176.680458 C75.6755862,176.598548 75.6696041,176.503219 75.7005018,176.416776 C75.7313994,176.330332 75.796466,176.260358 75.8804783,176.223224 C75.9628168,176.184139 76.0573346,176.17939 76.1431818,176.210025 C76.229029,176.24066 76.2991519,176.304161 76.3380819,176.386522 L84.239915,210.801545 C84.4033449,210.344311 84.5504317,210.654577 84.239915,210.801545 Z" id="路径" fill="url(#linearGradient-6)" fill-rule="nonzero"></path>
                <path d="M79.5413069,189.605483 L79.5413069,189.605483 C79.0837033,189.442185 79.0837033,189.442185 78.9366165,189.13192 L82.3931577,178.811495 L82.7036744,178.664527 L82.8507613,178.974793 L79.5821644,189.589154 L79.5413069,189.605483 Z M82.8752758,203.894046 L82.8752758,203.894046 L72.7262822,199.223727 L72.5873669,198.913461 L72.8897121,198.766493 L82.695503,203.58378 C83.0387056,203.436812 83.1857925,203.747078 82.8752758,203.894046 Z" id="形状" fill="url(#linearGradient-7)" fill-rule="nonzero"></path>
                <path d="M104.815733,217.643726 C105.971004,217.612313 107.044623,217.041222 107.715752,216.101118 C108.38688,215.161013 108.577785,213.960781 108.231417,212.859098 C107.553183,210.123859 106.523575,211.495561 106.180372,213.544949 C105.837169,215.594337 106.523575,212.516173 104.47253,211.838487 C102.421486,211.495561 104.47253,215.251412 103.786125,215.920933 C102.764688,216.255694 101.400049,212.499843 100.027238,214.206306 C98.6544276,215.912768 101.73508,217.627396 104.815733,217.627396 L104.815733,217.643726 Z" id="路径" fill="url(#linearGradient-8)" fill-rule="nonzero"></path>
                <path d="M68.3442341,62.678912 L80.5965231,62.6739624 C81.7234044,62.6735071 82.6372911,63.5866558 82.6377464,64.7135371 C82.6377466,64.7140866 82.6377466,64.7146361 82.6377464,64.7151856 C82.6372906,65.8432444 81.7229321,66.757603 80.5948733,66.7580587 L68.3425843,66.7630083 C67.215703,66.7634635 66.3018163,65.8503148 66.301361,64.7234336 C66.3013608,64.7228841 66.3013608,64.7223346 66.301361,64.7217851 C66.3018167,63.5937262 67.2161753,62.6793677 68.3442341,62.678912 Z" id="矩形" fill="url(#linearGradient-9)" fill-rule="nonzero" transform="translate(74.469554, 64.718485) rotate(45.000000) translate(-74.469554, -64.718485) "></path>
                <path d="M68.3366338,62.6816643 L80.5889228,62.6866139 C81.7169817,62.6870696 82.6313402,63.6014282 82.6317959,64.729487 C82.6322512,65.8563683 81.7191025,66.770255 80.5922212,66.7707103 C80.5916717,66.7707105 80.5911222,66.7707105 80.5905727,66.7707103 L68.3382837,66.7657607 C67.2102249,66.765305 66.2958663,65.8509464 66.2954106,64.7228876 C66.2949554,63.5960063 67.2081041,62.6821196 68.3349853,62.6816643 C68.3355348,62.6816641 68.3360843,62.6816641 68.3366338,62.6816643 Z" id="矩形" fill="url(#linearGradient-10)" fill-rule="nonzero" transform="translate(74.463603, 64.726187) rotate(135.000000) translate(-74.463603, -64.726187) "></path>
                <path d="M219.892118,61.0260327 L237.926421,61.0187473 C239.307132,61.0161705 240.426873,62.1350064 240.42743,63.5157181 C240.427431,63.5163914 240.427431,63.5170647 240.425411,63.5177372 L240.425105,64.2763134 C240.422527,65.6562356 239.304017,66.774745 237.924095,66.7773231 L219.889791,66.7846085 C218.50908,66.7871853 217.38934,65.6683495 217.388783,64.2876377 C217.388782,64.2869644 217.388782,64.2862911 217.390802,64.2856187 L217.391108,63.5270424 C217.393686,62.1471202 218.512196,61.0286108 219.892118,61.0260327 Z" id="矩形" fill="url(#linearGradient-11)" fill-rule="nonzero" transform="translate(228.908106, 63.901678) rotate(45.000000) translate(-228.908106, -63.901678) "></path>
                <path d="M219.886813,61.0241162 L237.921116,61.0314016 C239.301039,61.0339797 240.419548,62.1524891 240.422126,63.5324113 L240.422433,64.2909875 C240.425009,65.6716985 239.306174,66.7914387 237.925462,66.7919964 C237.924789,66.7919967 237.924115,66.7919967 237.923443,66.7899774 L219.889139,66.782692 C218.509217,66.7801139 217.390707,65.6616045 217.388129,64.2816823 L217.387823,63.523106 C217.385246,62.1423951 218.504082,61.0226549 219.884794,61.0220971 C219.885467,61.0220969 219.88614,61.0220969 219.886813,61.0241162 Z" id="矩形" fill="url(#linearGradient-11)" fill-rule="nonzero" transform="translate(228.905128, 63.907047) rotate(135.000000) translate(-228.905128, -63.907047) "></path>
                <path d="M128.703061,12.8418104 L136.258639,12.8387581 C136.955051,12.8384768 137.519833,13.4028027 137.520115,14.0992153 C137.520115,14.0995549 137.520115,14.0998945 137.520115,14.1002341 C137.519833,14.7973745 136.954759,15.362448 136.257619,15.3627297 L128.702041,15.3657819 C128.005628,15.3660632 127.440846,14.8017374 127.440565,14.1053247 C127.440565,14.1049852 127.440565,14.1046456 127.440565,14.104306 C127.440847,13.4071656 128.00592,12.842092 128.703061,12.8418104 Z" id="矩形" fill="url(#linearGradient-12)" fill-rule="nonzero" transform="translate(132.480340, 14.102270) rotate(45.000000) translate(-132.480340, -14.102270) "></path>
                <path d="M128.704946,12.8335349 L136.260524,12.8365872 C136.957665,12.8368688 137.522738,13.4019424 137.52302,14.0990827 C137.523301,14.7954954 136.958975,15.3602774 136.262563,15.3605587 C136.262223,15.3605588 136.261883,15.3605588 136.261544,15.3605587 L128.705966,15.3575065 C128.008825,15.3572248 127.443752,14.7921512 127.44347,14.0950109 C127.443189,13.3985983 128.007515,12.8338163 128.703927,12.8335349 C128.704267,12.8335348 128.704606,12.8335348 128.704946,12.8335349 Z" id="矩形" fill="url(#linearGradient-13)" fill-rule="nonzero" transform="translate(132.483245, 14.097047) rotate(135.000000) translate(-132.483245, -14.097047) "></path>
                <path d="M103.614523,86.1317952 L88.2929752,86.1317952 L87.2715387,87.6178057 L65.3719391,119.69767 L63.5987252,122.294106 L63.5987252,134.770062 L91.259227,134.770062 L91.259227,148.070673 L103.614523,148.070673 L103.614523,134.770062 L110.405034,134.770062 L110.405034,123.88626 L103.614523,123.88626 L103.614523,86.1317952 Z M75.6843625,123.88626 L91.210198,101.138868 L91.210198,123.88626 L75.6843625,123.88626 Z" id="形状" fill="url(#linearGradient-14)" fill-rule="nonzero"></path>
                <path d="M230.13374,123.069771 L227.821208,119.869133 L224.830442,115.721367 L224.830442,115.721367 L222.885626,113.043282 L221.177784,110.667298 L221.177784,110.667298 L219.371885,110.667298 L180.508267,111.67158 L177.370414,111.753229 L176.071146,112.675862 L175.531828,113.067777 L170.628933,116.603176 L167.237763,119.052644 L183.42549,141.473439 L172.630948,149.254582 L179.879062,159.289236 L190.665432,151.499928 L199.506987,145.131312 L230.13374,123.069771 Z M183.15583,122.522723 L210.710103,121.812377 L192.250701,135.121153 L183.15583,122.522723 Z" id="形状" fill="url(#linearGradient-15)" fill-rule="nonzero"></path>
                <path d="M138.662054,85.4786038 C126.290415,85.4786038 116.247651,100.077432 116.247651,118.089186 C116.247651,136.10094 126.290415,150.699768 138.662054,150.699768 C151.033694,150.699768 161.068286,136.10094 161.068286,118.089186 C161.068286,100.077432 151.041865,85.4786038 138.662054,85.4786038 Z M138.988914,139.440381 C133.505843,139.440381 129.060551,129.952776 129.060551,118.21166 C129.060551,106.470543 133.505843,96.9829379 138.988914,96.9829379 C144.471985,96.9829379 148.925449,106.478708 148.925449,118.21166 C148.925449,129.944611 144.480157,139.440381 138.988914,139.440381 Z" id="形状" fill="url(#linearGradient-16)" fill-rule="nonzero"></path>
                <ellipse id="椭圆形" fill="url(#linearGradient-17)" fill-rule="nonzero" opacity="0.41" cx="215.702885" cy="207.968328" rx="35.5459919" ry="5.48680805"></ellipse>
                <path d="M235.142865,226.339337 C231.71901,226.339337 227.960123,222.25689 227.61692,219.505321 C227.61692,216.435321 231.375807,216.778247 231.375807,215.422875 C231.375807,214.067503 228.989731,214.059338 229.324762,213.030561 C229.659794,212.001785 231.71901,211.667024 231.375807,210.981173 C231.032604,210.295322 228.646528,211.324098 229.324762,209.617636 C230.011168,207.568248 231.375807,208.597024 230.35437,206.204711 C229.332934,203.812397 232.405415,206.204711 231.375807,204.155323 C230.35437,201.763009 229.324762,200.072876 231.375807,199.02777 C233.426852,197.982663 233.09182,205.861785 233.770054,205.175934 C234.799662,204.833009 236.164301,204.155323 236.507504,206.547636 C236.850707,208.93995 235.142865,209.617636 238.215346,209.960561 C240.952796,210.303487 237.19391,214.402263 239.244954,215.422875 C241.295999,216.443486 244.025277,219.178725 241.63103,221.913965 C239.579985,224.306278 238.215346,226.355666 235.142865,226.355666 L235.142865,226.339337 Z" id="路径" fill="url(#linearGradient-18)" fill-rule="nonzero"></path>
                <path d="M235.142865,226.339439 C235.233155,226.339439 235.319633,226.302976 235.382704,226.238419 C235.445775,226.173862 235.480098,226.086601 235.477896,225.996411 L233.426852,207.217157 C233.431435,207.126309 233.397891,207.037667 233.334299,206.972576 C233.270706,206.907485 233.182826,206.871842 233.09182,206.874119 C233.000122,206.871968 232.911504,206.907371 232.846644,206.972179 C232.781783,207.036987 232.746352,207.125533 232.748618,207.217157 L234.799662,225.996411 C234.797397,226.088036 234.832828,226.176581 234.897688,226.24139 C234.962549,226.306198 235.051166,226.3416 235.142865,226.339439 L235.142865,226.339439 Z" id="路径" fill="url(#linearGradient-19)" fill-rule="nonzero"></path>
                <path d="M234.799662,223.261172 L234.799662,223.261172 C235.142865,222.926411 235.142865,222.926411 235.142865,222.583486 L230.35437,218.81947 L230.011168,218.81947 L230.011168,219.154231 L234.799662,223.261172 Z M234.113257,216.435321 L234.113257,216.435321 L237.19391,211.99362 L237.19391,211.650694 L236.850707,211.650694 L233.770054,216.092396 L234.113257,216.435321 Z" id="形状" fill="url(#linearGradient-20)" fill-rule="nonzero"></path>
                <path d="M219.755945,225.996411 C219.755945,225.996411 221.120584,227.025188 224.544439,225.31056 C227.960123,223.261172 227.273718,221.554709 225.565876,222.24056 C223.858034,222.926411 220.785553,226.682262 220.099147,225.653486 C219.412742,224.624709 222.150192,222.583486 220.44235,220.534098 C218.734508,218.48471 219.755945,222.926411 219.069539,222.926411 C218.734508,222.926411 218.048103,220.534098 217.361697,221.554709 C216.675292,222.575321 218.391306,225.637156 218.734508,225.996411 C219.412742,226.339337 218.391306,226.339337 216.675292,225.653486 C214.96745,224.632874 214.624248,226.682262 216.340261,227.359948 C218.056274,228.037634 219.755945,225.996411 219.755945,225.996411 L219.755945,225.996411 Z" id="路径" fill="url(#linearGradient-21)" fill-rule="nonzero"></path>
                <path d="M241.508457,204.563567 C241.206112,204.73503 241.206112,205.380056 241.95789,206.514977 C242.709667,207.649897 242.905783,208.368407 243.853676,207.845854 C244.670825,207.40495 249.786179,203.918541 251.208019,202.946918 C251.690137,202.628488 251.248876,202.187583 251.150819,202.073275 C250.725901,201.575216 249.818865,200.995509 248.168224,201.869152 C246.893471,202.4162 245.0794,202.016121 244.572767,202.350881 C244.066135,202.685642 244.156021,203.338833 243.314357,203.836892 C242.726013,204.111634 242.123157,204.354218 241.508457,204.563567 Z" id="路径" fill="#000000" fill-rule="nonzero"></path>
                <path d="M213.9787,204.122663 C213.627325,204.073674 213.235094,204.612557 213.16155,205.951599 C213.088007,207.290641 212.826519,208.009152 213.896985,208.15612 C214.820363,208.278593 221.006183,208.50721 222.714025,208.588859 C223.294201,208.588859 223.204315,207.992822 223.187972,207.845854 C223.138943,207.192663 222.754882,206.212876 220.908125,205.910774 C219.559829,205.600509 218.334105,204.204312 217.729415,204.171652 C217.124724,204.138993 216.806036,204.7187 215.833628,204.620721 C214.861221,204.522743 214.58339,204.122663 213.9787,204.122663 Z" id="路径" fill="#000000" fill-rule="nonzero"></path>
                <path d="M188.001525,164.114688 C188.2532,165.83009 188.714237,167.508226 189.374336,169.111602 C190.354915,171.267134 203.265873,180.273011 203.265873,180.273011 C203.265873,180.273011 205.480348,188.388914 206.53447,191.124153 C207.588593,193.859393 212.654918,206.049578 212.654918,206.049578 L218.554735,204.081838 C218.554735,204.081838 211.07782,179.685138 210.69376,178.607373 C210.3097,177.529607 199.90739,164.800539 199.90739,164.800539 L188.001525,164.114688 Z" id="路径" fill="url(#linearGradient-22)" fill-rule="nonzero"></path>
                <path d="M195.650042,167.062214 C195.445755,167.748065 218.162504,184.037026 218.162504,184.037026 L241.108054,205.820961 L246.01095,201.942637 C246.01095,201.942637 222.975513,178.648197 221.994934,177.864367 C221.014355,177.080538 205.259717,163.045087 205.259717,163.045087 L195.650042,167.062214 Z" id="路径" fill="url(#linearGradient-23)" fill-rule="nonzero"></path>
                <path d="M213.905156,149.279077 C214.044072,148.862668 216.797865,145.653865 216.797865,145.653865 L214.493504,142.257269 C213.382241,143.51507 212.195167,144.703913 210.938904,145.817163 C210.039513,146.044822 209.112337,146.143787 208.185112,146.111099 C209.410835,150.120061 211.012448,153.010433 213.905156,151.35296 C213.83502,150.663442 213.83502,149.968595 213.905156,149.279077 Z" id="路径" fill="#DBA491" fill-rule="nonzero"></path>
                <path d="M222.910141,142.322588 C223.155286,141.310142 222.566938,139.432216 220.238063,137.684929 C215.588484,134.21485 213.749898,141.465275 213.749898,141.465275 C213.749898,141.465275 212.507831,143.645301 212.442459,143.914742 C212.091085,145.351764 214.281045,149.148439 215.408711,148.960646 C217.075695,148.707535 222.542424,143.865753 222.910141,142.322588 Z" id="路径" fill="#EFBA9E" fill-rule="nonzero"></path>
                <path d="M215.13088,140.542642 C215.13088,140.134397 214.223844,138.909663 213.496582,139.53836 C212.769319,140.167057 212.23,141.800035 212.589546,142.314423 C212.918586,142.606591 213.351668,142.753779 213.790755,142.722668 C214.369888,142.086061 214.824448,141.346615 215.13088,140.542642 Z" id="路径" fill="#EFBA9E" fill-rule="nonzero"></path>
                <path d="M212.025713,148.952481 C210.505815,147.441976 211.208564,146.503014 210.947076,145.555886 L205.488519,146.135593 C198.134176,151.687721 191.098521,157.672587 187.176205,165.919129 C187.176205,165.919129 189.537766,168.368597 195.347697,168.531895 C201.157628,168.695193 206.934873,164.204501 206.934873,164.204501 C206.934873,164.204501 205.92978,161.510087 206.526299,160.685433 C207.122818,159.860778 212.377087,155.729343 213.684526,154.667906 C213.888813,154.496444 216.356604,152.863465 216.650778,151.72038 C216.944951,150.577295 214.444475,148.527907 214.444475,148.527907 C213.660011,149.768971 212.842862,149.768971 212.025713,148.952481 Z" id="路径" fill="url(#linearGradient-24)" fill-rule="nonzero"></path>
                <path d="M176.259091,164.465778 C176.259091,164.465778 174.739193,165.568039 174.698336,165.633358 C174.657478,165.698677 174.183532,165.878304 174.003759,166.155911 C173.823986,166.433517 172.867921,167.903198 172.80255,168.009342 C172.672886,168.245153 172.531055,168.474078 172.377632,168.695193 C172.222374,168.915645 171.838313,169.511682 171.70757,169.707639 C171.388609,170.082865 171.114386,170.493869 170.89042,170.932373 C170.89042,171.201815 171.16008,171.275299 171.298995,171.14466 C171.748755,170.63245 172.158532,170.086522 172.524719,169.511682 C172.712011,169.216397 172.931235,168.942588 173.178438,168.695193 C173.138007,168.946901 173.037062,169.185051 172.884264,169.389208 C172.35481,170.140602 171.866527,170.920134 171.421567,171.724368 C171.410877,171.830517 171.460253,171.933778 171.549618,171.992162 C171.638983,172.050545 171.753454,172.054329 171.846485,172.001974 C172.081512,171.793966 172.280333,171.5484 172.434832,171.275299 C172.549233,171.087506 172.974151,170.458809 173.088552,170.287347 C173.289307,169.899648 173.524501,169.530746 173.7913,169.185086 C173.658637,169.682882 173.443177,170.154856 173.153924,170.581283 C173.153924,170.662932 172.778035,171.397772 172.655463,171.610059 C172.489205,171.926548 172.344513,172.253888 172.222374,172.589846 C172.218382,172.713603 172.284775,172.828972 172.393827,172.887778 C172.50288,172.946584 172.635837,172.938714 172.737178,172.867453 C172.973586,172.533154 173.178737,172.177847 173.350039,171.806017 C173.505298,171.520245 173.693242,171.087506 173.832158,170.875219 C173.971073,170.662932 174.428676,169.536176 174.518563,169.601496 C174.43955,170.141087 174.28266,170.666383 174.052788,171.16099 C173.962901,171.414102 173.57067,172.589846 173.57067,172.69599 C173.557236,172.823357 173.625637,172.945346 173.741361,173.000408 C173.857086,173.055471 173.994982,173.031639 174.085474,172.940937 C174.303888,172.558207 174.487134,172.156484 174.632964,171.740698 C174.88628,171.063011 175.253997,170.222027 175.352055,170.017905 C175.535904,169.630744 175.772388,169.27081 176.054803,168.948304 C176.14469,168.948304 176.332634,169.536176 176.348977,169.64232 C176.457116,169.881422 176.594342,170.106292 176.757552,170.311841 C177.108926,170.752746 177.574701,170.981363 177.68093,170.769075 C177.78716,170.556788 177.362242,169.952586 177.280527,169.683145 C177.172325,169.374878 177.09032,169.058048 177.035383,168.736017 C177.065617,168.399211 177.065617,168.060376 177.035383,167.72357 C176.914794,167.402627 176.811146,167.075582 176.724866,166.743783 C177.204449,166.266051 177.729962,165.836682 178.293792,165.461895 L176.259091,164.465778 Z" id="路径" fill="#F7A38D" fill-rule="nonzero"></path>
                <path d="M186.064882,153.198226 L174.894452,164.629076 L178.310135,166.866256 L188.712445,158.399263 C188.712445,158.399263 200.332307,154.896523 204.540626,152.732827 C208.748945,150.56913 207.130989,146.576498 205.488519,146.119264 C203.846049,145.66203 200.814425,147.033732 199.768474,147.417482 C198.444693,147.907375 186.064882,153.198226 186.064882,153.198226 Z" id="路径" fill="url(#linearGradient-25)" fill-rule="nonzero"></path>
                <path d="M222.403508,138.085009 C222.403508,138.085009 223.809005,141.628572 222.517909,143.661631 C221.839675,145.425248 221.071555,145.768173 220.532237,144.551604 C219.992918,143.335035 220.965326,141.693892 218.995996,140.30586 C218.046354,139.735123 216.895631,139.604059 215.8418,139.946605 C214.591562,140.224211 213.782584,141.08969 213.063492,140.828413 C212.344401,140.567136 212.736633,138.632057 212.752976,138.158493 C212.793833,137.211365 217.141067,134.974185 218.987824,135.709025 C220.218308,136.36017 221.365239,137.157986 222.403508,138.085009 Z" id="路径" fill="#131322" fill-rule="nonzero"></path>
            </g>
        </g>
    </g>
</svg>