<?xml version="1.0" encoding="UTF-8"?>
<svg width="300px" height="244px" viewBox="0 0 300 244" version="1.1" xmlns="http://www.w3.org/2000/svg" xmlns:xlink="http://www.w3.org/1999/xlink">
    <title>资源 7</title>
    <defs>
        <linearGradient x1="-0.00821089158%" y1="49.9223602%" x2="99.9958934%" y2="49.9223602%" id="linearGradient-1">
            <stop stop-color="#F9E7A8" offset="0%"></stop>
            <stop stop-color="#F5A623" offset="100%"></stop>
        </linearGradient>
        <linearGradient x1="31.1905041%" y1="59.1334997%" x2="66.5555011%" y2="36.8895259%" id="linearGradient-2">
            <stop stop-color="#C6DFFE" offset="0%"></stop>
            <stop stop-color="#72B1FE" offset="100%"></stop>
        </linearGradient>
        <linearGradient x1="-0.00816792338%" y1="49.9928234%" x2="99.9822704%" y2="49.9928234%" id="linearGradient-3">
            <stop stop-color="#C6DFFE" offset="0%"></stop>
            <stop stop-color="#72B1FE" offset="100%"></stop>
        </linearGradient>
        <linearGradient x1="-0.0226459219%" y1="50.0002851%" x2="100.143552%" y2="50.0002851%" id="linearGradient-4">
            <stop stop-color="#C6DFFE" offset="0%"></stop>
            <stop stop-color="#72B1FE" offset="100%"></stop>
        </linearGradient>
        <linearGradient x1="-1214.22169%" y1="287.155531%" x2="-1109.06573%" y2="287.155531%" id="linearGradient-5">
            <stop stop-color="#C6DFFE" offset="0%"></stop>
            <stop stop-color="#72B1FE" offset="100%"></stop>
        </linearGradient>
        <linearGradient x1="-0.0548265901%" y1="50.0076576%" x2="99.9765458%" y2="50.0076576%" id="linearGradient-6">
            <stop stop-color="#C6DFFE" offset="0%"></stop>
            <stop stop-color="#72B1FE" offset="100%"></stop>
        </linearGradient>
        <linearGradient x1="0.0781361852%" y1="50.2588997%" x2="100.014317%" y2="50.2588997%" id="linearGradient-7">
            <stop stop-color="#C6DFFE" offset="0%"></stop>
            <stop stop-color="#72B1FE" offset="100%"></stop>
        </linearGradient>
        <linearGradient x1="0.0103263685%" y1="49.9638039%" x2="99.8372433%" y2="49.9638039%" id="linearGradient-8">
            <stop stop-color="#C6DFFE" offset="0%"></stop>
            <stop stop-color="#72B1FE" offset="100%"></stop>
        </linearGradient>
        <linearGradient x1="0%" y1="49.8768386%" x2="99.9865481%" y2="49.8768386%" id="linearGradient-9">
            <stop stop-color="#C6DFFE" offset="0%"></stop>
            <stop stop-color="#72B1FE" offset="100%"></stop>
        </linearGradient>
        <linearGradient x1="0.00374851787%" y1="50.0000273%" x2="99.9963438%" y2="50.0000273%" id="linearGradient-10">
            <stop stop-color="#C6DFFE" offset="0%"></stop>
            <stop stop-color="#72B1FE" offset="100%"></stop>
        </linearGradient>
        <linearGradient x1="6.46682808e-13%" y1="50%" x2="100%" y2="50%" id="linearGradient-11">
            <stop stop-color="#C6DFFE" offset="0%"></stop>
            <stop stop-color="#72B1FE" offset="100%"></stop>
        </linearGradient>
        <linearGradient x1="0.0108485001%" y1="49.9609761%" x2="100.008471%" y2="49.9609761%" id="linearGradient-12">
            <stop stop-color="#C6DFFE" offset="0%"></stop>
            <stop stop-color="#72B1FE" offset="100%"></stop>
        </linearGradient>
        <linearGradient x1="7.10542736e-14%" y1="50.2%" x2="100%" y2="50.2%" id="linearGradient-13">
            <stop stop-color="#EAF2FD" offset="0%"></stop>
            <stop stop-color="#C4DFFD" offset="100%"></stop>
        </linearGradient>
        <linearGradient x1="-5.68434189e-13%" y1="50%" x2="100%" y2="50%" id="linearGradient-14">
            <stop stop-color="#EAF2FD" offset="0%"></stop>
            <stop stop-color="#C4DFFD" offset="100%"></stop>
        </linearGradient>
        <linearGradient x1="-0.0354609929%" y1="50.070922%" x2="100%" y2="50.070922%" id="linearGradient-15">
            <stop stop-color="#EAF2FD" offset="0%"></stop>
            <stop stop-color="#C4DFFD" offset="100%"></stop>
        </linearGradient>
        <linearGradient x1="0%" y1="50.070922%" x2="100%" y2="50.070922%" id="linearGradient-16">
            <stop stop-color="#EAF2FD" offset="0%"></stop>
            <stop stop-color="#C4DFFD" offset="100%"></stop>
        </linearGradient>
        <linearGradient x1="-0.0810372771%" y1="49.8381877%" x2="100%" y2="49.8381877%" id="linearGradient-17">
            <stop stop-color="#EAF2FD" offset="0%"></stop>
            <stop stop-color="#C4DFFD" offset="100%"></stop>
        </linearGradient>
        <linearGradient x1="-0.0810372771%" y1="50.1618123%" x2="100%" y2="50.1618123%" id="linearGradient-18">
            <stop stop-color="#EAF2FD" offset="0%"></stop>
            <stop stop-color="#C4DFFD" offset="100%"></stop>
        </linearGradient>
        <linearGradient x1="0%" y1="50%" x2="100%" y2="50%" id="linearGradient-19">
            <stop stop-color="#C6DFFE" offset="0%"></stop>
            <stop stop-color="#72B1FE" offset="100%"></stop>
        </linearGradient>
        <linearGradient x1="0.00839489589%" y1="50.0672495%" x2="99.9999999%" y2="50.0672495%" id="linearGradient-20">
            <stop stop-color="#C6DFFE" offset="0%"></stop>
            <stop stop-color="#72B1FE" offset="100%"></stop>
        </linearGradient>
        <linearGradient x1="0.0111756817%" y1="50%" x2="100%" y2="50%" id="linearGradient-21">
            <stop stop-color="#C6DFFE" offset="0%"></stop>
            <stop stop-color="#72B1FE" offset="100%"></stop>
        </linearGradient>
        <linearGradient x1="99.9779347%" y1="48.3918329%" x2="0.0220653133%" y2="51.6301968%" id="linearGradient-22">
            <stop stop-color="#C6DFFE" offset="0%"></stop>
            <stop stop-color="#72B1FE" offset="100%"></stop>
        </linearGradient>
        <linearGradient x1="-0.0180892285%" y1="49.9126409%" x2="100.03892%" y2="49.9126409%" id="linearGradient-23">
            <stop stop-color="#F3835D" offset="0%"></stop>
            <stop stop-color="#FFC644" offset="100%"></stop>
        </linearGradient>
        <linearGradient x1="-0.144997583%" y1="50.0077519%" x2="99.8550024%" y2="50.0077519%" id="linearGradient-24">
            <stop stop-color="#F3835D" offset="0%"></stop>
            <stop stop-color="#FFC644" offset="100%"></stop>
        </linearGradient>
        <linearGradient x1="0%" y1="49.8691099%" x2="99.9080177%" y2="49.8691099%" id="linearGradient-25">
            <stop stop-color="#C6DFFE" offset="0%"></stop>
            <stop stop-color="#72B1FE" offset="100%"></stop>
        </linearGradient>
        <linearGradient x1="-9.00275877e-14%" y1="50.0074201%" x2="100%" y2="50.0074201%" id="linearGradient-26">
            <stop stop-color="#1A1114" offset="0%"></stop>
            <stop stop-color="#30231E" offset="25%"></stop>
            <stop stop-color="#4A372A" offset="50%"></stop>
            <stop stop-color="#5A372A" offset="59%"></stop>
            <stop stop-color="#60372A" offset="66%"></stop>
            <stop stop-color="#98372A" offset="98%"></stop>
        </linearGradient>
        <linearGradient x1="6.43007126e-14%" y1="50%" x2="99.9972048%" y2="50%" id="linearGradient-27">
            <stop stop-color="#1A1114" offset="0%"></stop>
            <stop stop-color="#30231E" offset="25%"></stop>
            <stop stop-color="#4A372A" offset="50%"></stop>
            <stop stop-color="#5A372A" offset="59%"></stop>
            <stop stop-color="#60372A" offset="66%"></stop>
            <stop stop-color="#98372A" offset="98%"></stop>
        </linearGradient>
        <linearGradient x1="0.146581283%" y1="50%" x2="100.082215%" y2="50%" id="linearGradient-28">
            <stop stop-color="#F3835D" offset="0%"></stop>
            <stop stop-color="#FFC644" offset="100%"></stop>
        </linearGradient>
        <linearGradient x1="0.215004139%" y1="50.0575852%" x2="100.263285%" y2="50.0575852%" id="linearGradient-29">
            <stop stop-color="#F3835D" offset="0%"></stop>
            <stop stop-color="#FFC644" offset="100%"></stop>
        </linearGradient>
        <linearGradient x1="-2.02762864e-12%" y1="50%" x2="100.352782%" y2="50%" id="linearGradient-30">
            <stop stop-color="#C6DFFE" offset="0%"></stop>
            <stop stop-color="#72B1FE" offset="100%"></stop>
        </linearGradient>
        <linearGradient x1="2.41285984%" y1="49.8819384%" x2="100.618853%" y2="49.8819384%" id="linearGradient-31">
            <stop stop-color="#C6DFFE" offset="0%"></stop>
            <stop stop-color="#72B1FE" offset="100%"></stop>
        </linearGradient>
        <linearGradient x1="1.2465662e-12%" y1="49.8281787%" x2="100%" y2="49.8281787%" id="linearGradient-32">
            <stop stop-color="#C6DFFE" offset="0%"></stop>
            <stop stop-color="#72B1FE" offset="100%"></stop>
        </linearGradient>
        <linearGradient x1="1.63989197%" y1="51.3986014%" x2="100.853356%" y2="51.3986014%" id="linearGradient-33">
            <stop stop-color="#C6DFFE" offset="0%"></stop>
            <stop stop-color="#72B1FE" offset="100%"></stop>
        </linearGradient>
        <linearGradient x1="114.513132%" y1="45.7780612%" x2="136.782011%" y2="-24.630102%" id="linearGradient-34">
            <stop stop-color="#C6DFFE" offset="0%"></stop>
            <stop stop-color="#72B1FE" offset="100%"></stop>
        </linearGradient>
        <linearGradient x1="99.8%" y1="50%" x2="-0.2%" y2="50%" id="linearGradient-35">
            <stop stop-color="#C6DFFE" offset="0%"></stop>
            <stop stop-color="#72B1FE" offset="100%"></stop>
        </linearGradient>
    </defs>
    <g id="页面" stroke="none" stroke-width="1" fill="none" fill-rule="evenodd">
        <g id="缺省页" transform="translate(-856.000000, -475.000000)">
            <g id="资源-7" transform="translate(856.000000, 475.000000)">
                <path d="M151.728271,0 C124.687776,-0.0627149546 98.3587244,8.65401416 76.705799,24.837944 L85.0815787,24.837944 C86.9865603,24.837944 88.8135188,25.5940838 90.1605442,26.9400213 C91.5075696,28.2859588 92.2643205,30.1114418 92.2643205,32.0148849 L92.2643205,32.0148849 L92.2643205,32.5700976 C92.2643205,36.5338126 89.0484975,39.7470385 85.0815787,39.7470385 L60.125841,39.7470385 C55.3841489,44.8479277 51.0866993,50.3437836 47.280255,56.1748031 L35.4234195,56.1748031 C31.1528089,56.179309 27.6931853,59.6397927 27.6931877,63.9069567 L27.6931877,64.339696 C27.6904251,67.7825811 29.9708457,70.8106924 33.2824885,71.7615837 L44.1996023,71.7615837 C49.0807909,71.766085 53.0366521,75.7187513 53.0411571,80.5959978 L53.0411571,80.5959978 L53.0411571,83.3557316 C53.0411571,88.2348438 49.0826582,92.1901458 44.1996023,92.1901458 L6.68428077,92.1901458 C2.75547832,93.1778206 0,96.7071477 0,100.755118 L0,101.245012 C0,106.124124 3.9584989,110.079426 8.84155476,110.079426 L28.2733637,110.079426 C27.8920273,114.009461 27.6986354,117.983043 27.6931877,122.00017 C27.6931877,189.376866 83.2593359,244 151.728271,244 C206.526299,244 253.054776,209.054258 269.438618,160.587454 L274.088198,160.587454 C275.716514,160.575986 277.110319,159.417602 277.418199,157.819907 C277.726078,156.222213 276.862413,154.629511 275.354779,154.014715 L269.634734,154.014715 C265.671005,154.014718 262.456502,150.806465 262.451992,146.845939 L262.451992,146.845939 L262.451992,146.290726 C262.451992,142.327011 265.667816,139.113785 269.634734,139.113785 L274.562144,139.113785 L274.562144,139.023972 L286.819383,139.023972 C289.955911,139.023972 292.49857,136.483366 292.49857,133.349371 C292.49857,130.215376 289.955911,127.67477 286.819383,127.67477 L275.63261,127.67477 C275.72522,125.796845 275.768801,123.891703 275.763354,121.959345 C275.780531,104.534388 271.996469,87.3150719 264.674638,71.5003071 L284.531365,71.5003071 C293.072588,71.4958023 299.995492,64.5784898 300,56.0441648 L300,55.1786861 C300,46.9877608 293.606003,40.2186765 285.422058,39.7470385 L215.465911,39.7470385 C212.41513,39.7470385 209.941982,37.2758886 209.941982,34.2275709 C209.941982,31.1792531 212.41513,28.7081032 215.465911,28.7081032 L231.661809,28.7081032 L231.253235,28.3733426 L239.310326,28.3733426 C242.094446,28.3733435 244.764416,27.2676909 246.73232,25.2998452 C248.700223,23.3319996 249.804691,20.6633257 249.802522,17.8814552 L249.802522,17.3017478 C249.804691,14.5198773 248.700223,11.8512034 246.73232,9.8833578 C244.764416,7.91551217 242.094446,6.80985955 239.310326,6.8098604 L192.691962,6.8098604 C179.509658,2.2865046 165.666232,-0.0147307424 151.728271,0 Z" id="背景" fill="#EDF0F4" opacity="0.35"></path>
                <path d="M148.721161,190.242345 C176.798409,190.242345 202.081007,192.528515 219.755945,196.186387 C237.038651,196.300696 250.962874,201.477238 250.962874,207.837689 C250.962874,212.883593 242.219377,217.178327 229.986653,218.80314 C227.061259,219.668619 223.776319,220.476943 220.180862,221.252608 C220.271984,221.734485 220.318485,222.223724 220.319778,222.714124 C220.319778,233.818379 196.148503,242.824255 166.338899,242.824255 C139.520061,242.824255 117.309945,235.533006 113.06894,225.980081 C77.285975,223.269337 51.9788585,216.58229 51.9788585,208.768487 C51.9625201,198.497052 95.2796012,190.242345 148.721161,190.242345 Z" id="形状结合" fill="url(#linearGradient-1)" opacity="0.27"></path>
                <path d="M76.1991665,214.590056 C81.1510909,212.254896 89.7311579,204.792184 84.2317435,191.548728 C79.0428459,178.133809 70.4627789,185.572026 67.7661864,176.647798 C65.0695939,167.72357 65.4291395,165.282267 58.1728543,161.902002 C50.9165691,158.521736 54.9696293,155.133305 49.7071882,151.165167 C44.4447471,147.197029 41.5356958,146.690806 37.8421812,148.438093 C34.1486667,150.18538 40.4652303,160.415991 37.025032,164.310645 C33.5848337,168.205299 33.3723749,169.421868 39.2231635,175.36591 C45.073952,181.309952 47.3374554,181.358941 45.3762972,186.79676 C43.4151391,192.234579 45.3762972,193.981866 49.0371258,193.761414 C52.6979544,193.540962 58.3689701,193.524632 56.2035246,200.954684 C54.0380792,208.384737 54.8960859,211.013833 62.0297987,213.316332 C69.1635116,215.618832 69.3841419,217.774364 76.223681,214.573726 L76.1991665,214.590056 Z" id="路径" fill="url(#linearGradient-2)" fill-rule="nonzero"></path>
                <path d="M79.0019884,212.516173 C78.9196499,212.555258 78.8251321,212.560007 78.7392849,212.529372 C78.6534377,212.498737 78.5833148,212.435235 78.5443848,212.352875 L47.8032305,167.160193 C47.6561436,166.849927 47.6561436,166.849927 47.9666603,166.711124 C48.277177,166.57232 48.277177,166.564155 48.4242639,166.874421 L79.1654182,212.058939 C79.3125051,212.369205 79.3125051,212.369205 79.0019884,212.516173 Z" id="路径" fill="url(#linearGradient-3)" fill-rule="nonzero"></path>
                <path d="M58.9082886,182.706149 C58.5977719,182.844952 58.450685,182.542851 58.3035982,182.232585 L59.1942909,170.483304 C59.1942909,170.483304 59.3577207,170.034235 59.5048076,170.344501 C59.5048076,170.344501 59.9542396,170.507799 59.6518944,170.646602 L58.9082886,182.706149 L58.9082886,182.706149 Z M63.9255849,190.152531 L54.5937406,190.397478 C54.5125948,190.436245 54.4192567,190.440782 54.3347278,190.410069 C54.2501989,190.379356 54.1815792,190.315973 54.1443086,190.23418 C54.1028463,190.15227 54.0968642,190.056942 54.1277619,189.970498 C54.1586595,189.884054 54.2237261,189.81408 54.3077384,189.776946 L63.29638,189.678967 C63.9174135,189.393196 64.0563288,189.678967 63.892899,190.152531 L63.9255849,190.152531 Z M71.0266118,200.407637 L71.0266118,200.407637 C70.7160951,200.554605 70.5771797,200.244339 70.4300929,199.934073 L71.7865606,187.588755 C71.7865606,187.588755 71.9499905,187.131521 72.0970773,187.441787 C72.0970773,187.441787 72.5546809,187.605085 72.2441642,187.752053 L71.0266118,200.407637 Z M75.17773,206.768088 L62.3158009,206.768088 C62.0052842,206.906891 61.8581974,206.60479 62.1687141,206.457822 C62.0216272,206.147556 62.3321439,206.000588 62.4792308,206.310854 L75.0143001,206.449657 C75.3248168,206.302689 75.3248168,206.302689 75.161387,206.759923 L75.17773,206.768088 Z" id="形状" fill="url(#linearGradient-4)" fill-rule="nonzero"></path>
                <path d="M83.6188816,211.095481 C87.9497726,209.054258 90.2459619,209.111413 90.0825321,203.151041 C89.7475009,197.639738 93.931305,195.296414 91.259227,192.022292 C88.587149,188.74817 85.9477569,190.389313 86.6014763,182.134606 C87.2551957,173.8799 82.5892736,170.42615 79.8599951,169.446363 C77.1307166,168.466576 75.7742489,166.441682 73.3228012,161.959156 C70.8713535,157.47663 66.4832621,160.269023 66.1237164,162.702161 C65.7641707,165.135299 68.673222,171.316123 66.7447498,175.243437 C64.8162776,179.17075 68.5669926,182.322399 71.7293602,184.224819 C74.8917277,186.127239 72.971427,190.062717 71.2227276,192.773462 C69.5884292,195.786307 65.6987988,200.285163 68.6977365,202.644817 C71.6966742,205.004471 76.5260262,214.443088 83.6352246,211.095481 L83.6188816,211.095481 Z" id="路径" fill="url(#linearGradient-5)" fill-rule="nonzero"></path>
                <path d="M84.239915,210.801545 C84.1579387,210.842974 84.0625332,210.848951 83.9760198,210.818079 C83.8895064,210.787206 83.8194754,210.722192 83.7823114,210.638247 L75.7170485,176.680458 C75.6755862,176.598548 75.6696041,176.503219 75.7005018,176.416776 C75.7313994,176.330332 75.796466,176.260358 75.8804783,176.223224 C75.9628168,176.184139 76.0573346,176.17939 76.1431818,176.210025 C76.229029,176.24066 76.2991519,176.304161 76.3380819,176.386522 L84.239915,210.801545 C84.4033449,210.344311 84.5504317,210.654577 84.239915,210.801545 Z" id="路径" fill="url(#linearGradient-6)" fill-rule="nonzero"></path>
                <path d="M79.5413069,189.605483 L79.5413069,189.605483 C79.0837033,189.442185 79.0837033,189.442185 78.9366165,189.13192 L82.3931577,178.811495 L82.7036744,178.664527 L82.8507613,178.974793 L79.5821644,189.589154 L79.5413069,189.605483 Z M82.8752758,203.894046 L82.8752758,203.894046 L72.7262822,199.223727 L72.5873669,198.913461 L72.8897121,198.766493 L82.695503,203.58378 C83.0387056,203.436812 83.1857925,203.747078 82.8752758,203.894046 Z" id="形状" fill="url(#linearGradient-7)" fill-rule="nonzero"></path>
                <path d="M104.815733,217.643726 C105.971004,217.612313 107.044623,217.041222 107.715752,216.101118 C108.38688,215.161013 108.577785,213.960781 108.231417,212.859098 C107.553183,210.123859 106.523575,211.495561 106.180372,213.544949 C105.837169,215.594337 106.523575,212.516173 104.47253,211.838487 C102.421486,211.495561 104.47253,215.251412 103.786125,215.920933 C102.764688,216.255694 101.400049,212.499843 100.027238,214.206306 C98.6544276,215.912768 101.73508,217.627396 104.815733,217.627396 L104.815733,217.643726 Z" id="路径" fill="url(#linearGradient-8)" fill-rule="nonzero"></path>
                <path d="M244.131507,201.844658 C240.707651,201.844658 236.948765,197.762211 236.605562,195.010642 C236.605562,191.940643 240.364449,192.283568 240.364449,190.928196 C240.364449,189.572824 237.978373,189.564659 238.313404,188.535882 C238.648435,187.507106 240.707651,187.172345 240.364449,186.486494 C240.021246,185.800643 237.63517,186.82942 238.313404,185.122957 C238.999809,183.073569 240.364449,184.102345 239.343012,181.710032 C238.321575,179.317718 241.394057,181.710032 240.364449,179.660644 C239.343012,177.26833 238.313404,175.578197 240.364449,174.533091 C242.415493,173.487985 242.080462,181.367106 242.758696,180.681255 C243.788304,180.33833 245.152943,179.660644 245.496146,182.052957 C245.839348,184.445271 244.131507,185.122957 247.203988,185.465883 C249.941438,185.808808 246.182551,189.907584 248.233596,190.928196 C250.28464,191.948808 253.013919,194.684047 250.619672,197.46011 C248.568627,199.852424 247.203988,201.901812 244.131507,201.901812 L244.131507,201.844658 Z" id="路径" fill="url(#linearGradient-9)" fill-rule="nonzero"></path>
                <path d="M244.131507,201.84476 C244.221796,201.84476 244.308275,201.808297 244.371346,201.74374 C244.434417,201.679183 244.46874,201.591922 244.466538,201.501732 L242.415493,182.722479 C242.420076,182.63163 242.386533,182.542988 242.32294,182.477897 C242.259348,182.412806 242.171468,182.377164 242.080462,182.37944 C241.988763,182.37729 241.900146,182.412692 241.835285,182.4775 C241.770425,182.542308 241.734994,182.630854 241.737259,182.722479 L243.788304,201.501732 C243.786039,201.593357 243.82147,201.681903 243.88633,201.746711 C243.951191,201.811519 244.039808,201.846921 244.131507,201.84476 L244.131507,201.84476 Z" id="路径" fill="url(#linearGradient-10)" fill-rule="nonzero"></path>
                <path d="M243.788304,198.766493 L243.788304,198.766493 C244.131507,198.431733 244.131507,198.431733 244.131507,198.088807 L239.343012,194.324791 L238.999809,194.324791 L238.999809,194.659552 L243.788304,198.766493 Z M243.101899,191.940643 L243.101899,191.940643 L246.182551,187.498941 L246.182551,187.156015 L245.839348,187.156015 L242.758696,191.597717 L243.101899,191.940643 Z" id="形状" fill="url(#linearGradient-11)" fill-rule="nonzero"></path>
                <path d="M228.744586,201.501732 C228.744586,201.501732 230.109226,202.530509 233.533081,200.815881 C236.948765,198.766493 236.262359,197.060031 234.554517,197.745882 C232.846676,198.431733 229.774194,202.187583 229.087789,201.158807 C228.401384,200.13003 231.138834,198.088807 229.430992,196.039419 C227.72315,193.990031 228.744586,198.431733 228.058181,198.431733 C227.72315,198.431733 227.036744,196.039419 226.350339,197.060031 C225.663934,198.080642 227.379947,201.142477 227.72315,201.501732 C228.401384,201.844658 227.379947,201.844658 225.663934,201.158807 C223.956092,200.138195 223.612889,202.187583 225.328903,202.865269 C227.044916,203.542956 228.744586,201.501732 228.744586,201.501732 L228.744586,201.501732 Z" id="路径" fill="url(#linearGradient-12)" fill-rule="nonzero"></path>
                <path d="M68.3442341,62.678912 L80.5965231,62.6739624 C81.7234044,62.6735071 82.6372911,63.5866558 82.6377464,64.7135371 C82.6377466,64.7140866 82.6377466,64.7146361 82.6377464,64.7151856 C82.6372906,65.8432444 81.7229321,66.757603 80.5948733,66.7580587 L68.3425843,66.7630083 C67.215703,66.7634635 66.3018163,65.8503148 66.301361,64.7234336 C66.3013608,64.7228841 66.3013608,64.7223346 66.301361,64.7217851 C66.3018167,63.5937262 67.2161753,62.6793677 68.3442341,62.678912 Z" id="矩形" fill="url(#linearGradient-13)" fill-rule="nonzero" transform="translate(74.469554, 64.718485) rotate(45.000000) translate(-74.469554, -64.718485) "></path>
                <path d="M68.3366338,62.6816643 L80.5889228,62.6866139 C81.7169817,62.6870696 82.6313402,63.6014282 82.6317959,64.729487 C82.6322512,65.8563683 81.7191025,66.770255 80.5922212,66.7707103 C80.5916717,66.7707105 80.5911222,66.7707105 80.5905727,66.7707103 L68.3382837,66.7657607 C67.2102249,66.765305 66.2958663,65.8509464 66.2954106,64.7228876 C66.2949554,63.5960063 67.2081041,62.6821196 68.3349853,62.6816643 C68.3355348,62.6816641 68.3360843,62.6816641 68.3366338,62.6816643 Z" id="矩形" fill="url(#linearGradient-14)" fill-rule="nonzero" transform="translate(74.463603, 64.726187) rotate(135.000000) translate(-74.463603, -64.726187) "></path>
                <path d="M219.892118,61.0260327 L237.926421,61.0187473 C239.307132,61.0161705 240.426873,62.1350064 240.42743,63.5157181 C240.427431,63.5163914 240.427431,63.5170647 240.425411,63.5177372 L240.425105,64.2763134 C240.422527,65.6562356 239.304017,66.774745 237.924095,66.7773231 L219.889791,66.7846085 C218.50908,66.7871853 217.38934,65.6683495 217.388783,64.2876377 C217.388782,64.2869644 217.388782,64.2862911 217.390802,64.2856187 L217.391108,63.5270424 C217.393686,62.1471202 218.512196,61.0286108 219.892118,61.0260327 Z" id="矩形" fill="url(#linearGradient-15)" fill-rule="nonzero" transform="translate(228.908106, 63.901678) rotate(45.000000) translate(-228.908106, -63.901678) "></path>
                <path d="M219.886813,61.0241162 L237.921116,61.0314016 C239.301039,61.0339797 240.419548,62.1524891 240.422126,63.5324113 L240.422433,64.2909875 C240.425009,65.6716985 239.306174,66.7914387 237.925462,66.7919964 C237.924789,66.7919967 237.924115,66.7919967 237.923443,66.7899774 L219.889139,66.782692 C218.509217,66.7801139 217.390707,65.6616045 217.388129,64.2816823 L217.387823,63.523106 C217.385246,62.1423951 218.504082,61.0226549 219.884794,61.0220971 C219.885467,61.0220969 219.88614,61.0220969 219.886813,61.0241162 Z" id="矩形" fill="url(#linearGradient-16)" fill-rule="nonzero" transform="translate(228.905128, 63.907047) rotate(135.000000) translate(-228.905128, -63.907047) "></path>
                <path d="M128.703061,12.8418104 L136.258639,12.8387581 C136.955051,12.8384768 137.519833,13.4028027 137.520115,14.0992153 C137.520115,14.0995549 137.520115,14.0998945 137.520115,14.1002341 C137.519833,14.7973745 136.954759,15.362448 136.257619,15.3627297 L128.702041,15.3657819 C128.005628,15.3660632 127.440846,14.8017374 127.440565,14.1053247 C127.440565,14.1049852 127.440565,14.1046456 127.440565,14.104306 C127.440847,13.4071656 128.00592,12.842092 128.703061,12.8418104 Z" id="矩形" fill="url(#linearGradient-17)" fill-rule="nonzero" transform="translate(132.480340, 14.102270) rotate(45.000000) translate(-132.480340, -14.102270) "></path>
                <path d="M128.704946,12.8335349 L136.260524,12.8365872 C136.957665,12.8368688 137.522738,13.4019424 137.52302,14.0990827 C137.523301,14.7954954 136.958975,15.3602774 136.262563,15.3605587 C136.262223,15.3605588 136.261883,15.3605588 136.261544,15.3605587 L128.705966,15.3575065 C128.008825,15.3572248 127.443752,14.7921512 127.44347,14.0950109 C127.443189,13.3985983 128.007515,12.8338163 128.703927,12.8335349 C128.704267,12.8335348 128.704606,12.8335348 128.704946,12.8335349 Z" id="矩形" fill="url(#linearGradient-18)" fill-rule="nonzero" transform="translate(132.483245, 14.097047) rotate(135.000000) translate(-132.483245, -14.097047) "></path>
                <rect id="矩形" fill="url(#linearGradient-19)" fill-rule="nonzero" x="111.965789" y="114.529293" width="97.3306458" height="24.3150511" rx="3.3"></rect>
                <path d="M129.877706,126.678653 C129.881005,128.803573 128.602056,130.720944 126.63793,131.535641 C124.673804,132.350339 122.411869,131.901688 120.908107,130.399141 C119.404346,128.896594 118.955332,126.636486 119.770688,124.673946 C120.586045,122.711406 122.504965,121.43349 124.631602,121.436786 C127.528942,121.436786 129.877706,123.783653 129.877706,126.678653 L129.877706,126.678653 Z" id="路径" fill="#FFFFFF" fill-rule="nonzero"></path>
                <path d="M209.288263,148.478918 L209.288263,167.380645 C209.288263,168.20618 208.908832,168.985979 208.258655,169.495352 C204.656303,161.152608 196.381509,155.79733 187.288943,155.924184 C178.196377,156.051038 170.074447,161.635072 166.706616,170.075059 L114.662381,170.075059 C113.170427,170.075059 111.958433,168.871366 111.949446,167.380645 L111.949446,148.478918 C111.958433,146.992705 113.166769,145.792668 114.65421,145.792668 L206.599842,145.792668 C208.082753,145.797151 209.283776,146.997204 209.288263,148.478918 Z" id="路径" fill="url(#linearGradient-20)" fill-rule="nonzero"></path>
                <path d="M129.877706,157.950193 C129.877706,160.074373 128.59665,161.989238 126.63226,162.801361 C124.667871,163.613485 122.407276,163.162816 120.905211,161.659626 C119.403145,160.156436 118.955631,157.896968 119.771467,155.935431 C120.587304,153.973895 122.505708,152.696864 124.631602,152.700161 C126.024371,152.700161 127.359976,153.253552 128.344045,154.238358 C129.328115,155.223165 129.879869,156.558551 129.877706,157.950193 L129.877706,157.950193 Z" id="路径" fill="#FFFFFF" fill-rule="nonzero"></path>
                <path d="M185.06796,200.766892 L114.662381,200.766892 C113.17359,200.766892 111.962899,199.56817 111.949446,198.080642 L111.949446,179.146255 C111.958408,177.658713 113.165444,176.456294 114.65421,176.451841 L165.186719,176.451841 C165.129518,177.105032 165.096832,177.766389 165.096832,178.43591 C165.099342,189.872015 173.694934,199.48329 185.06796,200.766892 Z" id="路径" fill="url(#linearGradient-21)" fill-rule="nonzero"></path>
                <path d="M129.877706,186.200723 C129.881005,188.325643 128.602056,190.243013 126.63793,191.057711 C124.673804,191.872408 122.411869,191.423758 120.908107,189.921211 C119.404346,188.418664 118.955332,186.158555 119.770688,184.196015 C120.586045,182.233475 122.504965,180.95556 124.631602,180.958855 C127.528942,180.958855 129.877706,183.305723 129.877706,186.200723 L129.877706,186.200723 Z" id="路径" fill="#FFFFFF" fill-rule="nonzero"></path>
                <path d="M187.601122,159.926098 C177.374685,159.926098 169.08452,168.209567 169.08452,178.427745 C169.08452,188.645923 177.374685,196.929392 187.601122,196.929392 C197.827559,196.929392 206.117724,188.645923 206.117724,178.427745 C206.117724,168.209567 197.827559,159.926098 187.601122,159.926098 L187.601122,159.926098 Z M187.756381,192.316276 C186.209535,192.325181 184.94788,191.080299 184.937388,189.534712 C184.926896,187.989125 186.171534,186.727257 187.718359,186.715243 C189.265184,186.703229 190.529304,187.945611 190.542859,189.491175 C190.549386,190.235342 190.259215,190.951504 189.736411,191.481546 C189.213607,192.011587 188.501165,192.311917 187.756381,192.316276 L187.756381,192.316276 Z M189.202735,182.077452 C189.080494,182.818922 188.438993,183.362955 187.686923,183.362955 C186.934853,183.362955 186.293352,182.818922 186.171111,182.077452 C185.133332,176.541655 183.964808,170.050565 183.956637,168.931974 C183.943098,166.920806 185.563814,165.279466 187.576608,165.265854 C189.589401,165.25241 191.232069,166.871817 191.245654,168.882985 C191.253779,169.99341 190.166971,176.50083 189.202735,182.077452 Z" id="形状" fill="url(#linearGradient-22)" fill-rule="nonzero"></path>
                <path d="M119.96568,80.1632585 C118.669647,80.0655446 117.366785,80.2123445 116.125078,80.5959978 C113.420314,81.2573541 106.523575,84.3355188 106.523575,84.3355188 C106.523575,84.3355188 105.943399,87.062593 106.88312,88.5159439 C107.822842,89.9692949 120.692943,86.1562899 120.692943,86.1562899 C120.692943,86.1562899 121.755237,80.3428861 119.96568,80.1632585 Z" id="路径" fill="url(#linearGradient-23)" fill-rule="nonzero"></path>
                <path d="M133.195326,80.8327797 C128.164994,78.6519058 122.486587,78.4939747 117.342631,80.3918755 C117.097486,84.6485063 116.890475,88.9677347 116.721597,93.3495606 C116.498243,99.2119537 116.35388,104.960038 116.288508,110.593814 C121.790801,112.114885 127.603147,112.114885 133.105439,110.593814 C133.121782,100.676191 133.151745,90.7558462 133.195326,80.8327797 Z" id="路径" fill="url(#linearGradient-24)" fill-rule="nonzero"></path>
                <path d="M144.308556,67.6383127 C144.00621,64.4866641 144.185983,64.8295896 143.491406,62.739377 C143.62215,61.9228877 143.908152,59.685707 144.030725,58.8855475 C143.891809,58.6569305 143.94901,58.0690582 143.409691,57.7261327 C142.962366,57.4566498 142.452798,57.3075599 141.930651,57.2933934 C141.522077,58.1098827 140.598698,60.5593506 140.190123,61.4329941 L139.748863,61.0900686 C139.454689,60.8614516 139.168687,60.6246697 138.931714,60.3960527 C138.775062,60.443597 138.646827,60.5568288 138.580339,60.7063186 C138.47411,61.0002548 138.841827,61.2370367 139.299431,62.0208664 C139.609947,62.5515844 139.585433,62.6985525 139.863264,62.967994 C140.078225,63.1782804 140.334098,63.3422402 140.615041,63.4497227 C140.738252,64.7534551 141.012469,66.0384959 141.43219,67.2790574 C141.579277,67.8179404 144.471985,69.3284456 144.308556,67.6383127 Z" id="路径" fill="#E39972" fill-rule="nonzero"></path>
                <path d="M128.137172,69.9979668 C127.892027,73.263924 127.649606,76.5026648 127.409909,79.7141894 C126.803075,80.5557213 125.806604,81.0273528 124.770517,80.963418 C123.901718,80.8000367 123.143804,80.27438 122.686787,79.5182319 C122.801188,77.2810513 122.912865,75.0493139 123.021818,72.8230197 L128.137172,69.9979668 Z" id="路径" fill="#D68358" fill-rule="nonzero"></path>
                <path d="M129.289353,68.5854403 C129.223981,70.5613444 129.411925,73.8436313 128.684662,75.4766099 C127.957399,76.5707056 126.682646,77.2892162 124.141312,76.9299609 C121.599978,76.5707056 121.052488,73.8436313 121.052488,73.2965835 C121.166889,70.9369295 121.22409,69.8999881 121.33849,67.5811585 C121.924882,67.0125147 122.648237,66.604726 123.438564,66.397249 C125.424237,65.8175416 127.671397,66.7156798 129.289353,68.5854403 Z" id="路径" fill="#E39972" fill-rule="nonzero"></path>
                <path d="M128.333288,70.4552008 C128.774023,70.17293 129.338907,70.17293 129.779642,70.4552008 C130.243744,70.9835839 130.271082,71.7655056 129.845014,72.3249613 C129.472075,72.8167113 128.885223,73.0992661 128.267916,73.0842963 C128.29243,72.2106528 128.29243,71.3288443 128.333288,70.4552008 Z" id="路径" fill="#E39972" fill-rule="nonzero"></path>
                <path d="M114.00049,71.3206794 L113.845232,72.2759719 L116.688911,74.0069292 C117.506061,73.5415303 117.661319,73.1904399 117.644976,72.9699878 C117.604118,72.0065304 114.727753,71.4513177 114.00049,71.3206794 Z" id="路径" fill="#556B96" fill-rule="nonzero"></path>
                <path d="M109.865715,86.6625132 C111.5327,83.3366802 113.19696,80.0108471 114.858497,76.6850141 C114.968023,76.1607459 114.760245,75.6209606 114.32735,75.3051472 C113.685014,74.9242527 112.857775,75.0980808 112.423392,75.7052269 L106.106829,83.8211305 C105.748717,84.4125828 105.646537,85.1240569 105.82374,85.7922654 C106.000943,86.4604739 106.442312,87.0280364 107.04655,87.364694 C108.038808,87.7722149 109.180995,87.4877258 109.865715,86.6625132 L109.865715,86.6625132 Z" id="路径" fill="#F7A06F" fill-rule="nonzero"></path>
                <path d="M114.32735,77.4933385 C114.662352,77.0995865 114.960499,76.6759587 115.218043,76.2277801 C115.953477,75.0030461 116.68074,73.0842963 116.141421,72.6597219 C116.018849,72.5617432 115.790047,72.5045889 115.275243,72.7168761 C114.836948,72.2342894 114.201756,71.9786129 113.551058,72.0228602 C112.733909,72.194323 112.292648,73.1741101 111.91676,74.0395888 C111.628403,74.5325675 111.505289,75.1047317 111.565386,75.6725674 C111.818702,76.5788705 112.921853,77.2892162 114.32735,77.4933385 Z" id="路径" fill="#F7A06F" fill-rule="nonzero"></path>
                <path d="M111.990303,61.1063984 L116.035192,67.768951 L119.900308,70.2184189 C120.246451,70.9194816 120.218548,71.7471051 119.82597,72.4233023 C119.433393,73.0994994 118.728225,73.5345605 117.947321,73.5823548 L113.984147,71.6962645 L106.687005,71.5901209 L111.990303,61.1063984 Z" id="路径" fill="url(#linearGradient-25)" fill-rule="nonzero"></path>
                <path d="M111.990303,61.1063984 C113.224199,61.7269302 113.036254,65.1888448 111.835045,67.5566638 C110.633835,69.9244827 107.937243,72.1861581 106.687005,71.5492964 C105.436766,70.9124348 105.722769,67.7526212 106.687005,65.5644299 C107.8637,62.8700153 110.707379,60.4695367 111.990303,61.1063984 Z" id="路径" fill="#DEDFE0" fill-rule="nonzero"></path>
                <path d="M110.862637,68.7732328 L109.162967,67.6219829 C108.889855,67.1818427 108.889855,66.6251021 109.162967,66.1849618 C109.384034,65.842722 109.740778,65.611026 110.143546,65.5481001 L112.276305,66.1849618 C112.186166,66.6780953 112.020811,67.1544838 111.786016,67.5974883 C111.541874,68.0353878 111.230267,68.4321585 110.862637,68.7732328 Z" id="路径" fill="#F0F1F2" fill-rule="nonzero"></path>
                <path d="M101.506278,129.152616 L100.296898,131.12852 L100.076267,132.116472 C99.7314994,132.419061 99.3498677,132.676935 98.9404298,132.883972 C98.3349881,133.1934 97.6791753,133.392474 97.0037861,133.471844 C96.5714253,133.773435 96.1017296,134.017699 95.6064609,134.19852 C93.2694141,135.080328 90.5319642,134.484291 90.4502492,133.839265 C90.3930488,133.373866 91.6841446,133.128919 94.3643941,131.602084 C95.4657016,130.981512 96.5298063,130.297218 97.5512761,129.552696 C97.9680222,129.070967 98.3684254,128.581074 98.793343,128.09118 L101.506278,129.152616 Z" id="路径" fill="#0F111A" fill-rule="nonzero"></path>
                <path d="M94.5850244,128.752536 L93.3756435,130.72844 L93.1550132,131.716392 C92.8102454,132.018982 92.4286137,132.276855 92.0191758,132.483892 C91.4137341,132.793321 90.7579212,132.992394 90.0825321,133.071765 C89.6521589,133.371812 89.1853683,133.615993 88.6933784,133.79844 C86.3481601,134.680249 83.6107101,134.084211 83.5289952,133.439185 C83.4717947,132.973786 84.7628905,132.728839 87.44314,131.202004 C88.5444475,130.581432 89.6085523,129.897138 90.6300221,129.152616 C91.0467682,128.670887 91.4471713,128.180994 91.8720889,127.6911 L94.5850244,128.752536 Z" id="路径" fill="#0F111A" fill-rule="nonzero"></path>
                <path d="M116.076049,107.923894 C112.678035,108.007456 109.288503,108.30196 105.927056,108.805703 C103.655381,109.148628 101.51445,109.565038 99.5287773,110.022272 C98.2213385,112.063495 96.9057282,114.300676 95.6228039,116.717484 C93.5685402,120.599753 91.7829714,124.61813 90.2786479,128.744371 C90.9168724,129.118877 91.6324748,129.342322 92.3705499,129.397563 C93.1670687,129.455538 93.9658526,129.321114 94.6994253,129.005648 L103.549152,115.941819 L111.124125,114.382325 L116.076049,107.923894 Z" id="路径" fill="url(#linearGradient-26)" fill-rule="nonzero"></path>
                <path d="M133.040068,105.58057 C133.360607,106.375035 133.550989,107.215901 133.603901,108.070863 C133.889903,110.814267 132.892981,112.904479 132.059488,113.598495 C131.225996,114.292511 125.726582,114.529293 122.000381,114.676261 C119.464813,114.782139 116.925429,114.754885 114.392722,114.594612 C113.575573,115.998974 112.668537,117.452324 111.630757,118.93017 C108.767053,123.004731 105.39807,126.700212 101.604336,129.928281 C100.70377,129.765024 99.8366532,129.453224 99.0384877,129.005648 C98.4959148,128.694999 97.9913404,128.322354 97.5349331,127.895223 C99.2618419,125.532847 100.988751,123.058884 102.715659,120.473335 C105.534824,116.252085 108.08433,112.128814 110.388691,108.144347 C117.898292,107.278868 125.530466,106.397059 133.040068,105.58057 Z" id="路径" fill="url(#linearGradient-27)" fill-rule="nonzero"></path>
                <path d="M140.459783,64.5029938 C141.523743,64.182023 142.619915,63.979395 143.72838,63.8987918 C144.839703,64.7152811 145.558794,75.9828333 145.019475,77.7791097 C144.480157,79.5753862 133.195326,86.3359175 133.195326,86.3359175 L129.926729,85.0621942 C129.926729,85.0621942 128.83992,83.4292156 129.38741,82.1636572 C129.9349,80.8980988 139.560918,75.4439504 139.560918,75.4439504 L140.459783,64.5029938 Z" id="路径" fill="url(#linearGradient-28)" fill-rule="nonzero"></path>
                <path d="M111.859559,76.2196152 L114.311007,77.6239768 C114.311007,77.6239768 109.220167,88.5159439 108.133359,88.8751992 C107.04655,89.2344545 104.644132,88.4506248 105.044535,86.1562899 C105.747283,82.2208115 111.859559,76.2196152 111.859559,76.2196152 Z" id="路径" fill="url(#linearGradient-29)" fill-rule="nonzero"></path>
                <path d="M125.17092,64.2008928 C123.412819,64.3571852 121.813209,65.2803256 120.799172,66.7238447 C120.055566,67.7362914 120.161796,68.912036 121.616321,68.8548818 C123.070847,68.7977275 124.296571,67.842435 125.702067,67.7934457 C127.107564,67.7444563 128.970664,71.9983655 130.376161,71.2227007 C131.266854,70.7328071 130.760221,67.6056532 129.983929,66.1849618 C129.207638,64.7642704 127.172936,64.1274088 125.17092,64.2008928 Z" id="路径" fill="#131322" fill-rule="nonzero"></path>
                <path d="M100.010895,62.2658132 L99.773922,63.1557865 C99.9309551,63.0136586 100.149671,62.9613322 100.354098,63.0169833 C100.523386,63.0481706 100.670072,63.1528617 100.754501,63.3027546 C100.811791,63.4722358 100.811791,63.6558265 100.754501,63.8253077 L100.509356,64.8377544 L100.174325,64.7561055 L100.41947,63.800813 C100.456897,63.6867704 100.456897,63.5637653 100.41947,63.4497227 C100.367749,63.3471584 100.271005,63.2746594 100.157982,63.2537652 C100.049939,63.2262534 99.9352362,63.2503819 99.8474655,63.3190844 C99.7510747,63.4060659 99.6827997,63.5197656 99.6513497,63.6456801 L99.4143764,64.5601481 L99.0793452,64.4703343 L99.6758641,62.1759994 L100.010895,62.2658132 Z" id="路径" fill="url(#linearGradient-30)" fill-rule="nonzero"></path>
                <path d="M102.544058,63.8661322 C102.628178,64.1038684 102.628178,64.3632363 102.544058,64.6009726 L101.326506,64.2825417 C101.278991,64.4116762 101.278991,64.553487 101.326506,64.6826215 C101.386843,64.7861582 101.487439,64.8600666 101.604336,64.8867438 C101.702415,64.9197251 101.808603,64.9197251 101.906682,64.8867438 C101.987703,64.8470147 102.05782,64.7881642 102.110969,64.7152811 L102.446,64.79693 C102.377606,64.9371505 102.26587,65.0516591 102.127312,65.1235257 C101.94231,65.2055791 101.735007,65.2228404 101.538964,65.1725151 C101.320568,65.1287546 101.132382,64.9914597 101.02416,64.79693 C100.910641,64.583551 100.887108,64.3337095 100.958788,64.1029141 C101.011117,63.8799715 101.145252,63.6847587 101.334677,63.5558663 C101.515319,63.4218952 101.749234,63.3824351 101.963882,63.4497227 C102.216283,63.4790565 102.435648,63.6365013 102.544058,63.8661322 L102.544058,63.8661322 Z M101.620679,63.7518237 C101.520661,63.8198596 101.443713,63.9166782 101.400049,64.02943 L102.28257,64.2580471 C102.317003,64.1418276 102.300083,64.0164445 102.236073,63.913488 C102.172064,63.8105314 102.067068,63.7398181 101.947539,63.7191641 C101.838926,63.6828377 101.719943,63.6947264 101.620679,63.7518237 L101.620679,63.7518237 Z" id="形状" fill="url(#linearGradient-31)" fill-rule="nonzero"></path>
                <polygon id="路径" fill="url(#linearGradient-32)" fill-rule="nonzero" points="103.630866 63.196611 103.034348 65.4909459 102.699316 65.4011321 103.295835 63.114962"></polygon>
                <path d="M105.199793,64.5029938 C105.275172,64.7170127 105.275172,64.9503313 105.199793,65.1643502 C105.147652,65.3790038 105.027222,65.570962 104.85659,65.711398 C104.681323,65.8429147 104.454678,65.8851876 104.243728,65.8257065 C104.038797,65.7709813 103.877549,65.612962 103.818811,65.409297 L103.590009,66.2747756 L103.263149,66.1849618 L103.843325,63.9396162 L104.153842,64.0131003 L104.104813,64.2090577 C104.262269,64.0797568 104.474895,64.0397291 104.668646,64.1029141 C104.899385,64.1440824 105.096666,64.2926815 105.199793,64.5029938 L105.199793,64.5029938 Z M104.194699,64.5029938 C104.091637,64.6057782 104.020667,64.7362573 103.990412,64.8785789 L103.990412,64.8785789 C103.935842,65.0233032 103.935842,65.1829237 103.990412,65.327648 C104.033773,65.4427896 104.131929,65.5286067 104.2519,65.556265 C104.388066,65.6007242 104.537359,65.5763696 104.652303,65.4909459 C104.764172,65.3858826 104.841166,65.2491149 104.872933,65.099031 C104.909597,64.9543459 104.909597,64.8028119 104.872933,64.6581268 C104.825674,64.5157074 104.702636,64.4116822 104.554245,64.3886853 C104.422634,64.3612847 104.286265,64.4046398 104.194699,64.5029938 Z" id="形状" fill="url(#linearGradient-33)" fill-rule="nonzero"></path>
                <polygon id="路径" fill="url(#linearGradient-34)" fill-rule="nonzero" points="106.621633 61.9882068 105.306022 58.7875688 104.235557 59.2203081"></polygon>
                <polygon id="路径" fill="url(#linearGradient-35)" fill-rule="nonzero" points="100.615586 68.3894829 104.701332 69.2059722 101.432735 70.0224615"></polygon>
            </g>
        </g>
    </g>
</svg>