<?xml version="1.0" encoding="UTF-8"?>
<svg width="300px" height="244px" viewBox="0 0 300 244" version="1.1" xmlns="http://www.w3.org/2000/svg" xmlns:xlink="http://www.w3.org/1999/xlink">
    <title>资源 6</title>
    <defs>
        <linearGradient x1="-0.00821089158%" y1="49.9223602%" x2="99.9958934%" y2="49.9223602%" id="linearGradient-1">
            <stop stop-color="#F9E7A8" offset="0%"></stop>
            <stop stop-color="#F5A623" offset="100%"></stop>
        </linearGradient>
        <linearGradient x1="31.1878329%" y1="59.1342978%" x2="66.5528299%" y2="36.890324%" id="linearGradient-2">
            <stop stop-color="#C6DFFE" offset="0%"></stop>
            <stop stop-color="#72B1FE" offset="100%"></stop>
        </linearGradient>
        <linearGradient x1="-0.00816792338%" y1="49.9928234%" x2="99.9822704%" y2="49.9928234%" id="linearGradient-3">
            <stop stop-color="#C6DFFE" offset="0%"></stop>
            <stop stop-color="#72B1FE" offset="100%"></stop>
        </linearGradient>
        <linearGradient x1="-0.0226459219%" y1="50.0002851%" x2="100.143552%" y2="50.0002851%" id="linearGradient-4">
            <stop stop-color="#C6DFFE" offset="0%"></stop>
            <stop stop-color="#72B1FE" offset="100%"></stop>
        </linearGradient>
        <linearGradient x1="-1091.44568%" y1="13.4023393%" x2="-986.289716%" y2="13.4023393%" id="linearGradient-5">
            <stop stop-color="#C6DFFE" offset="0%"></stop>
            <stop stop-color="#72B1FE" offset="100%"></stop>
        </linearGradient>
        <linearGradient x1="-0.0548265901%" y1="50.0076576%" x2="99.9765458%" y2="50.0076576%" id="linearGradient-6">
            <stop stop-color="#C6DFFE" offset="0%"></stop>
            <stop stop-color="#72B1FE" offset="100%"></stop>
        </linearGradient>
        <linearGradient x1="0.0781361852%" y1="50.2588997%" x2="100.014317%" y2="50.2588997%" id="linearGradient-7">
            <stop stop-color="#C6DFFE" offset="0%"></stop>
            <stop stop-color="#72B1FE" offset="100%"></stop>
        </linearGradient>
        <linearGradient x1="0.0103263685%" y1="49.9638039%" x2="99.8372433%" y2="49.9638039%" id="linearGradient-8">
            <stop stop-color="#C6DFFE" offset="0%"></stop>
            <stop stop-color="#72B1FE" offset="100%"></stop>
        </linearGradient>
        <linearGradient x1="0%" y1="49.8768386%" x2="99.9865481%" y2="49.8768386%" id="linearGradient-9">
            <stop stop-color="#C6DFFE" offset="0%"></stop>
            <stop stop-color="#72B1FE" offset="100%"></stop>
        </linearGradient>
        <linearGradient x1="0.00374851787%" y1="50.0000273%" x2="99.9963438%" y2="50.0000273%" id="linearGradient-10">
            <stop stop-color="#C6DFFE" offset="0%"></stop>
            <stop stop-color="#72B1FE" offset="100%"></stop>
        </linearGradient>
        <linearGradient x1="6.46682808e-13%" y1="50%" x2="100%" y2="50%" id="linearGradient-11">
            <stop stop-color="#C6DFFE" offset="0%"></stop>
            <stop stop-color="#72B1FE" offset="100%"></stop>
        </linearGradient>
        <linearGradient x1="0.0108485001%" y1="49.9609761%" x2="100.008471%" y2="49.9609761%" id="linearGradient-12">
            <stop stop-color="#C6DFFE" offset="0%"></stop>
            <stop stop-color="#72B1FE" offset="100%"></stop>
        </linearGradient>
        <linearGradient x1="0%" y1="50%" x2="100%" y2="50%" id="linearGradient-13">
            <stop stop-color="#F9E7A8" offset="0%"></stop>
            <stop stop-color="#F5A623" offset="100%"></stop>
        </linearGradient>
        <linearGradient x1="1.28314715e-13%" y1="49.8898801%" x2="100%" y2="49.8898801%" id="linearGradient-14">
            <stop stop-color="#F3835D" offset="0%"></stop>
            <stop stop-color="#FFC644" offset="100%"></stop>
        </linearGradient>
        <linearGradient x1="0.0330961443%" y1="49.9740888%" x2="100%" y2="49.9740888%" id="linearGradient-15">
            <stop stop-color="#1A1114" offset="0%"></stop>
            <stop stop-color="#30231E" offset="25%"></stop>
            <stop stop-color="#4A372A" offset="50%"></stop>
            <stop stop-color="#5A372A" offset="59%"></stop>
            <stop stop-color="#60372A" offset="66%"></stop>
            <stop stop-color="#98372A" offset="98%"></stop>
        </linearGradient>
        <linearGradient x1="0.00403125607%" y1="50.0131722%" x2="100%" y2="50.0131722%" id="linearGradient-16">
            <stop stop-color="#F3835D" offset="0%"></stop>
            <stop stop-color="#FFC644" offset="100%"></stop>
        </linearGradient>
        <linearGradient x1="0.184077312%" y1="49.9949917%" x2="100%" y2="49.9949917%" id="linearGradient-17">
            <stop stop-color="#F3835D" offset="0%"></stop>
            <stop stop-color="#FFC644" offset="100%"></stop>
        </linearGradient>
        <linearGradient x1="-8.83649715e-15%" y1="50%" x2="100%" y2="50%" id="linearGradient-18">
            <stop stop-color="#C6DFFE" offset="0%"></stop>
            <stop stop-color="#72B1FE" offset="100%"></stop>
        </linearGradient>
        <linearGradient x1="0%" y1="49.8898193%" x2="100%" y2="49.8898193%" id="linearGradient-19">
            <stop stop-color="#C6DFFE" offset="0%"></stop>
            <stop stop-color="#72B1FE" offset="100%"></stop>
        </linearGradient>
        <linearGradient x1="84.8257955%" y1="166.726444%" x2="46.8089005%" y2="74.5866261%" id="linearGradient-20">
            <stop stop-color="#C6DFFE" offset="0%"></stop>
            <stop stop-color="#72B1FE" offset="100%"></stop>
        </linearGradient>
        <linearGradient x1="57.8209026%" y1="45.9426376%" x2="41.5335757%" y2="44.7323127%" id="linearGradient-21">
            <stop stop-color="#C6DFFE" offset="0%"></stop>
            <stop stop-color="#72B1FE" offset="100%"></stop>
        </linearGradient>
        <linearGradient x1="101.506291%" y1="221.931507%" x2="63.63375%" y2="130.141553%" id="linearGradient-22">
            <stop stop-color="#C6DFFE" offset="0%"></stop>
            <stop stop-color="#72B1FE" offset="100%"></stop>
        </linearGradient>
        <linearGradient x1="57.4706848%" y1="42.316059%" x2="41.0410097%" y2="41.1054105%" id="linearGradient-23">
            <stop stop-color="#C6DFFE" offset="0%"></stop>
            <stop stop-color="#72B1FE" offset="100%"></stop>
        </linearGradient>
        <linearGradient x1="99.4726027%" y1="13.3264317%" x2="-0.869863014%" y2="10.3210181%" id="linearGradient-24">
            <stop stop-color="#C6DFFE" offset="0%"></stop>
            <stop stop-color="#72B1FE" offset="100%"></stop>
        </linearGradient>
        <linearGradient x1="57.851064%" y1="38.283776%" x2="41.2972211%" y2="37.0641693%" id="linearGradient-25">
            <stop stop-color="#C6DFFE" offset="0%"></stop>
            <stop stop-color="#72B1FE" offset="100%"></stop>
        </linearGradient>
    </defs>
    <g id="页面" stroke="none" stroke-width="1" fill="none" fill-rule="evenodd">
        <g id="缺省页" transform="translate(-442.000000, -475.000000)">
            <g id="资源-6" transform="translate(442.000000, 475.000000)">
                <path d="M151.728271,0 C124.687776,-0.0627149546 98.3587244,8.65401416 76.705799,24.837944 L85.0815787,24.837944 C86.9865603,24.837944 88.8135188,25.5940838 90.1605442,26.9400213 C91.5075696,28.2859588 92.2643205,30.1114418 92.2643205,32.0148849 L92.2643205,32.0148849 L92.2643205,32.5700976 C92.2643205,36.5338126 89.0484975,39.7470385 85.0815787,39.7470385 L60.125841,39.7470385 C55.3841489,44.8479277 51.0866993,50.3437836 47.280255,56.1748031 L35.4234195,56.1748031 C31.1528089,56.179309 27.6931853,59.6397927 27.6931877,63.9069567 L27.6931877,64.339696 C27.6904251,67.7825811 29.9708457,70.8106924 33.2824885,71.7615837 L44.1996023,71.7615837 C49.0807909,71.766085 53.0366521,75.7187513 53.0411571,80.5959978 L53.0411571,80.5959978 L53.0411571,83.3557316 C53.0411571,88.2348438 49.0826582,92.1901458 44.1996023,92.1901458 L6.68428077,92.1901458 C2.75547832,93.1778206 0,96.7071477 0,100.755118 L0,101.245012 C0,106.124124 3.9584989,110.079426 8.84155476,110.079426 L28.2733637,110.079426 C27.8920273,114.009461 27.6986354,117.983043 27.6931877,122.00017 C27.6931877,189.376866 83.2593359,244 151.728271,244 C206.526299,244 253.054776,209.054258 269.438618,160.587454 L274.088198,160.587454 C275.716514,160.575986 277.110319,159.417602 277.418199,157.819907 C277.726078,156.222213 276.862413,154.629511 275.354779,154.014715 L269.634734,154.014715 C265.671005,154.014718 262.456502,150.806465 262.451992,146.845939 L262.451992,146.845939 L262.451992,146.290726 C262.451992,142.327011 265.667816,139.113785 269.634734,139.113785 L274.562144,139.113785 L274.562144,139.023972 L286.819383,139.023972 C289.955911,139.023972 292.49857,136.483366 292.49857,133.349371 C292.49857,130.215376 289.955911,127.67477 286.819383,127.67477 L275.63261,127.67477 C275.72522,125.796845 275.768801,123.891703 275.763354,121.959345 C275.780531,104.534388 271.996469,87.3150719 264.674638,71.5003071 L284.531365,71.5003071 C293.072588,71.4958023 299.995492,64.5784898 300,56.0441648 L300,55.1786861 C300,46.9877608 293.606003,40.2186765 285.422058,39.7470385 L215.465911,39.7470385 C212.41513,39.7470385 209.941982,37.2758886 209.941982,34.2275709 C209.941982,31.1792531 212.41513,28.7081032 215.465911,28.7081032 L231.661809,28.7081032 L231.253235,28.3733426 L239.310326,28.3733426 C242.094446,28.3733435 244.764416,27.2676909 246.73232,25.2998452 C248.700223,23.3319996 249.804691,20.6633257 249.802522,17.8814552 L249.802522,17.3017478 C249.804691,14.5198773 248.700223,11.8512034 246.73232,9.8833578 C244.764416,7.91551217 242.094446,6.80985955 239.310326,6.8098604 L192.691962,6.8098604 C179.509658,2.2865046 165.666232,-0.0147307424 151.728271,0 Z" id="背景" fill="#EDF0F4" opacity="0.35"></path>
                <path d="M148.721161,190.242345 C176.798409,190.242345 202.081007,192.528515 219.755945,196.186387 C237.038651,196.300696 250.962874,201.477238 250.962874,207.837689 C250.962874,212.883593 242.219377,217.178327 229.986653,218.80314 C227.061259,219.668619 223.776319,220.476943 220.180862,221.252608 C220.271984,221.734485 220.318485,222.223724 220.319778,222.714124 C220.319778,233.818379 196.148503,242.824255 166.338899,242.824255 C139.520061,242.824255 117.309945,235.533006 113.06894,225.980081 C77.285975,223.269337 51.9788585,216.58229 51.9788585,208.768487 C51.9625201,198.497052 95.2796012,190.242345 148.721161,190.242345 Z" id="形状结合" fill="url(#linearGradient-1)" opacity="0.27"></path>
                <path d="M76.1991665,214.590056 C81.1510909,212.254896 89.7311579,204.792184 84.2317435,191.548728 C79.0428459,178.133809 70.4627789,185.572026 67.7661864,176.647798 C65.0695939,167.72357 65.4291395,165.282267 58.1728543,161.902002 C50.9165691,158.521736 54.9696293,155.133305 49.7071882,151.165167 C44.4447471,147.197029 41.5356958,146.690806 37.8421812,148.438093 C34.1486667,150.18538 40.4652303,160.415991 37.025032,164.310645 C33.5848337,168.205299 33.3723749,169.421868 39.2231635,175.36591 C45.073952,181.309952 47.3374554,181.358941 45.3762972,186.79676 C43.4151391,192.234579 45.3762972,193.981866 49.0371258,193.761414 C52.6979544,193.540962 58.3689701,193.524632 56.2035246,200.954684 C54.0380792,208.384737 54.8960859,211.013833 62.0297987,213.316332 C69.1635116,215.618832 69.3841419,217.774364 76.223681,214.573726 L76.1991665,214.590056 Z" id="路径" fill="url(#linearGradient-2)" fill-rule="nonzero"></path>
                <path d="M79.0019884,212.516173 C78.9196499,212.555258 78.8251321,212.560007 78.7392849,212.529372 C78.6534377,212.498737 78.5833148,212.435235 78.5443848,212.352875 L47.8032305,167.160193 C47.6561436,166.849927 47.6561436,166.849927 47.9666603,166.711124 C48.277177,166.57232 48.277177,166.564155 48.4242639,166.874421 L79.1654182,212.058939 C79.3125051,212.369205 79.3125051,212.369205 79.0019884,212.516173 Z" id="路径" fill="url(#linearGradient-3)" fill-rule="nonzero"></path>
                <path d="M58.9082886,182.706149 C58.5977719,182.844952 58.450685,182.542851 58.3035982,182.232585 L59.1942909,170.483304 C59.1942909,170.483304 59.3577207,170.034235 59.5048076,170.344501 C59.5048076,170.344501 59.9542396,170.507799 59.6518944,170.646602 L58.9082886,182.706149 L58.9082886,182.706149 Z M63.9255849,190.152531 L54.5937406,190.397478 C54.5125948,190.436245 54.4192567,190.440782 54.3347278,190.410069 C54.2501989,190.379356 54.1815792,190.315973 54.1443086,190.23418 C54.1028463,190.15227 54.0968642,190.056942 54.1277619,189.970498 C54.1586595,189.884054 54.2237261,189.81408 54.3077384,189.776946 L63.29638,189.678967 C63.9174135,189.393196 64.0563288,189.678967 63.892899,190.152531 L63.9255849,190.152531 Z M71.0266118,200.407637 L71.0266118,200.407637 C70.7160951,200.554605 70.5771797,200.244339 70.4300929,199.934073 L71.7865606,187.588755 C71.7865606,187.588755 71.9499905,187.131521 72.0970773,187.441787 C72.0970773,187.441787 72.5546809,187.605085 72.2441642,187.752053 L71.0266118,200.407637 Z M75.17773,206.768088 L62.3158009,206.768088 C62.0052842,206.906891 61.8581974,206.60479 62.1687141,206.457822 C62.0216272,206.147556 62.3321439,206.000588 62.4792308,206.310854 L75.0143001,206.449657 C75.3248168,206.302689 75.3248168,206.302689 75.161387,206.759923 L75.17773,206.768088 Z" id="形状" fill="url(#linearGradient-4)" fill-rule="nonzero"></path>
                <path d="M83.6188816,211.095481 C87.9497726,209.054258 90.2459619,209.111413 90.0825321,203.151041 C89.7475009,197.639738 93.931305,195.296414 91.259227,192.022292 C88.587149,188.74817 85.9477569,190.389313 86.6014763,182.134606 C87.2551957,173.8799 82.5892736,170.42615 79.8599951,169.446363 C77.1307166,168.466576 75.7742489,166.441682 73.3228012,161.959156 C70.8713535,157.47663 66.4832621,160.269023 66.1237164,162.702161 C65.7641707,165.135299 68.673222,171.316123 66.7447498,175.243437 C64.8162776,179.17075 68.5669926,182.322399 71.7293602,184.224819 C74.8917277,186.127239 72.971427,190.062717 71.2227276,192.773462 C69.5884292,195.786307 65.6987988,200.285163 68.6977365,202.644817 C71.6966742,205.004471 76.5260262,214.443088 83.6352246,211.095481 L83.6188816,211.095481 Z" id="路径" fill="url(#linearGradient-5)" fill-rule="nonzero"></path>
                <path d="M84.239915,210.801545 C84.1579387,210.842974 84.0625332,210.848951 83.9760198,210.818079 C83.8895064,210.787206 83.8194754,210.722192 83.7823114,210.638247 L75.7170485,176.680458 C75.6755862,176.598548 75.6696041,176.503219 75.7005018,176.416776 C75.7313994,176.330332 75.796466,176.260358 75.8804783,176.223224 C75.9628168,176.184139 76.0573346,176.17939 76.1431818,176.210025 C76.229029,176.24066 76.2991519,176.304161 76.3380819,176.386522 L84.239915,210.801545 C84.4033449,210.344311 84.5504317,210.654577 84.239915,210.801545 Z" id="路径" fill="url(#linearGradient-6)" fill-rule="nonzero"></path>
                <path d="M79.5413069,189.605483 L79.5413069,189.605483 C79.0837033,189.442185 79.0837033,189.442185 78.9366165,189.13192 L82.3931577,178.811495 L82.7036744,178.664527 L82.8507613,178.974793 L79.5821644,189.589154 L79.5413069,189.605483 Z M82.8752758,203.894046 L82.8752758,203.894046 L72.7262822,199.223727 L72.5873669,198.913461 L72.8897121,198.766493 L82.695503,203.58378 C83.0387056,203.436812 83.1857925,203.747078 82.8752758,203.894046 Z" id="形状" fill="url(#linearGradient-7)" fill-rule="nonzero"></path>
                <path d="M104.815733,217.643726 C105.971004,217.612313 107.044623,217.041222 107.715752,216.101118 C108.38688,215.161013 108.577785,213.960781 108.231417,212.859098 C107.553183,210.123859 106.523575,211.495561 106.180372,213.544949 C105.837169,215.594337 106.523575,212.516173 104.47253,211.838487 C102.421486,211.495561 104.47253,215.251412 103.786125,215.920933 C102.764688,216.255694 101.400049,212.499843 100.027238,214.206306 C98.6544276,215.912768 101.73508,217.627396 104.815733,217.627396 L104.815733,217.643726 Z" id="路径" fill="url(#linearGradient-8)" fill-rule="nonzero"></path>
                <path d="M244.131507,201.844658 C240.707651,201.844658 236.948765,197.762211 236.605562,195.010642 C236.605562,191.940643 240.364449,192.283568 240.364449,190.928196 C240.364449,189.572824 237.978373,189.564659 238.313404,188.535882 C238.648435,187.507106 240.707651,187.172345 240.364449,186.486494 C240.021246,185.800643 237.63517,186.82942 238.313404,185.122957 C238.999809,183.073569 240.364449,184.102345 239.343012,181.710032 C238.321575,179.317718 241.394057,181.710032 240.364449,179.660644 C239.343012,177.26833 238.313404,175.578197 240.364449,174.533091 C242.415493,173.487985 242.080462,181.367106 242.758696,180.681255 C243.788304,180.33833 245.152943,179.660644 245.496146,182.052957 C245.839348,184.445271 244.131507,185.122957 247.203988,185.465883 C249.941438,185.808808 246.182551,189.907584 248.233596,190.928196 C250.28464,191.948808 253.013919,194.684047 250.619672,197.46011 C248.568627,199.852424 247.203988,201.901812 244.131507,201.901812 L244.131507,201.844658 Z" id="路径" fill="url(#linearGradient-9)" fill-rule="nonzero"></path>
                <path d="M244.131507,201.84476 C244.221796,201.84476 244.308275,201.808297 244.371346,201.74374 C244.434417,201.679183 244.46874,201.591922 244.466538,201.501732 L242.415493,182.722479 C242.420076,182.63163 242.386533,182.542988 242.32294,182.477897 C242.259348,182.412806 242.171468,182.377164 242.080462,182.37944 C241.988763,182.37729 241.900146,182.412692 241.835285,182.4775 C241.770425,182.542308 241.734994,182.630854 241.737259,182.722479 L243.788304,201.501732 C243.786039,201.593357 243.82147,201.681903 243.88633,201.746711 C243.951191,201.811519 244.039808,201.846921 244.131507,201.84476 L244.131507,201.84476 Z" id="路径" fill="url(#linearGradient-10)" fill-rule="nonzero"></path>
                <path d="M243.788304,198.766493 L243.788304,198.766493 C244.131507,198.431733 244.131507,198.431733 244.131507,198.088807 L239.343012,194.324791 L238.999809,194.324791 L238.999809,194.659552 L243.788304,198.766493 Z M243.101899,191.940643 L243.101899,191.940643 L246.182551,187.498941 L246.182551,187.156015 L245.839348,187.156015 L242.758696,191.597717 L243.101899,191.940643 Z" id="形状" fill="url(#linearGradient-11)" fill-rule="nonzero"></path>
                <path d="M228.744586,201.501732 C228.744586,201.501732 230.109226,202.530509 233.533081,200.815881 C236.948765,198.766493 236.262359,197.060031 234.554517,197.745882 C232.846676,198.431733 229.774194,202.187583 229.087789,201.158807 C228.401384,200.13003 231.138834,198.088807 229.430992,196.039419 C227.72315,193.990031 228.744586,198.431733 228.058181,198.431733 C227.72315,198.431733 227.036744,196.039419 226.350339,197.060031 C225.663934,198.080642 227.379947,201.142477 227.72315,201.501732 C228.401384,201.844658 227.379947,201.844658 225.663934,201.158807 C223.956092,200.138195 223.612889,202.187583 225.328903,202.865269 C227.044916,203.542956 228.744586,201.501732 228.744586,201.501732 L228.744586,201.501732 Z" id="路径" fill="url(#linearGradient-12)" fill-rule="nonzero"></path>
                <ellipse id="椭圆形" fill="url(#linearGradient-13)" fill-rule="nonzero" opacity="0.41" cx="190.093427" cy="204.971812" rx="37.1802904" ry="5.48680805"></ellipse>
                <path d="M174.224389,201.934472 C174.583935,201.934472 174.910795,202.497849 174.780051,203.820562 C174.649307,205.143275 174.837251,205.878115 173.7341,205.910774 C172.778035,205.910774 166.477814,205.51886 164.745458,205.420881 C164.148939,205.420881 164.328712,204.792184 164.361398,204.604392 C164.508485,203.96753 165.03146,203.012237 166.943589,202.971413 C168.357258,202.79995 169.787269,201.550722 170.408302,201.583381 C171.029336,201.616041 171.266309,202.220243 172.263231,202.220243 C173.260153,202.220243 173.603356,201.934472 174.224389,201.934472 Z" id="路径" fill="#000000" fill-rule="nonzero"></path>
                <path d="M217.508784,201.673195 C217.86833,201.673195 218.227876,202.187583 218.187018,203.518461 C218.146161,204.849338 218.383134,205.559684 217.279983,205.673993 C216.332089,205.763806 210.015526,205.763806 208.291341,205.780136 C207.694822,205.780136 207.833737,205.184099 207.858252,205.037131 C207.95631,204.38394 208.422085,203.404152 210.3097,203.20003 C211.707025,202.938753 213.055321,201.567051 213.676354,201.567051 C214.297388,201.567051 214.575219,202.146759 215.572141,202.08144 C216.569063,202.016121 216.887751,201.673195 217.508784,201.673195 Z" id="路径" fill="#000000" fill-rule="nonzero"></path>
                <path d="M173.292839,137.170541 C172.826344,135.646351 172.280841,134.14743 171.658541,132.67985 L175.008852,130.099744 C175.688402,131.684134 176.460578,133.227239 177.321385,134.721073 C178.131057,135.230731 179.008593,135.623792 179.928091,135.888653 C179.012884,140.67328 176.553265,141.718386 172.622777,139.15461 C172.909861,138.516477 173.134267,137.852005 173.292839,137.170541 L173.292839,137.170541 Z" id="路径" fill="#E2AD96" fill-rule="nonzero"></path>
                <path d="M166.698445,127.070568 C166.788331,126.000967 167.973198,124.343494 170.825048,123.388202 C176.504236,121.485782 175.956746,129.193441 175.956746,129.193441 C175.956746,129.193441 176.520579,131.5286 176.496064,131.838866 C176.373492,133.357536 174.861766,135.153812 172.181516,135.153812 C169.501267,135.153812 166.575872,128.703547 166.698445,127.070568 Z" id="路径" fill="#EFBA9E" fill-rule="nonzero"></path>
                <path d="M176.169204,127.193042 C175.809659,127.748254 174.845423,128.82602 174.845423,128.82602 C174.845423,128.82602 174.183532,127.070568 173.848501,127.193042 C173.513469,127.315515 170.931278,125.968308 170.195843,126.196925 C169.689211,126.360223 168.561545,128.523919 168.561545,128.523919 C168.561545,128.523919 167.597309,130.752935 166.927246,130.156898 C166.257184,129.560861 165.292948,125.511074 167.589137,123.527005 C169.885327,121.542936 173.987416,122.343095 175.27034,123.10243 C176.553265,123.861765 176.169204,127.193042 176.169204,127.193042 Z" id="路径" fill="#212938" fill-rule="nonzero"></path>
                <path d="M174.918966,127.846233 C175.090567,127.446153 176.340806,126.515356 176.814752,127.372669 C177.288699,128.229983 177.321385,130.001765 176.814752,130.385515 C176.394565,130.564782 175.919329,130.564782 175.499142,130.385515 C175.409256,130.336526 174.747365,128.238148 174.918966,127.846233 Z" id="路径" fill="#F79E86" fill-rule="nonzero"></path>
                <path d="M174.469534,144.012721 C174.469534,144.012721 162.612698,147.784902 161.648462,146.837774 C160.684226,145.890647 156.369678,136.590834 156.369678,136.590834 L158.772097,133.324876 C158.772097,133.324876 163.838422,140.485487 164.786315,141.138679 C165.374663,141.555088 172.778035,137.913546 172.778035,137.913546 L174.469534,144.012721 Z" id="路径" fill="url(#linearGradient-14)" fill-rule="nonzero"></path>
                <path d="M218.832566,201.852823 L196.924795,176.541655 L197.856345,157.386816 L197.856345,156.570327 L184.781957,155.753837 C184.781957,155.753837 170.816877,168.001177 170.375616,169.446363 C169.934356,170.891549 169.452238,201.869152 169.452238,201.869152 L175.172282,203.020402 L178.49808,174.035032 L187.470378,164.931177 C187.470378,164.931177 186.882031,175.774155 187.470378,178.03583 C187.797238,179.325883 212.058399,202.383541 212.058399,202.383541 L218.832566,201.852823 Z" id="路径" fill="url(#linearGradient-15)" fill-rule="nonzero"></path>
                <path d="M198.624465,157.378651 C193.223109,146.968412 190.297715,140.436498 183.351946,136.688812 L178.326478,134.96602 C177.615559,140.199716 174.109988,140.795753 173.219296,136.680647 C173.219296,136.680647 171.503282,138.819849 171.895514,140.25687 C172.287745,141.693892 178.77591,154.953678 179.887233,161.24881 C187.405006,161.893837 193.762427,161.044688 198.624465,157.378651 Z" id="路径" fill="url(#linearGradient-16)" fill-rule="nonzero"></path>
                <path d="M172.622777,114.619107 C171.978607,113.712349 171.430875,112.740911 170.988478,111.72057 C171.118182,110.827232 171.295483,109.941444 171.519625,109.066979 C171.740105,108.10303 172.012891,107.151776 172.336774,106.217432 C172.467518,106.176607 172.908779,106.217432 172.91695,106.495038 C172.925122,106.772645 172.47569,108.707724 172.47569,108.707724 C172.47569,108.707724 173.415411,106.739985 173.456269,106.544028 C173.497126,106.34807 173.513469,104.274187 173.709585,104.323177 C173.978473,104.418137 174.196894,104.618687 174.314276,104.878389 C174.360432,105.446275 174.360432,106.016966 174.314276,106.584852 C174.314276,106.584852 173.750443,109.075144 173.693242,109.164958 C173.328056,109.840299 173.000693,110.535385 172.712663,111.247006 L173.815815,113.043282 L172.622777,114.619107 Z" id="路径" fill="#EFBA9E" fill-rule="nonzero"></path>
                <path d="M158.224607,136.680647 C157.580437,135.773889 157.032706,134.802452 156.590309,133.78211 C156.716977,132.887628 156.897071,132.001516 157.129627,131.12852 C157.341361,130.162343 157.614293,129.210579 157.946776,128.278973 C158.069349,128.229983 158.518781,128.278973 158.518781,128.548414 C158.518781,128.817855 158.07752,130.7611 158.07752,130.7611 C158.07752,130.7611 159.017242,128.801526 159.058099,128.605568 C159.098957,128.409611 159.1153,126.335728 159.311416,126.376552 C159.580848,126.47505 159.798951,126.678253 159.916106,126.93993 C159.966364,127.507643 159.966364,128.07868 159.916106,128.646393 C159.916106,128.646393 159.352273,131.095861 159.303244,131.218334 C158.933656,131.895468 158.603523,132.593367 158.314494,133.308547 L159.417645,135.096658 L158.224607,136.680647 Z" id="路径" fill="#EFBA9E" fill-rule="nonzero"></path>
                <path d="M188.696102,140.67328 C188.696102,140.67328 188.696102,126.515356 187.878953,125.364106 C187.061804,124.212856 173.456269,110.455011 173.456269,110.455011 L170.939449,114.137378 C170.939449,114.137378 181.382617,126.711313 181.562389,127.421659 C181.742162,128.132004 179.87089,135.219132 179.87089,135.219132 C179.879062,138.231977 185.558249,141.416285 188.696102,140.67328 Z" id="路径" fill="url(#linearGradient-17)" fill-rule="nonzero"></path>
                <path d="M101.326506,163.494156 C93.7097039,163.493102 86.1189628,162.605308 78.7078147,160.84873 L82.0908125,147.874716 C82.3359573,147.93187 106.785063,154.088199 123.683709,145.6457 C133.734644,140.624291 145.174734,123.494345 154.367663,109.720171 C161.52589,98.9996665 167.71171,89.7406779 173.415411,85.3316357 C186.947403,74.8724079 208.373056,73.3945622 209.263749,73.337408 L210.121755,86.7196675 C209.950154,86.7196675 191.874813,88.0178855 181.627761,95.9378316 C177.656416,99.0159963 171.486939,108.242325 165.529921,117.166553 C154.906981,133.03094 142.919402,151.018199 129.681584,157.631763 C120.611228,162.163278 110.315147,163.494156 101.326506,163.494156 Z" id="路径" fill="url(#linearGradient-18)" fill-rule="nonzero"></path>
                <path d="M230.542315,77.0850938 L201.541688,62.3882866 C208.193283,74.7907589 210.162613,87.1442419 206.885844,99.4405707 L230.542315,77.0850938 Z" id="路径" fill="url(#linearGradient-19)" fill-rule="nonzero"></path>
                <g id="编组" opacity="0.47" transform="translate(246.170436, 95.540311)" fill-rule="nonzero">
                    <ellipse id="椭圆形" fill="url(#linearGradient-20)" transform="translate(3.553501, 23.236816) rotate(-65.830000) translate(-3.553501, -23.236816) " cx="3.55350115" cy="23.2368156" rx="2.68661389" ry="2.68805712"></ellipse>
                    <path d="M0.608634132,3.38587113 C0.608634132,4.4554721 1.47481232,10.7342748 2.24293261,16.0496201 C2.35119907,16.755424 2.949029,17.2829377 3.66337054,17.3029872 C4.37771207,17.3230368 5.00423549,16.8298873 5.1519839,16.131269 C6.26330686,10.8485833 7.52988818,4.65959442 7.55440266,3.58999345 C7.61081504,1.66450277 6.09436606,0.0578898312 4.16731907,0.00152300805 C2.24027207,-0.0548438151 0.632360545,1.46038045 0.575948162,3.38587113 L0.608634132,3.38587113 Z" id="路径" fill="url(#linearGradient-21)"></path>
                </g>
                <g id="编组" opacity="0.47" transform="translate(88.926783, 68.045636)" fill-rule="nonzero">
                    <ellipse id="椭圆形" fill="url(#linearGradient-22)" transform="translate(2.365400, 15.437200) rotate(-65.830000) translate(-2.365400, -15.437200) " cx="2.36540046" cy="15.4372001" rx="1.78835393" ry="1.78931462"></ellipse>
                    <path d="M0.42848591,2.25443135 C0.42848591,2.96477704 1.00049038,7.15336711 1.53980887,10.6642711 C1.61320618,11.1316189 2.01031458,11.4798253 2.48361111,11.4918486 C2.95690764,11.5038718 3.3712113,11.1762779 3.46828108,10.7132604 C4.20371539,7.21052136 5.04537911,3.10358022 5.10257956,2.38506964 C5.1259347,1.55663162 4.70519209,0.778673559 3.9988414,0.344244735 C3.2924907,-0.0901840894 2.4078434,-0.115083606 1.67813756,0.278925591 C0.94843172,0.672934789 0.484527024,1.42599333 0.461171879,2.25443135 L0.42848591,2.25443135 Z" id="路径" fill="url(#linearGradient-23)"></path>
                </g>
                <g id="编组" opacity="0.47" transform="translate(169.329665, 19.523600)" fill-rule="nonzero">
                    <ellipse id="椭圆形" fill="url(#linearGradient-24)" cx="1.2910958" cy="10.2541038" rx="1.19303789" ry="1.19207437"></ellipse>
                    <path d="M0,1.44418432 C0,1.91774811 0.384060142,4.71014149 0.735434315,7.06163066 C0.786071446,7.37862151 1.05971936,7.61186671 1.38098221,7.61186671 C1.70224507,7.61186671 1.97589298,7.37862151 2.02653011,7.06163066 C2.52499115,4.71830639 3.08065263,1.96673747 3.09699561,1.49317368 C3.06634704,0.676999717 2.407611,0.0243589512 1.59054663,0.000663833956 C0.773482256,-0.0230312833 0.0779722251,0.590335932 0,1.40335986 L0,1.44418432 Z" id="路径" fill="url(#linearGradient-25)"></path>
                </g>
            </g>
        </g>
    </g>
</svg>