<?xml version="1.0" encoding="UTF-8"?>
<svg width="300px" height="244px" viewBox="0 0 300 244" version="1.1" xmlns="http://www.w3.org/2000/svg" xmlns:xlink="http://www.w3.org/1999/xlink">
    <title>资源 4</title>
    <defs>
        <linearGradient x1="-0.00821089158%" y1="49.9223602%" x2="99.9958934%" y2="49.9223602%" id="linearGradient-1">
            <stop stop-color="#F9E7A8" offset="0%"></stop>
            <stop stop-color="#F5A623" offset="100%"></stop>
        </linearGradient>
        <linearGradient x1="0%" y1="49.8768386%" x2="99.9865481%" y2="49.8768386%" id="linearGradient-2">
            <stop stop-color="#C6DFFE" offset="0%"></stop>
            <stop stop-color="#72B1FE" offset="100%"></stop>
        </linearGradient>
        <linearGradient x1="0.00374851787%" y1="50.0000273%" x2="99.9963438%" y2="50.0000273%" id="linearGradient-3">
            <stop stop-color="#C6DFFE" offset="0%"></stop>
            <stop stop-color="#72B1FE" offset="100%"></stop>
        </linearGradient>
        <linearGradient x1="6.46682808e-13%" y1="50%" x2="100%" y2="50%" id="linearGradient-4">
            <stop stop-color="#C6DFFE" offset="0%"></stop>
            <stop stop-color="#72B1FE" offset="100%"></stop>
        </linearGradient>
        <linearGradient x1="0.0108485001%" y1="49.9609761%" x2="100.008471%" y2="49.9609761%" id="linearGradient-5">
            <stop stop-color="#C6DFFE" offset="0%"></stop>
            <stop stop-color="#72B1FE" offset="100%"></stop>
        </linearGradient>
        <linearGradient x1="0%" y1="50%" x2="100%" y2="50%" id="linearGradient-6">
            <stop stop-color="#F9E7A8" offset="0%"></stop>
            <stop stop-color="#F5A623" offset="100%"></stop>
        </linearGradient>
        <linearGradient x1="31.2013996%" y1="59.1219774%" x2="66.5663966%" y2="36.8780036%" id="linearGradient-7">
            <stop stop-color="#C6DFFE" offset="0%"></stop>
            <stop stop-color="#72B1FE" offset="100%"></stop>
        </linearGradient>
        <linearGradient x1="-0.00816792338%" y1="49.9928234%" x2="99.9822704%" y2="49.9928234%" id="linearGradient-8">
            <stop stop-color="#C6DFFE" offset="0%"></stop>
            <stop stop-color="#72B1FE" offset="100%"></stop>
        </linearGradient>
        <linearGradient x1="-0.0226459219%" y1="50.0002851%" x2="100.143552%" y2="50.0002851%" id="linearGradient-9">
            <stop stop-color="#C6DFFE" offset="0%"></stop>
            <stop stop-color="#72B1FE" offset="100%"></stop>
        </linearGradient>
        <linearGradient x1="34.7499619%" y1="61.3326147%" x2="58.4366742%" y2="38.9962163%" id="linearGradient-10">
            <stop stop-color="#C6DFFE" offset="0%"></stop>
            <stop stop-color="#72B1FE" offset="100%"></stop>
        </linearGradient>
        <linearGradient x1="-0.0548265901%" y1="50.0076576%" x2="99.9765458%" y2="50.0076576%" id="linearGradient-11">
            <stop stop-color="#C6DFFE" offset="0%"></stop>
            <stop stop-color="#72B1FE" offset="100%"></stop>
        </linearGradient>
        <linearGradient x1="0.0781361852%" y1="50.2588997%" x2="100.014317%" y2="50.2588997%" id="linearGradient-12">
            <stop stop-color="#C6DFFE" offset="0%"></stop>
            <stop stop-color="#72B1FE" offset="100%"></stop>
        </linearGradient>
        <linearGradient x1="0.0103263685%" y1="49.9638039%" x2="99.8372433%" y2="49.9638039%" id="linearGradient-13">
            <stop stop-color="#C6DFFE" offset="0%"></stop>
            <stop stop-color="#72B1FE" offset="100%"></stop>
        </linearGradient>
        <linearGradient x1="50%" y1="-0.862769035%" x2="50%" y2="101.242662%" id="linearGradient-14">
            <stop stop-color="#C6DFFE" offset="0%"></stop>
            <stop stop-color="#72B1FE" offset="100%"></stop>
        </linearGradient>
        <linearGradient x1="49.9720915%" y1="0.108059654%" x2="49.9720915%" y2="99.8880637%" id="linearGradient-15">
            <stop stop-color="#C6DFFE" offset="0%"></stop>
            <stop stop-color="#72B1FE" offset="100%"></stop>
        </linearGradient>
        <linearGradient x1="50.0258398%" y1="-0.0466010628%" x2="50.0258398%" y2="100%" id="linearGradient-16">
            <stop stop-color="#BFD4FA" offset="0%"></stop>
            <stop stop-color="#5792F0" offset="100%"></stop>
        </linearGradient>
        <linearGradient x1="99.9664997%" y1="48.39385%" x2="0.0349618253%" y2="51.6046909%" id="linearGradient-17">
            <stop stop-color="#C6DFFE" offset="0%"></stop>
            <stop stop-color="#72B1FE" offset="100%"></stop>
        </linearGradient>
        <linearGradient x1="15.5264096%" y1="74.1458967%" x2="-22.4327966%" y2="-17.8541033%" id="linearGradient-18">
            <stop stop-color="#C6DFFE" offset="0%"></stop>
            <stop stop-color="#72B1FE" offset="100%"></stop>
        </linearGradient>
        <linearGradient x1="59.0310861%" y1="52.8717179%" x2="42.9721256%" y2="51.6711841%" id="linearGradient-19">
            <stop stop-color="#C6DFFE" offset="0%"></stop>
            <stop stop-color="#72B1FE" offset="100%"></stop>
        </linearGradient>
        <linearGradient x1="10.6576648%" y1="83.8192308%" x2="-27.3745399%" y2="-8.35769231%" id="linearGradient-20">
            <stop stop-color="#C6DFFE" offset="0%"></stop>
            <stop stop-color="#72B1FE" offset="100%"></stop>
        </linearGradient>
        <linearGradient x1="59.2669716%" y1="51.9878179%" x2="42.9558713%" y2="50.7773082%" id="linearGradient-21">
            <stop stop-color="#C6DFFE" offset="0%"></stop>
            <stop stop-color="#72B1FE" offset="100%"></stop>
        </linearGradient>
        <linearGradient x1="121.582803%" y1="60.1491918%" x2="21.9012739%" y2="57.1635743%" id="linearGradient-22">
            <stop stop-color="#C6DFFE" offset="0%"></stop>
            <stop stop-color="#72B1FE" offset="100%"></stop>
        </linearGradient>
        <linearGradient x1="60.6288914%" y1="53.2341785%" x2="44.1336915%" y2="52.0213276%" id="linearGradient-23">
            <stop stop-color="#C6DFFE" offset="0%"></stop>
            <stop stop-color="#72B1FE" offset="100%"></stop>
        </linearGradient>
        <linearGradient x1="35.9040429%" y1="101.151823%" x2="62.3046715%" y2="13.3638385%" id="linearGradient-24">
            <stop stop-color="#F3835D" offset="0%"></stop>
            <stop stop-color="#FFC644" offset="100%"></stop>
        </linearGradient>
        <linearGradient x1="-0.00620419789%" y1="49.9973296%" x2="100.004304%" y2="49.9973296%" id="linearGradient-25">
            <stop stop-color="#F3835D" offset="0%"></stop>
            <stop stop-color="#FFC644" offset="100%"></stop>
        </linearGradient>
        <linearGradient x1="0%" y1="50.006618%" x2="99.921262%" y2="50.006618%" id="linearGradient-26">
            <stop stop-color="#1A1114" offset="0%"></stop>
            <stop stop-color="#30231E" offset="25%"></stop>
            <stop stop-color="#4A372A" offset="50%"></stop>
            <stop stop-color="#5A372A" offset="59%"></stop>
            <stop stop-color="#60372A" offset="66%"></stop>
            <stop stop-color="#98372A" offset="98%"></stop>
        </linearGradient>
        <linearGradient x1="0%" y1="49.9703065%" x2="100.021153%" y2="49.9703065%" id="linearGradient-27">
            <stop stop-color="#1A1114" offset="0%"></stop>
            <stop stop-color="#30231E" offset="25%"></stop>
            <stop stop-color="#4A372A" offset="50%"></stop>
            <stop stop-color="#5A372A" offset="59%"></stop>
            <stop stop-color="#60372A" offset="66%"></stop>
            <stop stop-color="#98372A" offset="98%"></stop>
        </linearGradient>
        <linearGradient x1="0%" y1="49.9886395%" x2="100.008327%" y2="49.9886395%" id="linearGradient-28">
            <stop stop-color="#1A1114" offset="0%"></stop>
            <stop stop-color="#30231E" offset="25%"></stop>
            <stop stop-color="#4A372A" offset="50%"></stop>
            <stop stop-color="#5A372A" offset="59%"></stop>
            <stop stop-color="#60372A" offset="66%"></stop>
            <stop stop-color="#98372A" offset="98%"></stop>
        </linearGradient>
        <linearGradient x1="100.023729%" y1="50.0604842%" x2="0.00675061925%" y2="50.0604842%" id="linearGradient-29">
            <stop stop-color="#F3835D" offset="0%"></stop>
            <stop stop-color="#FFC644" offset="100%"></stop>
        </linearGradient>
    </defs>
    <g id="页面" stroke="none" stroke-width="1" fill="none" fill-rule="evenodd">
        <g id="缺省页" transform="translate(-1251.000000, -71.000000)">
            <g id="资源-4" transform="translate(1251.000000, 71.000000)">
                <path d="M151.728271,0 C124.687776,-0.0627149546 98.3587244,8.65401416 76.705799,24.837944 L85.0815787,24.837944 C86.9865603,24.837944 88.8135188,25.5940838 90.1605442,26.9400213 C91.5075696,28.2859588 92.2643205,30.1114418 92.2643205,32.0148849 L92.2643205,32.0148849 L92.2643205,32.5700976 C92.2643205,36.5338126 89.0484975,39.7470385 85.0815787,39.7470385 L60.125841,39.7470385 C55.3841489,44.8479277 51.0866993,50.3437836 47.280255,56.1748031 L35.4234195,56.1748031 C31.1528089,56.179309 27.6931853,59.6397927 27.6931877,63.9069567 L27.6931877,64.339696 C27.6904251,67.7825811 29.9708457,70.8106924 33.2824885,71.7615837 L44.1996023,71.7615837 C49.0807909,71.766085 53.0366521,75.7187513 53.0411571,80.5959978 L53.0411571,80.5959978 L53.0411571,83.3557316 C53.0411571,88.2348438 49.0826582,92.1901458 44.1996023,92.1901458 L6.68428077,92.1901458 C2.75547832,93.1778206 0,96.7071477 0,100.755118 L0,101.245012 C0,106.124124 3.9584989,110.079426 8.84155476,110.079426 L28.2733637,110.079426 C27.8920273,114.009461 27.6986354,117.983043 27.6931877,122.00017 C27.6931877,189.376866 83.2593359,244 151.728271,244 C206.526299,244 253.054776,209.054258 269.438618,160.587454 L274.088198,160.587454 C275.716514,160.575986 277.110319,159.417602 277.418199,157.819907 C277.726078,156.222213 276.862413,154.629511 275.354779,154.014715 L269.634734,154.014715 C265.671005,154.014718 262.456502,150.806465 262.451992,146.845939 L262.451992,146.845939 L262.451992,146.290726 C262.451992,142.327011 265.667816,139.113785 269.634734,139.113785 L274.562144,139.113785 L274.562144,139.023972 L286.819383,139.023972 C289.955911,139.023972 292.49857,136.483366 292.49857,133.349371 C292.49857,130.215376 289.955911,127.67477 286.819383,127.67477 L275.63261,127.67477 C275.72522,125.796845 275.768801,123.891703 275.763354,121.959345 C275.780531,104.534388 271.996469,87.3150719 264.674638,71.5003071 L284.531365,71.5003071 C293.072588,71.4958023 299.995492,64.5784898 300,56.0441648 L300,55.1786861 C300,46.9877608 293.606003,40.2186765 285.422058,39.7470385 L215.465911,39.7470385 C212.41513,39.7470385 209.941982,37.2758886 209.941982,34.2275709 C209.941982,31.1792531 212.41513,28.7081032 215.465911,28.7081032 L231.661809,28.7081032 L231.253235,28.3733426 L239.310326,28.3733426 C242.094446,28.3733435 244.764416,27.2676909 246.73232,25.2998452 C248.700223,23.3319996 249.804691,20.6633257 249.802522,17.8814552 L249.802522,17.3017478 C249.804691,14.5198773 248.700223,11.8512034 246.73232,9.8833578 C244.764416,7.91551217 242.094446,6.80985955 239.310326,6.8098604 L192.691962,6.8098604 C179.509658,2.2865046 165.666232,-0.0147307424 151.728271,0 Z" id="背景" fill="#EDF0F4" opacity="0.35"></path>
                <path d="M148.721161,190.242345 C176.798409,190.242345 202.081007,192.528515 219.755945,196.186387 C237.038651,196.300696 250.962874,201.477238 250.962874,207.837689 C250.962874,212.883593 242.219377,217.178327 229.986653,218.80314 C227.061259,219.668619 223.776319,220.476943 220.180862,221.252608 C220.271984,221.734485 220.318485,222.223724 220.319778,222.714124 C220.319778,233.818379 196.148503,242.824255 166.338899,242.824255 C139.520061,242.824255 117.309945,235.533006 113.06894,225.980081 C77.285975,223.269337 51.9788585,216.58229 51.9788585,208.768487 C51.9625201,198.497052 95.2796012,190.242345 148.721161,190.242345 Z" id="形状结合" fill="url(#linearGradient-1)" opacity="0.27"></path>
                <path d="M244.131507,201.844658 C240.707651,201.844658 236.948765,197.762211 236.605562,195.010642 C236.605562,191.940643 240.364449,192.283568 240.364449,190.928196 C240.364449,189.572824 237.978373,189.564659 238.313404,188.535882 C238.648435,187.507106 240.707651,187.172345 240.364449,186.486494 C240.021246,185.800643 237.63517,186.82942 238.313404,185.122957 C238.999809,183.073569 240.364449,184.102345 239.343012,181.710032 C238.321575,179.317718 241.394057,181.710032 240.364449,179.660644 C239.343012,177.26833 238.313404,175.578197 240.364449,174.533091 C242.415493,173.487985 242.080462,181.367106 242.758696,180.681255 C243.788304,180.33833 245.152943,179.660644 245.496146,182.052957 C245.839348,184.445271 244.131507,185.122957 247.203988,185.465883 C249.941438,185.808808 246.182551,189.907584 248.233596,190.928196 C250.28464,191.948808 253.013919,194.684047 250.619672,197.46011 C248.568627,199.852424 247.203988,201.901812 244.131507,201.901812 L244.131507,201.844658 Z" id="路径" fill="url(#linearGradient-2)" fill-rule="nonzero"></path>
                <path d="M244.131507,201.84476 C244.221796,201.84476 244.308275,201.808297 244.371346,201.74374 C244.434417,201.679183 244.46874,201.591922 244.466538,201.501732 L242.415493,182.722479 C242.420076,182.63163 242.386533,182.542988 242.32294,182.477897 C242.259348,182.412806 242.171468,182.377164 242.080462,182.37944 C241.988763,182.37729 241.900146,182.412692 241.835285,182.4775 C241.770425,182.542308 241.734994,182.630854 241.737259,182.722479 L243.788304,201.501732 C243.786039,201.593357 243.82147,201.681903 243.88633,201.746711 C243.951191,201.811519 244.039808,201.846921 244.131507,201.84476 L244.131507,201.84476 Z" id="路径" fill="url(#linearGradient-3)" fill-rule="nonzero"></path>
                <path d="M243.788304,198.766493 L243.788304,198.766493 C244.131507,198.431733 244.131507,198.431733 244.131507,198.088807 L239.343012,194.324791 L238.999809,194.324791 L238.999809,194.659552 L243.788304,198.766493 Z M243.101899,191.940643 L243.101899,191.940643 L246.182551,187.498941 L246.182551,187.156015 L245.839348,187.156015 L242.758696,191.597717 L243.101899,191.940643 Z" id="形状" fill="url(#linearGradient-4)" fill-rule="nonzero"></path>
                <path d="M228.744586,201.501732 C228.744586,201.501732 230.109226,202.530509 233.533081,200.815881 C236.948765,198.766493 236.262359,197.060031 234.554517,197.745882 C232.846676,198.431733 229.774194,202.187583 229.087789,201.158807 C228.401384,200.13003 231.138834,198.088807 229.430992,196.039419 C227.72315,193.990031 228.744586,198.431733 228.058181,198.431733 C227.72315,198.431733 227.036744,196.039419 226.350339,197.060031 C225.663934,198.080642 227.379947,201.142477 227.72315,201.501732 C228.401384,201.844658 227.379947,201.844658 225.663934,201.158807 C223.956092,200.138195 223.612889,202.187583 225.328903,202.865269 C227.044916,203.542956 228.744586,201.501732 228.744586,201.501732 L228.744586,201.501732 Z" id="路径" fill="url(#linearGradient-5)" fill-rule="nonzero"></path>
                <ellipse id="椭圆形" fill="url(#linearGradient-6)" fill-rule="nonzero" opacity="0.41" cx="111.491842" cy="204.261466" rx="32.1221366" ry="6.05018566"></ellipse>
                <path d="M76.1991665,214.590056 C81.1510909,212.254896 89.7311579,204.792184 84.2317435,191.548728 C79.0428459,178.133809 70.4627789,185.572026 67.7661864,176.647798 C65.0695939,167.72357 65.4291395,165.282267 58.1728543,161.902002 C50.9165691,158.521736 54.9696293,155.133305 49.7071882,151.165167 C44.4447471,147.197029 41.5356958,146.690806 37.8421812,148.438093 C34.1486667,150.18538 40.4652303,160.415991 37.025032,164.310645 C33.5848337,168.205299 33.3723749,169.421868 39.2231635,175.36591 C45.073952,181.309952 47.3374554,181.358941 45.3762972,186.79676 C43.4151391,192.234579 45.3762972,193.981866 49.0371258,193.761414 C52.6979544,193.540962 58.3689701,193.524632 56.2035246,200.954684 C54.0380792,208.384737 54.8960859,211.013833 62.0297987,213.316332 C69.1635116,215.618832 69.3841419,217.774364 76.223681,214.573726 L76.1991665,214.590056 Z" id="路径" fill="url(#linearGradient-7)" fill-rule="nonzero"></path>
                <path d="M79.0019884,212.516173 C78.9196499,212.555258 78.8251321,212.560007 78.7392849,212.529372 C78.6534377,212.498737 78.5833148,212.435235 78.5443848,212.352875 L47.8032305,167.160193 C47.6561436,166.849927 47.6561436,166.849927 47.9666603,166.711124 C48.277177,166.57232 48.277177,166.564155 48.4242639,166.874421 L79.1654182,212.058939 C79.3125051,212.369205 79.3125051,212.369205 79.0019884,212.516173 Z" id="路径" fill="url(#linearGradient-8)" fill-rule="nonzero"></path>
                <path d="M58.9082886,182.706149 C58.5977719,182.844952 58.450685,182.542851 58.3035982,182.232585 L59.1942909,170.483304 C59.1942909,170.483304 59.3577207,170.034235 59.5048076,170.344501 C59.5048076,170.344501 59.9542396,170.507799 59.6518944,170.646602 L58.9082886,182.706149 L58.9082886,182.706149 Z M63.9255849,190.152531 L54.5937406,190.397478 C54.5125948,190.436245 54.4192567,190.440782 54.3347278,190.410069 C54.2501989,190.379356 54.1815792,190.315973 54.1443086,190.23418 C54.1028463,190.15227 54.0968642,190.056942 54.1277619,189.970498 C54.1586595,189.884054 54.2237261,189.81408 54.3077384,189.776946 L63.29638,189.678967 C63.9174135,189.393196 64.0563288,189.678967 63.892899,190.152531 L63.9255849,190.152531 Z M71.0266118,200.407637 L71.0266118,200.407637 C70.7160951,200.554605 70.5771797,200.244339 70.4300929,199.934073 L71.7865606,187.588755 C71.7865606,187.588755 71.9499905,187.131521 72.0970773,187.441787 C72.0970773,187.441787 72.5546809,187.605085 72.2441642,187.752053 L71.0266118,200.407637 Z M75.17773,206.768088 L62.3158009,206.768088 C62.0052842,206.906891 61.8581974,206.60479 62.1687141,206.457822 C62.0216272,206.147556 62.3321439,206.000588 62.4792308,206.310854 L75.0143001,206.449657 C75.3248168,206.302689 75.3248168,206.302689 75.161387,206.759923 L75.17773,206.768088 Z" id="形状" fill="url(#linearGradient-9)" fill-rule="nonzero"></path>
                <path d="M83.6188816,211.095481 C87.9497726,209.054258 90.2459619,209.111413 90.0825321,203.151041 C89.7475009,197.639738 93.931305,195.296414 91.259227,192.022292 C88.587149,188.74817 85.9477569,190.389313 86.6014763,182.134606 C87.2551957,173.8799 82.5892736,170.42615 79.8599951,169.446363 C77.1307166,168.466576 75.7742489,166.441682 73.3228012,161.959156 C70.8713535,157.47663 66.4832621,160.269023 66.1237164,162.702161 C65.7641707,165.135299 68.673222,171.316123 66.7447498,175.243437 C64.8162776,179.17075 68.5669926,182.322399 71.7293602,184.224819 C74.8917277,186.127239 72.971427,190.062717 71.2227276,192.773462 C69.5884292,195.786307 65.6987988,200.285163 68.6977365,202.644817 C71.6966742,205.004471 76.5260262,214.443088 83.6352246,211.095481 L83.6188816,211.095481 Z" id="路径" fill="url(#linearGradient-10)" fill-rule="nonzero"></path>
                <path d="M84.239915,210.801545 C84.1579387,210.842974 84.0625332,210.848951 83.9760198,210.818079 C83.8895064,210.787206 83.8194754,210.722192 83.7823114,210.638247 L75.7170485,176.680458 C75.6755862,176.598548 75.6696041,176.503219 75.7005018,176.416776 C75.7313994,176.330332 75.796466,176.260358 75.8804783,176.223224 C75.9628168,176.184139 76.0573346,176.17939 76.1431818,176.210025 C76.229029,176.24066 76.2991519,176.304161 76.3380819,176.386522 L84.239915,210.801545 C84.4033449,210.344311 84.5504317,210.654577 84.239915,210.801545 Z" id="路径" fill="url(#linearGradient-11)" fill-rule="nonzero"></path>
                <path d="M79.5413069,189.605483 L79.5413069,189.605483 C79.0837033,189.442185 79.0837033,189.442185 78.9366165,189.13192 L82.3931577,178.811495 L82.7036744,178.664527 L82.8507613,178.974793 L79.5821644,189.589154 L79.5413069,189.605483 Z M82.8752758,203.894046 L82.8752758,203.894046 L72.7262822,199.223727 L72.5873669,198.913461 L72.8897121,198.766493 L82.695503,203.58378 C83.0387056,203.436812 83.1857925,203.747078 82.8752758,203.894046 Z" id="形状" fill="url(#linearGradient-12)" fill-rule="nonzero"></path>
                <path d="M104.815733,217.643726 C105.971004,217.612313 107.044623,217.041222 107.715752,216.101118 C108.38688,215.161013 108.577785,213.960781 108.231417,212.859098 C107.553183,210.123859 106.523575,211.495561 106.180372,213.544949 C105.837169,215.594337 106.523575,212.516173 104.47253,211.838487 C102.421486,211.495561 104.47253,215.251412 103.786125,215.920933 C102.764688,216.255694 101.400049,212.499843 100.027238,214.206306 C98.6544276,215.912768 101.73508,217.627396 104.815733,217.627396 L104.815733,217.643726 Z" id="路径" fill="url(#linearGradient-13)" fill-rule="nonzero"></path>
                <path d="M160.471767,73.386307 C130.891014,73.3529421 102.53819,85.2009647 81.7884673,106.266421 L96.2274943,120.693787 C112.97941,103.667704 135.814644,93.9888397 159.709039,93.7867159 C183.603433,93.5845922 206.599395,102.875769 223.637404,119.616021 L224.724212,120.693787 L239.171411,106.266421 C218.417715,85.1969208 190.058187,73.3485576 160.471767,73.386307 L160.471767,73.386307 Z" id="路径" stroke="url(#linearGradient-14)"></path>
                <path d="M109.252853,133.708626 L123.912511,148.405434 C133.132479,138.697608 145.836504,133.050179 159.22621,132.70713 C172.615916,132.364082 185.592903,137.353556 195.298668,146.576498 C195.903358,147.156205 196.499877,147.752242 197.080053,148.364609 L211.731539,133.667802 C184.429263,105.403125 139.36564,104.602592 111.075096,131.87969 C110.462234,132.467563 109.865715,133.0636 109.277368,133.667802 L109.252853,133.708626 Z" id="路径" fill="url(#linearGradient-15)" fill-rule="nonzero"></path>
                <path d="M136.741754,161.167161 L160.439082,184.886175 L184.177267,161.167161 C171.068537,148.102386 149.850484,148.102386 136.741754,161.167161 Z" id="路径" fill="url(#linearGradient-16)" fill-rule="nonzero"></path>
                <path d="M193.076022,139.424051 C183.210418,139.424051 174.316244,145.362149 170.540841,154.469418 C166.765437,163.576687 168.852305,174.059607 175.828341,181.030008 C182.804377,188.00041 193.29577,190.085593 202.4104,186.313238 C211.52503,182.540884 217.467927,173.653894 217.467927,163.796257 C217.467927,150.335859 206.547299,139.424051 193.076022,139.424051 Z M193.280309,182.085653 C191.241536,182.094586 189.581084,180.451249 189.570532,178.41413 C189.560081,176.377011 191.203503,174.71667 193.242261,174.704588 C195.281018,174.692637 196.943929,176.333489 196.957481,178.370591 C196.95756,180.405147 195.316431,182.059526 193.280309,182.077452 L193.280309,182.085653 Z M195.192439,168.556389 C195.016839,169.523432 194.174049,170.2265 193.190423,170.2265 C192.206797,170.2265 191.364007,169.523432 191.188407,168.556389 C189.823768,161.26514 188.287528,152.716497 188.271185,151.246816 C188.253133,148.595321 190.389698,146.431237 193.043336,146.413086 C195.696975,146.395162 197.862808,148.530002 197.880894,151.181497 C197.889031,152.683837 196.45902,161.256975 195.192439,168.556389 Z" id="形状" fill="url(#linearGradient-17)" fill-rule="nonzero"></path>
                <g id="编组" opacity="0.47" transform="translate(236.554574, 66.511799)" fill-rule="nonzero">
                    <ellipse id="椭圆形" fill="url(#linearGradient-18)" transform="translate(3.553501, 23.379570) rotate(-65.830000) translate(-3.553501, -23.379570) " cx="3.55350115" cy="23.3795705" rx="2.68661389" ry="2.68805712"></ellipse>
                    <path d="M0.631164041,3.52699255 C0.631164041,4.60475841 1.49734223,10.8753962 2.26546252,16.1907415 C2.37372898,16.8965454 2.97155891,17.4240591 3.68590044,17.4441087 C4.40024198,17.4641582 5.0267654,16.9710087 5.17451381,16.2723904 C6.28583677,10.9897047 7.55241809,4.84154031 7.58510406,3.73111487 C7.67185449,2.45345398 7.05225141,1.23071833 5.97025621,0.544345667 C4.88826101,-0.142027 3.51720261,-0.18208405 2.39691909,0.439946508 C1.27663556,1.06197707 0.586589375,2.2464498 0.598478071,3.52699255 L0.631164041,3.52699255 Z" id="路径" fill="url(#linearGradient-19)"></path>
                </g>
                <g id="编组" opacity="0.47" transform="translate(75.728397, 55.222482)" fill-rule="nonzero">
                    <ellipse id="椭圆形" fill="url(#linearGradient-20)" transform="translate(2.808238, 18.375250) rotate(-65.830000) translate(-2.808238, -18.375250) " cx="2.80823799" cy="18.3752496" rx="2.12315992" ry="2.12430046"></ellipse>
                    <path d="M0.503455032,2.68327876 C0.503455032,3.49976805 1.18986039,8.47218785 1.8272368,12.6934375 C1.91497935,13.2485171 2.38601101,13.6623973 2.94819803,13.6783897 C3.51038505,13.6943821 4.00421985,13.3079492 4.12342616,12.7587566 C5.00594734,8.58649635 6.00286941,3.68756059 6.02738389,2.83841173 C6.0702573,1.31425283 4.86843947,0.0439502198 3.34304864,0.00111143424 C1.8176578,-0.0417273513 0.546328443,1.15911986 0.503455032,2.68327876 L0.503455032,2.68327876 Z" id="路径" fill="url(#linearGradient-21)"></path>
                </g>
                <g id="编组" opacity="0.47" transform="translate(135.262713, 13.581916)" fill-rule="nonzero">
                    <ellipse id="椭圆形" fill="url(#linearGradient-22)" cx="1.38915371" cy="11.0519056" rx="1.2829243" ry="1.28188819"></ellipse>
                    <path d="M-2.32247782e-14,1.6132894 C-2.32247782e-14,2.11951276 0.416746112,5.09969868 0.817149239,7.63898038 C0.878213975,7.96785665 1.16062669,8.20960827 1.49524074,8.21944191 C1.82985479,8.22927555 2.1259992,8.00452658 2.20630294,7.67980485 C2.72927846,5.16501783 3.33396889,2.21749148 3.35031188,1.71126812 C3.36782829,1.1176514 3.06706738,0.559789599 2.56132289,0.247823866 C2.0555784,-0.0641418661 1.42168496,-0.0828165049 0.89842411,0.198834506 C0.375163261,0.480485518 0.0420307864,1.01967268 0.0245144772,1.6132894 L-2.32247782e-14,1.6132894 Z" id="路径" fill="url(#linearGradient-23)"></path>
                </g>
                <path d="M134.290306,211.324098 C133.881731,211.324098 133.473157,211.96096 133.661101,213.4633 C133.849045,214.965641 133.587558,215.79846 134.854139,215.839284 C135.932776,215.839284 143.091003,215.39838 145.068504,215.284072 C145.738567,215.284072 145.534279,214.573726 145.501593,214.402263 C145.338164,213.675588 144.733473,212.597822 142.568028,212.508008 C140.933729,212.320215 139.340288,210.875029 138.629368,210.932184 C137.918449,210.989338 137.656961,211.658859 136.521123,211.658859 C135.385286,211.658859 134.993054,211.324098 134.290306,211.324098 Z" id="路径" fill="#000000" fill-rule="nonzero"></path>
                <path d="M131.84703,184.641228 C131.84703,184.641228 123.675537,171.071176 123.021818,168.311443 C122.368098,165.551709 126.421159,165.861975 127.017678,166.482507 C135.099284,175.423064 138.408738,185.914952 138.106393,187.205005 C137.804048,188.495058 122.948274,193.010244 122.948274,193.010244 L120.047395,190.822052 L131.84703,184.641228 Z" id="路径" fill="url(#linearGradient-24)" fill-rule="nonzero"></path>
                <path d="M110.029145,167.633756 C108.909651,169.332054 113.297742,173.04708 116.786969,171.59373 C120.276196,170.140379 120.120938,162.424555 120.120938,162.424555 C120.120938,162.204103 116.631711,162.685831 116.631711,162.685831 C115.218043,162.579688 113.894261,166.931576 110.029145,167.633756 Z" id="路径" fill="#EEC3B9" fill-rule="nonzero"></path>
                <path d="M120.938087,152.144955 C120.938087,152.144955 121.657179,155.255779 122.229183,158.056337 C122.531528,159.583172 122.793016,161.003863 122.86656,161.795858 C123.070847,164.024874 120.889058,165.061815 118.658241,165.265937 C116.427424,165.47006 113.3958,164.645406 112.407049,159.697481 C111.418299,154.749555 109.105766,150.324183 120.938087,152.144955 Z" id="路径" fill="#EEC3B9" fill-rule="nonzero"></path>
                <path d="M116.852341,155.133305 C113.681802,155.378252 113.788031,155.859981 113.403971,157.582773 C112.856481,160.105725 112.987225,161.061018 113.265056,162.277587 C113.730831,164.326975 108.443875,159.999582 107.283524,156.847933 C106.049628,153.492162 108.174216,147.409317 115.103642,148.021684 C118.029036,148.28296 121.232261,147.817561 121.542778,149.368891 C121.894152,151.148838 121.183232,152.218439 120.578542,152.210274 C117.367145,152.177614 119.083159,154.961843 116.852341,155.133305 Z" id="路径" fill="#131322" fill-rule="nonzero"></path>
                <path d="M104.292757,167.552108 C104.292757,167.552108 107.945414,165.461895 110.298804,167.029554 C112.652194,168.597214 117.424346,168.425751 120.750143,166.768278 C123.356849,165.461895 126.470188,165.723171 128.055457,166.768278 C132.214747,169.536176 128.316945,188.691015 128.316945,188.691015 L106.646147,200.693408 C106.646147,200.693408 99.855637,198.864472 98.5481982,200.693408 C97.2407594,202.522344 96.1948084,177.211176 98.8096859,173.292027 C101.424564,169.372879 102.462343,168.597214 104.292757,167.552108 Z" id="路径" fill="url(#linearGradient-25)" fill-rule="nonzero"></path>
                <path d="M98.2867104,200.170855 C98.2867104,199.354365 103.508294,197.304977 105.861684,199.909578 C108.215074,202.514179 111.083268,179.5545 118.936072,179.5545 C125.98807,179.5545 123.896168,190.519951 123.896168,190.519951 C123.896168,190.519951 123.63468,205.910774 120.766486,208.262264 C117.898292,210.613753 115.169014,211.070987 110.65835,210.973008 C106.147686,210.875029 98.8096859,210.654577 98.2867104,200.170855 Z" id="路径" fill="url(#linearGradient-26)" fill-rule="nonzero"></path>
                <path d="M122.310898,181.383436 C122.310898,185.555696 132.427206,208.474551 134.331163,211.136306 C135.630431,212.957077 137.084956,212.908088 138.245308,211.952795 C140.075722,210.393301 132.525264,180.70575 129.624384,178.550218 C126.723504,176.394687 122.310898,177.178516 122.310898,181.383436 Z" id="路径" fill="url(#linearGradient-27)" fill-rule="nonzero"></path>
                <path d="M114.997412,183.473649 C114.997412,187.645909 123.879825,210.613753 126.494702,213.218354 C129.10958,215.822955 129.256667,214.728859 130.408847,213.740907 C132.239261,212.173247 125.244464,182.714314 122.310898,180.599606 C119.377332,178.484899 114.997412,179.293224 114.997412,183.473649 Z" id="路径" fill="url(#linearGradient-28)" fill-rule="nonzero"></path>
                <path d="M117.873778,190.242345 C117.873778,190.242345 108.885136,173.659447 106.646147,171.969315 C104.407158,170.279182 100.926102,172.785804 101.522621,175.300591 C104.41533,186.992718 114.474437,196.766094 115.781876,197.027371 C117.089314,197.288648 135.891918,188.691015 135.891918,188.691015 L134.331163,186.600803 L117.873778,190.242345 Z" id="路径" fill="url(#linearGradient-29)" fill-rule="nonzero"></path>
                <path d="M126.453845,213.14487 C126.04527,213.14487 125.636695,213.789896 125.82464,215.292236 C126.012584,216.794577 125.759268,217.627396 127.017678,217.66822 C128.096315,217.66822 135.254542,217.227316 137.232043,217.113008 C137.902106,217.072183 137.697818,216.394497 137.665132,216.231199 C137.501702,215.504524 136.905183,214.426758 134.731566,214.336944 C133.097268,214.140987 131.503827,212.703965 130.792907,212.76112 C130.081987,212.818274 129.8205,213.47963 128.684662,213.487795 C127.935269,213.4149 127.190513,213.300415 126.453845,213.14487 L126.453845,213.14487 Z" id="路径" fill="#000000" fill-rule="nonzero"></path>
            </g>
        </g>
    </g>
</svg>