<?xml version="1.0" encoding="UTF-8"?>
<svg width="300px" height="244px" viewBox="0 0 300 244" version="1.1" xmlns="http://www.w3.org/2000/svg" xmlns:xlink="http://www.w3.org/1999/xlink">
    <title>资源 2</title>
    <defs>
        <linearGradient x1="-0.00821089158%" y1="49.9223602%" x2="99.9958934%" y2="49.9223602%" id="linearGradient-1">
            <stop stop-color="#F9E7A8" offset="0%"></stop>
            <stop stop-color="#F5A623" offset="100%"></stop>
        </linearGradient>
        <linearGradient x1="31.1730784%" y1="59.1306206%" x2="66.5461257%" y2="36.8815833%" id="linearGradient-2">
            <stop stop-color="#C6DFFE" offset="0%"></stop>
            <stop stop-color="#72B1FE" offset="100%"></stop>
        </linearGradient>
        <linearGradient x1="-0.00816792338%" y1="49.9928234%" x2="99.9822704%" y2="49.9928234%" id="linearGradient-3">
            <stop stop-color="#C6DFFE" offset="0%"></stop>
            <stop stop-color="#72B1FE" offset="100%"></stop>
        </linearGradient>
        <linearGradient x1="-0.0226459219%" y1="50.0002851%" x2="100.143552%" y2="50.0002851%" id="linearGradient-4">
            <stop stop-color="#C6DFFE" offset="0%"></stop>
            <stop stop-color="#72B1FE" offset="100%"></stop>
        </linearGradient>
        <linearGradient x1="-544.910581%" y1="75.4072026%" x2="-439.75462%" y2="75.4072026%" id="linearGradient-5">
            <stop stop-color="#C6DFFE" offset="0%"></stop>
            <stop stop-color="#72B1FE" offset="100%"></stop>
        </linearGradient>
        <linearGradient x1="-0.0548265901%" y1="50.0076576%" x2="99.9765458%" y2="50.0076576%" id="linearGradient-6">
            <stop stop-color="#C6DFFE" offset="0%"></stop>
            <stop stop-color="#72B1FE" offset="100%"></stop>
        </linearGradient>
        <linearGradient x1="0.0781361852%" y1="50.2588997%" x2="100.014317%" y2="50.2588997%" id="linearGradient-7">
            <stop stop-color="#C6DFFE" offset="0%"></stop>
            <stop stop-color="#72B1FE" offset="100%"></stop>
        </linearGradient>
        <linearGradient x1="0.0103263685%" y1="49.9638039%" x2="99.8372433%" y2="49.9638039%" id="linearGradient-8">
            <stop stop-color="#C6DFFE" offset="0%"></stop>
            <stop stop-color="#72B1FE" offset="100%"></stop>
        </linearGradient>
        <linearGradient x1="0%" y1="49.8768386%" x2="99.9865481%" y2="49.8768386%" id="linearGradient-9">
            <stop stop-color="#C6DFFE" offset="0%"></stop>
            <stop stop-color="#72B1FE" offset="100%"></stop>
        </linearGradient>
        <linearGradient x1="0.00374851787%" y1="50.0000273%" x2="99.9963438%" y2="50.0000273%" id="linearGradient-10">
            <stop stop-color="#C6DFFE" offset="0%"></stop>
            <stop stop-color="#72B1FE" offset="100%"></stop>
        </linearGradient>
        <linearGradient x1="6.46682808e-13%" y1="50%" x2="100%" y2="50%" id="linearGradient-11">
            <stop stop-color="#C6DFFE" offset="0%"></stop>
            <stop stop-color="#72B1FE" offset="100%"></stop>
        </linearGradient>
        <linearGradient x1="0.0108485001%" y1="49.9609761%" x2="100.008471%" y2="49.9609761%" id="linearGradient-12">
            <stop stop-color="#C6DFFE" offset="0%"></stop>
            <stop stop-color="#72B1FE" offset="100%"></stop>
        </linearGradient>
        <linearGradient x1="0%" y1="50%" x2="100%" y2="50%" id="linearGradient-13">
            <stop stop-color="#F9E7A8" offset="0%"></stop>
            <stop stop-color="#F5A623" offset="100%"></stop>
        </linearGradient>
        <linearGradient x1="49.9873476%" y1="99.9999234%" x2="49.9873476%" y2="3.25952169e-05%" id="linearGradient-14">
            <stop stop-color="#C6DFFE" offset="0%"></stop>
            <stop stop-color="#72B1FE" offset="100%"></stop>
        </linearGradient>
        <linearGradient x1="49.9975317%" y1="100%" x2="49.9975317%" y2="-1.25040517e-13%" id="linearGradient-15">
            <stop stop-color="#C6DFFE" offset="0%"></stop>
            <stop stop-color="#72B1FE" offset="100%"></stop>
        </linearGradient>
        <linearGradient x1="0%" y1="50%" x2="100%" y2="50%" id="linearGradient-16">
            <stop stop-color="#C6DFFE" offset="0%"></stop>
            <stop stop-color="#72B1FE" offset="100%"></stop>
        </linearGradient>
        <linearGradient x1="0%" y1="50%" x2="100%" y2="50%" id="linearGradient-17">
            <stop stop-color="#BFD4FA" offset="0%"></stop>
            <stop stop-color="#5792F0" offset="100%"></stop>
        </linearGradient>
        <linearGradient x1="0.0983480762%" y1="49.7262282%" x2="100.118342%" y2="49.7262282%" id="linearGradient-18">
            <stop stop-color="#1A1114" offset="0%"></stop>
            <stop stop-color="#30231E" offset="25%"></stop>
            <stop stop-color="#4A372A" offset="50%"></stop>
            <stop stop-color="#5A372A" offset="59%"></stop>
            <stop stop-color="#60372A" offset="66%"></stop>
            <stop stop-color="#98372A" offset="98%"></stop>
        </linearGradient>
        <linearGradient x1="100%" y1="49.9462969%" x2="-7.72679006e-13%" y2="49.9462969%" id="linearGradient-19">
            <stop stop-color="#F3835D" offset="0%"></stop>
            <stop stop-color="#FFC644" offset="100%"></stop>
        </linearGradient>
        <linearGradient x1="-1.28779834e-13%" y1="49.9462969%" x2="100%" y2="49.9462969%" id="linearGradient-20">
            <stop stop-color="#F3835D" offset="0%"></stop>
            <stop stop-color="#FFC644" offset="100%"></stop>
        </linearGradient>
        <linearGradient x1="0%" y1="50%" x2="100%" y2="50%" id="linearGradient-21">
            <stop stop-color="#EAF2FD" offset="0%"></stop>
            <stop stop-color="#C4DFFD" offset="100%"></stop>
        </linearGradient>
        <linearGradient x1="0%" y1="50%" x2="100%" y2="50%" id="linearGradient-22">
            <stop stop-color="#EAF2FD" offset="0%"></stop>
            <stop stop-color="#C4DFFD" offset="100%"></stop>
        </linearGradient>
        <linearGradient x1="0%" y1="50%" x2="100%" y2="50%" id="linearGradient-23">
            <stop stop-color="#EAF2FD" offset="0%"></stop>
            <stop stop-color="#C4DFFD" offset="100%"></stop>
        </linearGradient>
    </defs>
    <g id="页面" stroke="none" stroke-width="1" fill="none" fill-rule="evenodd">
        <g id="缺省页" transform="translate(-442.000000, -71.000000)">
            <g id="资源-2" transform="translate(442.000000, 71.000000)">
                <path d="M151.728271,0 C124.687776,-0.0627149546 98.3587244,8.65401416 76.705799,24.837944 L85.0815787,24.837944 C86.9865603,24.837944 88.8135188,25.5940838 90.1605442,26.9400213 C91.5075696,28.2859588 92.2643205,30.1114418 92.2643205,32.0148849 L92.2643205,32.0148849 L92.2643205,32.5700976 C92.2643205,36.5338126 89.0484975,39.7470385 85.0815787,39.7470385 L60.125841,39.7470385 C55.3841489,44.8479277 51.0866993,50.3437836 47.280255,56.1748031 L35.4234195,56.1748031 C31.1528089,56.179309 27.6931853,59.6397927 27.6931877,63.9069567 L27.6931877,64.339696 C27.6904251,67.7825811 29.9708457,70.8106924 33.2824885,71.7615837 L44.1996023,71.7615837 C49.0807909,71.766085 53.0366521,75.7187513 53.0411571,80.5959978 L53.0411571,80.5959978 L53.0411571,83.3557316 C53.0411571,88.2348438 49.0826582,92.1901458 44.1996023,92.1901458 L6.68428077,92.1901458 C2.75547832,93.1778206 0,96.7071477 0,100.755118 L0,101.245012 C0,106.124124 3.9584989,110.079426 8.84155476,110.079426 L28.2733637,110.079426 C27.8920273,114.009461 27.6986354,117.983043 27.6931877,122.00017 C27.6931877,189.376866 83.2593359,244 151.728271,244 C206.526299,244 253.054776,209.054258 269.438618,160.587454 L274.088198,160.587454 C275.716514,160.575986 277.110319,159.417602 277.418199,157.819907 C277.726078,156.222213 276.862413,154.629511 275.354779,154.014715 L269.634734,154.014715 C265.671005,154.014718 262.456502,150.806465 262.451992,146.845939 L262.451992,146.845939 L262.451992,146.290726 C262.451992,142.327011 265.667816,139.113785 269.634734,139.113785 L274.562144,139.113785 L274.562144,139.023972 L286.819383,139.023972 C289.955911,139.023972 292.49857,136.483366 292.49857,133.349371 C292.49857,130.215376 289.955911,127.67477 286.819383,127.67477 L275.63261,127.67477 C275.72522,125.796845 275.768801,123.891703 275.763354,121.959345 C275.780531,104.534388 271.996469,87.3150719 264.674638,71.5003071 L284.531365,71.5003071 C293.072588,71.4958023 299.995492,64.5784898 300,56.0441648 L300,55.1786861 C300,46.9877608 293.606003,40.2186765 285.422058,39.7470385 L215.465911,39.7470385 C212.41513,39.7470385 209.941982,37.2758886 209.941982,34.2275709 C209.941982,31.1792531 212.41513,28.7081032 215.465911,28.7081032 L231.661809,28.7081032 L231.253235,28.3733426 L239.310326,28.3733426 C242.094446,28.3733435 244.764416,27.2676909 246.73232,25.2998452 C248.700223,23.3319996 249.804691,20.6633257 249.802522,17.8814552 L249.802522,17.3017478 C249.804691,14.5198773 248.700223,11.8512034 246.73232,9.8833578 C244.764416,7.91551217 242.094446,6.80985955 239.310326,6.8098604 L192.691962,6.8098604 C179.509658,2.2865046 165.666232,-0.0147307424 151.728271,0 Z" id="背景" fill="#EDF0F4" opacity="0.35"></path>
                <path d="M148.721161,190.242345 C176.798409,190.242345 202.081007,192.528515 219.755945,196.186387 C237.038651,196.300696 250.962874,201.477238 250.962874,207.837689 C250.962874,212.883593 242.219377,217.178327 229.986653,218.80314 C227.061259,219.668619 223.776319,220.476943 220.180862,221.252608 C220.271984,221.734485 220.318485,222.223724 220.319778,222.714124 C220.319778,233.818379 196.148503,242.824255 166.338899,242.824255 C139.520061,242.824255 117.309945,235.533006 113.06894,225.980081 C77.285975,223.269337 51.9788585,216.58229 51.9788585,208.768487 C51.9625201,198.497052 95.2796012,190.242345 148.721161,190.242345 Z" id="形状结合" fill="url(#linearGradient-1)" opacity="0.27"></path>
                <path d="M76.1991665,214.590056 C81.1510909,212.254896 89.7311579,204.792184 84.2317435,191.548728 C79.0428459,178.133809 70.4627789,185.572026 67.7661864,176.647798 C65.0695939,167.72357 65.4291395,165.282267 58.1728543,161.902002 C50.9165691,158.521736 54.9696293,155.133305 49.7071882,151.165167 C44.4447471,147.197029 41.5356958,146.690806 37.8421812,148.438093 C34.1486667,150.18538 40.4652303,160.415991 37.025032,164.310645 C33.5848337,168.205299 33.3723749,169.421868 39.2231635,175.36591 C45.073952,181.309952 47.3374554,181.358941 45.3762972,186.79676 C43.4151391,192.234579 45.3762972,193.981866 49.0371258,193.761414 C52.6979544,193.540962 58.3689701,193.524632 56.2035246,200.954684 C54.0380792,208.384737 54.8960859,211.013833 62.0297987,213.316332 C69.1635116,215.618832 69.3841419,217.774364 76.223681,214.573726 L76.1991665,214.590056 Z" id="路径" fill="url(#linearGradient-2)" fill-rule="nonzero"></path>
                <path d="M79.0019884,212.516173 C78.9196499,212.555258 78.8251321,212.560007 78.7392849,212.529372 C78.6534377,212.498737 78.5833148,212.435235 78.5443848,212.352875 L47.8032305,167.160193 C47.6561436,166.849927 47.6561436,166.849927 47.9666603,166.711124 C48.277177,166.57232 48.277177,166.564155 48.4242639,166.874421 L79.1654182,212.058939 C79.3125051,212.369205 79.3125051,212.369205 79.0019884,212.516173 Z" id="路径" fill="url(#linearGradient-3)" fill-rule="nonzero"></path>
                <path d="M58.9082886,182.706149 C58.5977719,182.844952 58.450685,182.542851 58.3035982,182.232585 L59.1942909,170.483304 C59.1942909,170.483304 59.3577207,170.034235 59.5048076,170.344501 C59.5048076,170.344501 59.9542396,170.507799 59.6518944,170.646602 L58.9082886,182.706149 L58.9082886,182.706149 Z M63.9255849,190.152531 L54.5937406,190.397478 C54.5125948,190.436245 54.4192567,190.440782 54.3347278,190.410069 C54.2501989,190.379356 54.1815792,190.315973 54.1443086,190.23418 C54.1028463,190.15227 54.0968642,190.056942 54.1277619,189.970498 C54.1586595,189.884054 54.2237261,189.81408 54.3077384,189.776946 L63.29638,189.678967 C63.9174135,189.393196 64.0563288,189.678967 63.892899,190.152531 L63.9255849,190.152531 Z M71.0266118,200.407637 L71.0266118,200.407637 C70.7160951,200.554605 70.5771797,200.244339 70.4300929,199.934073 L71.7865606,187.588755 C71.7865606,187.588755 71.9499905,187.131521 72.0970773,187.441787 C72.0970773,187.441787 72.5546809,187.605085 72.2441642,187.752053 L71.0266118,200.407637 Z M75.17773,206.768088 L62.3158009,206.768088 C62.0052842,206.906891 61.8581974,206.60479 62.1687141,206.457822 C62.0216272,206.147556 62.3321439,206.000588 62.4792308,206.310854 L75.0143001,206.449657 C75.3248168,206.302689 75.3248168,206.302689 75.161387,206.759923 L75.17773,206.768088 Z" id="形状" fill="url(#linearGradient-4)" fill-rule="nonzero"></path>
                <path d="M83.6188816,211.095481 C87.9497726,209.054258 90.2459619,209.111413 90.0825321,203.151041 C89.7475009,197.639738 93.931305,195.296414 91.259227,192.022292 C88.587149,188.74817 85.9477569,190.389313 86.6014763,182.134606 C87.2551957,173.8799 82.5892736,170.42615 79.8599951,169.446363 C77.1307166,168.466576 75.7742489,166.441682 73.3228012,161.959156 C70.8713535,157.47663 66.4832621,160.269023 66.1237164,162.702161 C65.7641707,165.135299 68.673222,171.316123 66.7447498,175.243437 C64.8162776,179.17075 68.5669926,182.322399 71.7293602,184.224819 C74.8917277,186.127239 72.971427,190.062717 71.2227276,192.773462 C69.5884292,195.786307 65.6987988,200.285163 68.6977365,202.644817 C71.6966742,205.004471 76.5260262,214.443088 83.6352246,211.095481 L83.6188816,211.095481 Z" id="路径" fill="url(#linearGradient-5)" fill-rule="nonzero"></path>
                <path d="M84.239915,210.801545 C84.1579387,210.842974 84.0625332,210.848951 83.9760198,210.818079 C83.8895064,210.787206 83.8194754,210.722192 83.7823114,210.638247 L75.7170485,176.680458 C75.6755862,176.598548 75.6696041,176.503219 75.7005018,176.416776 C75.7313994,176.330332 75.796466,176.260358 75.8804783,176.223224 C75.9628168,176.184139 76.0573346,176.17939 76.1431818,176.210025 C76.229029,176.24066 76.2991519,176.304161 76.3380819,176.386522 L84.239915,210.801545 C84.4033449,210.344311 84.5504317,210.654577 84.239915,210.801545 Z" id="路径" fill="url(#linearGradient-6)" fill-rule="nonzero"></path>
                <path d="M79.5413069,189.605483 L79.5413069,189.605483 C79.0837033,189.442185 79.0837033,189.442185 78.9366165,189.13192 L82.3931577,178.811495 L82.7036744,178.664527 L82.8507613,178.974793 L79.5821644,189.589154 L79.5413069,189.605483 Z M82.8752758,203.894046 L82.8752758,203.894046 L72.7262822,199.223727 L72.5873669,198.913461 L72.8897121,198.766493 L82.695503,203.58378 C83.0387056,203.436812 83.1857925,203.747078 82.8752758,203.894046 Z" id="形状" fill="url(#linearGradient-7)" fill-rule="nonzero"></path>
                <path d="M104.815733,217.643726 C105.971004,217.612313 107.044623,217.041222 107.715752,216.101118 C108.38688,215.161013 108.577785,213.960781 108.231417,212.859098 C107.553183,210.123859 106.523575,211.495561 106.180372,213.544949 C105.837169,215.594337 106.523575,212.516173 104.47253,211.838487 C102.421486,211.495561 104.47253,215.251412 103.786125,215.920933 C102.764688,216.255694 101.400049,212.499843 100.027238,214.206306 C98.6544276,215.912768 101.73508,217.627396 104.815733,217.627396 L104.815733,217.643726 Z" id="路径" fill="url(#linearGradient-8)" fill-rule="nonzero"></path>
                <path d="M244.131507,201.844658 C240.707651,201.844658 236.948765,197.762211 236.605562,195.010642 C236.605562,191.940643 240.364449,192.283568 240.364449,190.928196 C240.364449,189.572824 237.978373,189.564659 238.313404,188.535882 C238.648435,187.507106 240.707651,187.172345 240.364449,186.486494 C240.021246,185.800643 237.63517,186.82942 238.313404,185.122957 C238.999809,183.073569 240.364449,184.102345 239.343012,181.710032 C238.321575,179.317718 241.394057,181.710032 240.364449,179.660644 C239.343012,177.26833 238.313404,175.578197 240.364449,174.533091 C242.415493,173.487985 242.080462,181.367106 242.758696,180.681255 C243.788304,180.33833 245.152943,179.660644 245.496146,182.052957 C245.839348,184.445271 244.131507,185.122957 247.203988,185.465883 C249.941438,185.808808 246.182551,189.907584 248.233596,190.928196 C250.28464,191.948808 253.013919,194.684047 250.619672,197.46011 C248.568627,199.852424 247.203988,201.901812 244.131507,201.901812 L244.131507,201.844658 Z" id="路径" fill="url(#linearGradient-9)" fill-rule="nonzero"></path>
                <path d="M244.131507,201.84476 C244.221796,201.84476 244.308275,201.808297 244.371346,201.74374 C244.434417,201.679183 244.46874,201.591922 244.466538,201.501732 L242.415493,182.722479 C242.420076,182.63163 242.386533,182.542988 242.32294,182.477897 C242.259348,182.412806 242.171468,182.377164 242.080462,182.37944 C241.988763,182.37729 241.900146,182.412692 241.835285,182.4775 C241.770425,182.542308 241.734994,182.630854 241.737259,182.722479 L243.788304,201.501732 C243.786039,201.593357 243.82147,201.681903 243.88633,201.746711 C243.951191,201.811519 244.039808,201.846921 244.131507,201.84476 L244.131507,201.84476 Z" id="路径" fill="url(#linearGradient-10)" fill-rule="nonzero"></path>
                <path d="M243.788304,198.766493 L243.788304,198.766493 C244.131507,198.431733 244.131507,198.431733 244.131507,198.088807 L239.343012,194.324791 L238.999809,194.324791 L238.999809,194.659552 L243.788304,198.766493 Z M243.101899,191.940643 L243.101899,191.940643 L246.182551,187.498941 L246.182551,187.156015 L245.839348,187.156015 L242.758696,191.597717 L243.101899,191.940643 Z" id="形状" fill="url(#linearGradient-11)" fill-rule="nonzero"></path>
                <path d="M228.744586,201.501732 C228.744586,201.501732 230.109226,202.530509 233.533081,200.815881 C236.948765,198.766493 236.262359,197.060031 234.554517,197.745882 C232.846676,198.431733 229.774194,202.187583 229.087789,201.158807 C228.401384,200.13003 231.138834,198.088807 229.430992,196.039419 C227.72315,193.990031 228.744586,198.431733 228.058181,198.431733 C227.72315,198.431733 227.036744,196.039419 226.350339,197.060031 C225.663934,198.080642 227.379947,201.142477 227.72315,201.501732 C228.401384,201.844658 227.379947,201.844658 225.663934,201.158807 C223.956092,200.138195 223.612889,202.187583 225.328903,202.865269 C227.044916,203.542956 228.744586,201.501732 228.744586,201.501732 L228.744586,201.501732 Z" id="路径" fill="url(#linearGradient-12)" fill-rule="nonzero"></path>
                <ellipse id="椭圆形" fill="url(#linearGradient-13)" fill-rule="nonzero" opacity="0.41" cx="127.581511" cy="201.387424" rx="21.2458802" ry="4.64582408"></ellipse>
                <path d="M193.66437,69.7039897 L103.132405,69.7039897 C101.327209,69.7039897 99.8637912,71.1662495 99.8637912,72.9699878 L99.8637912,192.005962 C99.8625118,192.410178 99.934493,192.811288 100.076267,193.189871 C100.494671,194.267296 101.451792,195.043552 102.593087,195.231095 L102.593087,195.231095 C102.770078,195.270706 102.951036,195.289883 103.132405,195.288345 L193.66437,195.288345 C195.022998,195.293115 196.242975,194.457699 196.728679,193.189871 C196.87711,192.812904 196.951999,192.411046 196.949379,192.005962 L196.949379,72.9781527 C196.951498,72.1077161 196.605848,71.2724189 195.98909,70.6576923 C195.372332,70.0429657 194.535502,69.6996757 193.66437,69.7039897 Z M112.268134,86.4420611 L184.536813,86.4420611 L184.536813,89.1773003 L112.259962,89.1773003 L112.268134,86.4420611 Z M189.006621,131.89602 C189.009924,138.779688 184.862058,144.987228 178.49787,147.623019 C172.133682,150.258811 164.807056,148.803544 159.935633,143.936055 C155.064211,139.068567 153.607768,131.747858 156.245689,125.38881 C158.883611,119.029762 165.096169,114.885246 171.9854,114.888546 C181.3809,114.897557 188.993943,122.508105 188.998447,131.89602 L189.006621,131.89602 Z M112.259962,105.327458 L169.460409,105.327458 L169.460409,108.054533 L112.259962,108.054533 L112.259962,105.327458 Z M112.259962,123.706632 L151.090894,123.706632 L151.090894,126.441872 L112.259962,126.441872 L112.259962,123.706632 Z M112.259962,143.081923 L140.149266,143.081923 L140.149266,145.808998 L112.259962,145.808998 L112.259962,143.081923 Z" id="形状" fill="url(#linearGradient-14)" fill-rule="nonzero"></path>
                <path d="M102.83006,195.288249 C102.83006,195.288249 116.672568,193.949206 116.672568,176.729447 L214.150301,176.729447 C214.150301,176.729447 215.735571,195.288249 200.364993,195.288249 L102.83006,195.288249 Z" id="路径" fill="url(#linearGradient-15)" fill-rule="nonzero"></path>
                <rect id="矩形" fill="url(#linearGradient-16)" fill-rule="nonzero" x="128.553918" y="65.8746959" width="38.0382971" height="7.88728657" rx="1.98"></rect>
                <path d="M172.026258,117.42783 C164.114985,117.42783 157.701632,123.836004 157.701632,131.740887 C157.701632,139.64577 164.114985,146.053944 172.026258,146.053944 C179.93753,146.053944 186.350884,139.64577 186.350884,131.740887 C186.350884,123.836004 179.93753,117.42783 172.026258,117.42783 Z M178.383679,136.027456 C178.796718,136.386551 178.974469,136.946062 178.844325,137.477442 C178.714181,138.008822 178.297934,138.423088 177.765614,138.551022 C177.233293,138.678955 176.674038,138.499133 176.316291,138.085009 L172.026258,133.79844 L167.736224,138.085009 C167.167587,138.653186 166.245645,138.653186 165.677008,138.085009 C165.108371,137.516831 165.108371,136.595633 165.677008,136.027456 L169.967042,131.740887 L165.677008,127.454318 C165.309165,127.086772 165.165505,126.551061 165.300145,126.048983 C165.434786,125.546906 165.82727,125.154738 166.329753,125.020207 C166.832237,124.885676 167.368381,125.029219 167.736224,125.396765 L172.026258,129.683334 L176.316291,125.396765 C176.674038,124.982641 177.233293,124.802819 177.765614,124.930753 C178.297934,125.058686 178.714181,125.472952 178.844325,126.004332 C178.974469,126.535712 178.796718,127.095224 178.383679,127.454318 L174.093645,131.740887 L178.383679,136.027456 Z" id="形状" fill="url(#linearGradient-17)" fill-rule="nonzero"></path>
                <path d="M127.091221,159.215752 L127.091221,162.955273 C127.091221,162.955273 127.761283,163.894235 128.431346,163.894235 C129.101408,163.894235 129.779642,162.955273 129.779642,162.955273 L129.779642,159.215752 L127.091221,159.215752 Z" id="路径" fill="#E2AD96" fill-rule="nonzero"></path>
                <path d="M123.430393,152.406231 C123.430393,152.406231 123.234277,156.913252 124.247542,158.268624 C125.260807,159.623996 127.606025,160.11389 128.194373,160.195539 C128.78272,160.277188 131.985945,159.33006 132.598807,158.448252 C133.211669,157.566443 133.538529,152.879795 133.538529,152.879795 L128.987007,149.08312 L123.430393,152.406231 Z" id="路径" fill="#EFBA9E" fill-rule="nonzero"></path>
                <path d="M128.72552,147.588944 C128.72552,147.588944 124.247542,148.405434 123.160733,150.920221 C121.943181,152.683837 122.825702,153.296204 124.312914,153.018598 C125.800125,152.740992 127.164765,151.728545 128.660148,151.459104 C130.155531,151.189662 133.342413,155.998784 134.698881,154.986337 C135.51603,154.341311 133.881731,150.503811 132.868466,149.148439 C131.855201,147.793067 128.72552,147.588944 128.72552,147.588944 Z" id="路径" fill="#131322" fill-rule="nonzero"></path>
                <path d="M124.72966,161.036523 C124.72966,161.036523 125.228121,161.273305 128.267916,161.395778 C130.768393,161.493757 131.699943,160.709927 132.705036,161.036523 C134.927682,161.755034 143.491406,187.343808 143.491406,187.343808 L130.801079,194.912664 L114.629695,186.266042 L124.72966,161.036523 Z" id="路径" fill="#F7BC5C" fill-rule="nonzero"></path>
                <path d="M117.277259,205.755642 L120.545856,202.489684 L135.556887,202.375376 L139.340288,206.155721 C139.340288,206.155721 151.597527,191.981467 148.794705,188.192957 C143.205404,180.746574 133.432299,191.73652 129.885871,193.157212 C126.339444,194.577903 120.89723,187.956175 115.937134,186.306867 C110.478577,184.486095 108.370332,185.596521 107.667584,189.85043 C107.708441,196.880403 117.277259,205.755642 117.277259,205.755642 Z" id="路径" fill="url(#linearGradient-18)" fill-rule="nonzero"></path>
                <polygon id="路径" fill="#EFBA9E" fill-rule="nonzero" points="117.514232 204.326785 122.474328 209.282875 124.844061 209.282875 119.63882 200.783222"></polygon>
                <polygon id="路径" fill="#EFBA9E" fill-rule="nonzero" points="138.784627 204.090003 133.824531 209.046093 131.46297 209.046093 136.660039 200.54644"></polygon>
                <path d="M122.711301,208.335748 C122.711301,208.335748 119.173045,211.405747 118.699098,212.352875 C118.225152,213.300003 118.462125,213.536784 118.936072,213.773566 C119.410018,214.010348 124.370114,211.642529 124.844061,210.940349 C125.318007,210.238168 125.318007,210.230003 125.318007,209.756439 C125.318007,209.282875 123.896168,207.739711 123.896168,207.739711 L122.711301,208.335748 Z" id="路径" fill="#1B1718" fill-rule="nonzero"></path>
                <path d="M133.334241,208.335748 C133.334241,208.335748 136.872497,211.405747 137.346444,212.352875 C137.820391,213.300003 137.583417,213.536784 137.109471,213.773566 C136.635524,214.010348 131.675428,211.642529 131.201482,210.940349 C130.727535,210.238168 130.727535,210.230003 130.727535,209.756439 C130.727535,209.282875 132.149375,207.739711 132.149375,207.739711 L133.334241,208.335748 Z" id="路径" fill="#1B1718" fill-rule="nonzero"></path>
                <path d="M108.14153,193.508302 L110.748236,193.418488 C111.323152,194.486277 111.820181,195.594138 112.235448,196.733435 C112.235448,197.166174 112.668537,199.109419 112.235448,199.109419 C111.802359,199.109419 110.944352,196.733435 110.944352,196.733435 L110.723722,196.953887 L110.723722,200.399472 C110.723722,200.399472 111.156811,201.044498 110.944352,201.256786 C110.731893,201.469073 108.787078,200.187185 108.787078,200.187185 L108.14153,198.888967 L108.14153,193.508302 Z" id="路径" fill="#EFBA9E" fill-rule="nonzero"></path>
                <path d="M125.448751,161.036523 C125.448751,161.036523 122.564214,159.950592 119.320132,162.832799 C114.629695,165.747666 107.414267,193.508302 107.414267,193.508302 L111.745158,194.586068 L122.92376,165.747666 L125.448751,161.036523 Z" id="路径" fill="url(#linearGradient-19)" fill-rule="nonzero"></path>
                <path d="M148.541389,193.508302 L145.926511,193.418488 C145.351595,194.486277 144.854567,195.594138 144.439299,196.733435 C144.439299,197.166174 144.00621,199.109419 144.439299,199.109419 C144.872389,199.109419 145.738567,196.733435 145.738567,196.733435 L145.951026,196.953887 L145.951026,200.399472 C145.951026,200.399472 145.517936,201.044498 145.738567,201.256786 C145.959197,201.469073 147.887669,200.187185 147.887669,200.187185 L148.541389,198.888967 L148.541389,193.508302 Z" id="路径" fill="#EFBA9E" fill-rule="nonzero"></path>
                <path d="M131.225996,161.036523 C131.225996,161.036523 134.110533,159.950592 137.354616,162.832799 C142.045052,165.747666 149.26048,193.508302 149.26048,193.508302 L144.929589,194.586068 L133.750987,165.747666 L131.225996,161.036523 Z" id="路径" fill="url(#linearGradient-20)" fill-rule="nonzero"></path>
                <ellipse id="椭圆形" fill="url(#linearGradient-21)" fill-rule="nonzero" opacity="0.54" cx="75.692534" cy="90.8429384" rx="6.94576853" ry="6.94015899"></ellipse>
                <ellipse id="椭圆形" fill="url(#linearGradient-22)" fill-rule="nonzero" opacity="0.54" cx="186.82483" cy="31.23922" rx="3.67717157" ry="3.67420182"></ellipse>
                <ellipse id="椭圆形" fill="url(#linearGradient-23)" fill-rule="nonzero" opacity="0.54" cx="231.768039" cy="140.648785" rx="9.39721624" ry="9.38962687"></ellipse>
            </g>
        </g>
    </g>
</svg>