<?xml version="1.0" encoding="UTF-8"?>
<svg width="300px" height="244px" viewBox="0 0 300 244" version="1.1" xmlns="http://www.w3.org/2000/svg" xmlns:xlink="http://www.w3.org/1999/xlink">
    <title>资源 5</title>
    <defs>
        <linearGradient x1="-0.00821089158%" y1="49.9223602%" x2="99.9958934%" y2="49.9223602%" id="linearGradient-1">
            <stop stop-color="#F9E7A8" offset="0%"></stop>
            <stop stop-color="#F5A623" offset="100%"></stop>
        </linearGradient>
        <linearGradient x1="0%" y1="49.8768386%" x2="99.9865481%" y2="49.8768386%" id="linearGradient-2">
            <stop stop-color="#C6DFFE" offset="0%"></stop>
            <stop stop-color="#72B1FE" offset="100%"></stop>
        </linearGradient>
        <linearGradient x1="0.00374851787%" y1="50.0000273%" x2="99.9963438%" y2="50.0000273%" id="linearGradient-3">
            <stop stop-color="#C6DFFE" offset="0%"></stop>
            <stop stop-color="#72B1FE" offset="100%"></stop>
        </linearGradient>
        <linearGradient x1="6.46682808e-13%" y1="50%" x2="100%" y2="50%" id="linearGradient-4">
            <stop stop-color="#C6DFFE" offset="0%"></stop>
            <stop stop-color="#72B1FE" offset="100%"></stop>
        </linearGradient>
        <linearGradient x1="0.0108485001%" y1="49.9609761%" x2="100.008471%" y2="49.9609761%" id="linearGradient-5">
            <stop stop-color="#C6DFFE" offset="0%"></stop>
            <stop stop-color="#72B1FE" offset="100%"></stop>
        </linearGradient>
        <linearGradient x1="0%" y1="50%" x2="100%" y2="50%" id="linearGradient-6">
            <stop stop-color="#F9E7A8" offset="0%"></stop>
            <stop stop-color="#F5A623" offset="100%"></stop>
        </linearGradient>
        <linearGradient x1="34.7102261%" y1="61.3573851%" x2="58.4040028%" y2="39.014325%" id="linearGradient-7">
            <stop stop-color="#C6DFFE" offset="0%"></stop>
            <stop stop-color="#72B1FE" offset="100%"></stop>
        </linearGradient>
        <linearGradient x1="-0.0548265901%" y1="50.0076576%" x2="99.9765458%" y2="50.0076576%" id="linearGradient-8">
            <stop stop-color="#C6DFFE" offset="0%"></stop>
            <stop stop-color="#72B1FE" offset="100%"></stop>
        </linearGradient>
        <linearGradient x1="31.1679598%" y1="59.1464926%" x2="66.5329568%" y2="36.9025188%" id="linearGradient-9">
            <stop stop-color="#C6DFFE" offset="0%"></stop>
            <stop stop-color="#72B1FE" offset="100%"></stop>
        </linearGradient>
        <linearGradient x1="0.0781361852%" y1="50.2588997%" x2="100.014317%" y2="50.2588997%" id="linearGradient-10">
            <stop stop-color="#C6DFFE" offset="0%"></stop>
            <stop stop-color="#72B1FE" offset="100%"></stop>
        </linearGradient>
        <linearGradient x1="0.0103263685%" y1="49.9638039%" x2="99.8372433%" y2="49.9638039%" id="linearGradient-11">
            <stop stop-color="#C6DFFE" offset="0%"></stop>
            <stop stop-color="#72B1FE" offset="100%"></stop>
        </linearGradient>
        <linearGradient x1="-0.00816792338%" y1="49.9928234%" x2="99.9822704%" y2="49.9928234%" id="linearGradient-12">
            <stop stop-color="#C6DFFE" offset="0%"></stop>
            <stop stop-color="#72B1FE" offset="100%"></stop>
        </linearGradient>
        <linearGradient x1="-0.0226459219%" y1="50.0002851%" x2="100.143552%" y2="50.0002851%" id="linearGradient-13">
            <stop stop-color="#C6DFFE" offset="0%"></stop>
            <stop stop-color="#72B1FE" offset="100%"></stop>
        </linearGradient>
        <linearGradient x1="52.5946674%" y1="85.8042895%" x2="47.4053326%" y2="14.2091153%" id="linearGradient-14">
            <stop stop-color="#C4DEFF" offset="0%"></stop>
            <stop stop-color="#569CF4" offset="100%"></stop>
        </linearGradient>
        <linearGradient x1="52.5946674%" y1="85.8042895%" x2="47.4053326%" y2="14.2091153%" id="linearGradient-15">
            <stop stop-color="#C6DFFE" offset="0%"></stop>
            <stop stop-color="#72B1FE" offset="100%"></stop>
        </linearGradient>
        <linearGradient x1="50.0127954%" y1="100%" x2="50.0127954%" y2="0%" id="linearGradient-16">
            <stop stop-color="#C6DFFE" offset="0%"></stop>
            <stop stop-color="#72B1FE" offset="100%"></stop>
        </linearGradient>
        <linearGradient x1="50%" y1="100.029529%" x2="50%" y2="2.09816252e-14%" id="linearGradient-17">
            <stop stop-color="#C4DEFF" offset="0%"></stop>
            <stop stop-color="#569CF4" offset="100%"></stop>
        </linearGradient>
        <linearGradient x1="100.034746%" y1="50.0035507%" x2="0.0347463516%" y2="50.0035507%" id="linearGradient-18">
            <stop stop-color="#1A1114" offset="0%"></stop>
            <stop stop-color="#30231E" offset="25%"></stop>
            <stop stop-color="#4A372A" offset="50%"></stop>
            <stop stop-color="#5A372A" offset="59%"></stop>
            <stop stop-color="#60372A" offset="66%"></stop>
            <stop stop-color="#98372A" offset="98%"></stop>
        </linearGradient>
        <linearGradient x1="443.582002%" y1="50.0053629%" x2="543.233005%" y2="50.0053629%" id="linearGradient-19">
            <stop stop-color="#1A1114" offset="0%"></stop>
            <stop stop-color="#30231E" offset="25%"></stop>
            <stop stop-color="#4A372A" offset="50%"></stop>
            <stop stop-color="#5A372A" offset="59%"></stop>
            <stop stop-color="#60372A" offset="66%"></stop>
            <stop stop-color="#98372A" offset="98%"></stop>
        </linearGradient>
        <linearGradient x1="99.9816341%" y1="49.9983996%" x2="0.00433198199%" y2="49.9983996%" id="linearGradient-20">
            <stop stop-color="#F3835D" offset="0%"></stop>
            <stop stop-color="#FFC644" offset="100%"></stop>
        </linearGradient>
        <linearGradient x1="998.6933%" y1="49.9822101%" x2="1098.61896%" y2="49.9822101%" id="linearGradient-21">
            <stop stop-color="#F3835D" offset="0%"></stop>
            <stop stop-color="#FFC644" offset="100%"></stop>
        </linearGradient>
    </defs>
    <g id="页面" stroke="none" stroke-width="1" fill="none" fill-rule="evenodd">
        <g id="缺省页" transform="translate(-47.000000, -475.000000)">
            <g id="资源-5" transform="translate(47.000000, 475.000000)">
                <path d="M151.728271,0 C124.687776,-0.0627149546 98.3587244,8.65401416 76.705799,24.837944 L85.0815787,24.837944 C86.9865603,24.837944 88.8135188,25.5940838 90.1605442,26.9400213 C91.5075696,28.2859588 92.2643205,30.1114418 92.2643205,32.0148849 L92.2643205,32.0148849 L92.2643205,32.5700976 C92.2643205,36.5338126 89.0484975,39.7470385 85.0815787,39.7470385 L60.125841,39.7470385 C55.3841489,44.8479277 51.0866993,50.3437836 47.280255,56.1748031 L35.4234195,56.1748031 C31.1528089,56.179309 27.6931853,59.6397927 27.6931877,63.9069567 L27.6931877,64.339696 C27.6904251,67.7825811 29.9708457,70.8106924 33.2824885,71.7615837 L44.1996023,71.7615837 C49.0807909,71.766085 53.0366521,75.7187513 53.0411571,80.5959978 L53.0411571,80.5959978 L53.0411571,83.3557316 C53.0411571,88.2348438 49.0826582,92.1901458 44.1996023,92.1901458 L6.68428077,92.1901458 C2.75547832,93.1778206 0,96.7071477 0,100.755118 L0,101.245012 C0,106.124124 3.9584989,110.079426 8.84155476,110.079426 L28.2733637,110.079426 C27.8920273,114.009461 27.6986354,117.983043 27.6931877,122.00017 C27.6931877,189.376866 83.2593359,244 151.728271,244 C206.526299,244 253.054776,209.054258 269.438618,160.587454 L274.088198,160.587454 C275.716514,160.575986 277.110319,159.417602 277.418199,157.819907 C277.726078,156.222213 276.862413,154.629511 275.354779,154.014715 L269.634734,154.014715 C265.671005,154.014718 262.456502,150.806465 262.451992,146.845939 L262.451992,146.845939 L262.451992,146.290726 C262.451992,142.327011 265.667816,139.113785 269.634734,139.113785 L274.562144,139.113785 L274.562144,139.023972 L286.819383,139.023972 C289.955911,139.023972 292.49857,136.483366 292.49857,133.349371 C292.49857,130.215376 289.955911,127.67477 286.819383,127.67477 L275.63261,127.67477 C275.72522,125.796845 275.768801,123.891703 275.763354,121.959345 C275.780531,104.534388 271.996469,87.3150719 264.674638,71.5003071 L284.531365,71.5003071 C293.072588,71.4958023 299.995492,64.5784898 300,56.0441648 L300,55.1786861 C300,46.9877608 293.606003,40.2186765 285.422058,39.7470385 L215.465911,39.7470385 C212.41513,39.7470385 209.941982,37.2758886 209.941982,34.2275709 C209.941982,31.1792531 212.41513,28.7081032 215.465911,28.7081032 L231.661809,28.7081032 L231.253235,28.3733426 L239.310326,28.3733426 C242.094446,28.3733435 244.764416,27.2676909 246.73232,25.2998452 C248.700223,23.3319996 249.804691,20.6633257 249.802522,17.8814552 L249.802522,17.3017478 C249.804691,14.5198773 248.700223,11.8512034 246.73232,9.8833578 C244.764416,7.91551217 242.094446,6.80985955 239.310326,6.8098604 L192.691962,6.8098604 C179.509658,2.2865046 165.666232,-0.0147307424 151.728271,0 Z" id="背景" fill="#EDF0F4" opacity="0.35"></path>
                <path d="M148.721161,190.242345 C176.798409,190.242345 202.081007,192.528515 219.755945,196.186387 C237.038651,196.300696 250.962874,201.477238 250.962874,207.837689 C250.962874,212.883593 242.219377,217.178327 229.986653,218.80314 C227.061259,219.668619 223.776319,220.476943 220.180862,221.252608 C220.271984,221.734485 220.318485,222.223724 220.319778,222.714124 C220.319778,233.818379 196.148503,242.824255 166.338899,242.824255 C139.520061,242.824255 117.309945,235.533006 113.06894,225.980081 C77.285975,223.269337 51.9788585,216.58229 51.9788585,208.768487 C51.9625201,198.497052 95.2796012,190.242345 148.721161,190.242345 Z" id="形状结合" fill="url(#linearGradient-1)" opacity="0.27"></path>
                <path d="M244.131507,201.844658 C240.707651,201.844658 236.948765,197.762211 236.605562,195.010642 C236.605562,191.940643 240.364449,192.283568 240.364449,190.928196 C240.364449,189.572824 237.978373,189.564659 238.313404,188.535882 C238.648435,187.507106 240.707651,187.172345 240.364449,186.486494 C240.021246,185.800643 237.63517,186.82942 238.313404,185.122957 C238.999809,183.073569 240.364449,184.102345 239.343012,181.710032 C238.321575,179.317718 241.394057,181.710032 240.364449,179.660644 C239.343012,177.26833 238.313404,175.578197 240.364449,174.533091 C242.415493,173.487985 242.080462,181.367106 242.758696,180.681255 C243.788304,180.33833 245.152943,179.660644 245.496146,182.052957 C245.839348,184.445271 244.131507,185.122957 247.203988,185.465883 C249.941438,185.808808 246.182551,189.907584 248.233596,190.928196 C250.28464,191.948808 253.013919,194.684047 250.619672,197.46011 C248.568627,199.852424 247.203988,201.901812 244.131507,201.901812 L244.131507,201.844658 Z" id="路径" fill="url(#linearGradient-2)" fill-rule="nonzero"></path>
                <path d="M244.131507,201.84476 C244.221796,201.84476 244.308275,201.808297 244.371346,201.74374 C244.434417,201.679183 244.46874,201.591922 244.466538,201.501732 L242.415493,182.722479 C242.420076,182.63163 242.386533,182.542988 242.32294,182.477897 C242.259348,182.412806 242.171468,182.377164 242.080462,182.37944 C241.988763,182.37729 241.900146,182.412692 241.835285,182.4775 C241.770425,182.542308 241.734994,182.630854 241.737259,182.722479 L243.788304,201.501732 C243.786039,201.593357 243.82147,201.681903 243.88633,201.746711 C243.951191,201.811519 244.039808,201.846921 244.131507,201.84476 L244.131507,201.84476 Z" id="路径" fill="url(#linearGradient-3)" fill-rule="nonzero"></path>
                <path d="M243.788304,198.766493 L243.788304,198.766493 C244.131507,198.431733 244.131507,198.431733 244.131507,198.088807 L239.343012,194.324791 L238.999809,194.324791 L238.999809,194.659552 L243.788304,198.766493 Z M243.101899,191.940643 L243.101899,191.940643 L246.182551,187.498941 L246.182551,187.156015 L245.839348,187.156015 L242.758696,191.597717 L243.101899,191.940643 Z" id="形状" fill="url(#linearGradient-4)" fill-rule="nonzero"></path>
                <path d="M228.744586,201.501732 C228.744586,201.501732 230.109226,202.530509 233.533081,200.815881 C236.948765,198.766493 236.262359,197.060031 234.554517,197.745882 C232.846676,198.431733 229.774194,202.187583 229.087789,201.158807 C228.401384,200.13003 231.138834,198.088807 229.430992,196.039419 C227.72315,193.990031 228.744586,198.431733 228.058181,198.431733 C227.72315,198.431733 227.036744,196.039419 226.350339,197.060031 C225.663934,198.080642 227.379947,201.142477 227.72315,201.501732 C228.401384,201.844658 227.379947,201.844658 225.663934,201.158807 C223.956092,200.138195 223.612889,202.187583 225.328903,202.865269 C227.044916,203.542956 228.744586,201.501732 228.744586,201.501732 L228.744586,201.501732 Z" id="路径" fill="url(#linearGradient-5)" fill-rule="nonzero"></path>
                <ellipse id="椭圆形" fill="url(#linearGradient-6)" fill-rule="nonzero" opacity="0.41" cx="124.721488" cy="215.7658" rx="37.1802904" ry="6.94015899"></ellipse>
                <path d="M73.8130907,207.829524 C78.1439817,205.788301 80.4401711,205.845455 80.2767412,199.885084 C79.94171,194.373781 84.1255141,192.030457 81.4534361,188.756334 C78.7813581,185.482212 76.1419661,187.123356 76.7956855,178.868649 C77.4494048,170.613942 72.7834827,167.160193 70.0542042,166.180405 C67.3249258,165.200618 65.968458,163.175725 63.5170103,158.693199 C61.0655626,154.210672 56.6774712,157.003066 56.3179255,159.436204 C55.9583799,161.869342 58.8674312,168.050166 56.938959,171.977479 C55.0104867,175.904793 58.7612018,179.056442 61.9235693,180.958862 C65.0859369,182.861282 63.1656362,186.79676 61.4169368,189.507505 C59.7826383,192.52035 55.8930079,197.019206 58.8919456,199.37886 C61.8908833,201.738514 66.7202353,211.17713 73.8294337,207.829524 L73.8130907,207.829524 Z" id="路径" fill="url(#linearGradient-7)" fill-rule="nonzero"></path>
                <path d="M74.4341242,207.535588 C74.3521478,207.577017 74.2567424,207.582994 74.1702289,207.552121 C74.0837155,207.521249 74.0136846,207.456235 73.9765206,207.37229 L65.9112576,173.414501 C65.8697954,173.33259 65.8638133,173.237262 65.8947109,173.150819 C65.9256086,173.064375 65.9906751,172.994401 66.0746874,172.957267 C66.1570259,172.918181 66.2515438,172.913432 66.3373909,172.944067 C66.4232381,172.974702 66.493361,173.038204 66.532291,173.120564 L74.4341242,207.535588 C74.597554,207.078354 74.7446409,207.38862 74.4341242,207.535588 Z" id="路径" fill="url(#linearGradient-8)" fill-rule="nonzero"></path>
                <path d="M66.3933756,211.324098 C71.3453,208.988939 79.925367,201.526227 74.4259527,188.282771 C69.237055,174.867852 60.656988,182.306069 57.9603955,173.381841 C55.263803,164.457613 55.6233487,162.01631 48.3670634,158.636044 C41.1107782,155.255779 45.1638384,151.867348 39.9013973,147.89921 C34.6389562,143.931072 31.7299049,143.424849 28.0363904,145.172136 C24.3428758,146.919423 30.6594394,157.150034 27.2192411,161.044688 C23.7790428,164.939342 23.566584,166.155911 29.4173726,172.099953 C35.2681611,178.043995 37.5316645,178.092984 35.5705064,183.530803 C33.6093482,188.968622 35.5705064,190.715909 39.2313349,190.495457 C42.8921635,190.275005 48.5631793,190.258675 46.3977338,197.688727 C44.2322883,205.11878 45.090295,207.747875 52.2240078,210.050375 C59.3577207,212.352875 59.578351,214.508407 66.4178901,211.307769 L66.3933756,211.324098 Z" id="路径" fill="url(#linearGradient-9)" fill-rule="nonzero"></path>
                <path d="M69.735516,186.339526 L69.735516,186.339526 C69.2779125,186.176228 69.2779125,186.176228 69.1308256,185.865962 L72.5873669,175.545538 L72.8978836,175.39857 L73.0449704,175.708836 L69.7763735,186.323196 L69.735516,186.339526 Z M73.0694849,200.628089 L73.0694849,200.628089 L62.9204914,195.95777 L62.781576,195.647504 L63.0839212,195.500536 L72.8897121,200.317823 C73.2329148,200.170855 73.3800016,200.481121 73.0694849,200.628089 Z" id="形状" fill="url(#linearGradient-10)" fill-rule="nonzero"></path>
                <path d="M85.2041511,201.31394 C86.3594222,201.282527 87.4330414,200.711436 88.10417,199.771332 C88.7752986,198.831227 88.9662035,197.630996 88.6198349,196.529313 C87.9416011,193.794073 86.911993,195.165775 86.5687903,197.215164 C86.2255877,199.264552 86.911993,196.186387 84.8609484,195.508701 C82.8099038,195.165775 84.8609484,198.921626 84.1745431,199.591147 C83.1531065,199.925908 81.7884673,196.170057 80.4156566,197.87652 C79.0428459,199.582982 82.1234985,201.29761 85.2041511,201.29761 L85.2041511,201.31394 Z" id="路径" fill="url(#linearGradient-11)" fill-rule="nonzero"></path>
                <path d="M69.1961975,209.250216 C69.113859,209.289301 69.0193412,209.29405 68.933494,209.263415 C68.8476469,209.23278 68.777524,209.169278 68.738594,209.086918 L37.9974396,163.894235 C37.8503527,163.58397 37.8503527,163.58397 38.1608694,163.445166 C38.4713862,163.306363 38.4713862,163.298198 38.618473,163.608464 L69.3596274,208.792982 C69.5067142,209.103248 69.5067142,209.103248 69.1961975,209.250216 Z" id="路径" fill="url(#linearGradient-12)" fill-rule="nonzero"></path>
                <path d="M49.1024978,179.440192 C48.791981,179.578995 48.6448942,179.276894 48.4978073,178.966628 L49.3885,167.217347 C49.3885,167.217347 49.5519298,166.768278 49.6990167,167.078544 C49.6990167,167.078544 50.1484488,167.241842 49.8461036,167.380645 L49.1024978,179.440192 L49.1024978,179.440192 Z M54.1197941,186.886574 L44.7879498,187.131521 C44.7068039,187.170287 44.6134658,187.174825 44.5289369,187.144112 C44.444408,187.113399 44.3757884,187.050015 44.3385177,186.968223 C44.2970555,186.886313 44.2910734,186.790984 44.321971,186.704541 C44.3528687,186.618097 44.4179352,186.548123 44.5019475,186.510989 L53.4905892,186.41301 C54.1116226,186.127239 54.250538,186.41301 54.0871081,186.886574 L54.1197941,186.886574 Z M61.220821,197.141679 L61.220821,197.141679 C60.9103043,197.288648 60.7713889,196.978382 60.624302,196.668116 L61.9807698,184.322798 C61.9807698,184.322798 62.1441996,183.865564 62.2912865,184.17583 C62.2912865,184.17583 62.74889,184.339127 62.4383733,184.486095 L61.220821,197.141679 Z M65.3719391,203.502131 L52.5100101,203.502131 C52.1994934,203.640934 52.0524065,203.338833 52.3629232,203.191865 C52.2158364,202.881599 52.5263531,202.734631 52.6734399,203.044897 L65.2085092,203.1837 C65.519026,203.036732 65.519026,203.036732 65.3555961,203.493966 L65.3719391,203.502131 Z" id="形状" fill="url(#linearGradient-13)" fill-rule="nonzero"></path>
                <rect id="矩形" fill="url(#linearGradient-14)" fill-rule="nonzero" x="199.866532" y="146.617322" width="6.25119168" height="60.9101013"></rect>
                <rect id="矩形" fill="url(#linearGradient-15)" fill-rule="nonzero" x="202.37518" y="146.617322" width="6.25119168" height="60.9101013"></rect>
                <path d="M181.039414,95.0070338 L220.262577,95.0070338 C235.85496,95.0070338 248.495083,107.636949 248.495083,123.216739 L248.495083,145.555886 C248.495083,146.781539 248.007801,147.956992 247.140433,148.823659 C246.273066,149.690327 245.096662,150.177215 243.870019,150.177215 L157.775175,150.177215 C154.972608,150.177215 152.700678,147.907121 152.700678,145.106817 L152.700678,123.290223 C152.718715,107.664567 165.401118,95.0070338 181.039414,95.0070338 Z" id="路径" fill="url(#linearGradient-16)" fill-rule="nonzero"></path>
                <path d="M172.908779,94.8600657 L172.908779,94.8600657 C184.069405,94.8600657 193.11688,103.900234 193.11688,115.051846 L193.11688,150.160886 L155.732302,150.160886 C154.928265,150.160886 154.15716,149.841741 153.58862,149.273661 C153.020081,148.70558 152.700678,147.935098 152.700678,147.13171 L152.700678,115.051846 C152.700678,103.900234 161.748153,94.8600657 172.908779,94.8600657 L172.908779,94.8600657 Z" id="路径" fill="url(#linearGradient-17)" fill-rule="nonzero"></path>
                <path d="M173.02318,99.3834164 L173.02318,99.3834164 C182.360557,99.3834164 189.929998,106.946743 189.929998,116.27658 L189.929998,145.792668 L156.075505,145.792668 L156.075505,116.27658 C156.075505,106.946743 163.644945,99.3834164 172.982322,99.3834164 L173.02318,99.3834164 Z" id="路径" fill="#5D98F9" fill-rule="nonzero"></path>
                <g id="编组" opacity="0.5" transform="translate(162.882358, 50.320575)">
                    <line x1="0.196115817" y1="0.302101038" x2="0.621033421" y2="0.514388255" id="路径" stroke="#A4A4A5" stroke-width="0.58"></line>
                    <path d="M1.46269714,0.914468008 C7.18274181,3.82116989 30.1854929,16.1419933 30.9862991,25.6459287 C31.6563615,33.4515663 26.271348,34.8722577 20.6983902,32.3493058 C16.8904748,30.6265134 13.9814235,19.979493 21.8914281,17.6524985 C28.3305641,15.8153976 41.7890121,27.2462477 47.3619699,31.6063005" id="路径" stroke="#A4A4A5" stroke-width="0.58" stroke-dasharray="1.16"></path>
                    <line x1="47.729687" y1="31.9002367" x2="48.1055757" y2="32.1860079" id="路径" stroke="#A4A4A5" stroke-width="0.58"></line>
                    <path d="M47.9421458,32.0635345 C47.9037974,31.279685 48.1312461,30.5058333 48.5876937,29.8671783 C48.5859171,31.0159668 48.893572,32.144064 49.4783864,33.1331355 C48.341309,32.9230442 47.1696344,33.0016542 46.0708741,33.3617525 C46.5425427,32.7432219 47.1973173,32.2889639 47.9421458,32.0635345 L47.9421458,32.0635345 Z" id="路径" fill="#A4A4A5" fill-rule="nonzero"></path>
                </g>
                <path d="M110.584806,198.839977 C110.584806,198.839977 107.659412,202.734631 110.356005,205.649498 C111.173154,209.731944 103.622695,210.899524 101.816795,203.044897 C103.035062,201.039687 103.866556,198.824163 104.268243,196.512983 C106.279846,197.522696 108.398671,198.303262 110.584806,198.839977 Z" id="路径" fill="#FBBEBE" fill-rule="nonzero"></path>
                <path d="M102.045597,202.628488 C102.859127,203.258558 103.474567,204.108709 103.818811,205.077955 C104.497045,206.661945 106.997521,208.825641 109.767657,207.453939 C109.90687,206.843332 110.103872,206.247335 110.356005,205.673993 C111.975875,207.459092 113.888086,208.955598 116.010677,210.099365 C119.025958,211.544551 117.097486,213.716412 116.198622,214.181811 C115.299758,214.64721 111.761501,215.308566 109.334568,213.536784 C106.907635,211.765003 105.518481,211.707848 104.260071,211.838487 C103.001662,211.969125 99.806608,211.952795 98.5400267,207.829524 C99.0303162,206.539471 99.3571759,206.555801 99.3571759,206.555801 C99.3571759,206.555801 99.3408329,204.70237 102.045597,202.628488 Z" id="路径" fill="#333333" fill-rule="nonzero"></path>
                <path d="M98.5645412,207.796865 C99.0548307,206.506812 99.3816904,206.523136 99.3816904,206.523136 C99.6023207,209.544152 103.230463,210.891359 105.420423,211.168966 C107.610383,211.446572 108.68902,212.148753 110.936181,213.357157 C113.183341,214.565561 117.015771,213.47963 117.015771,213.47963 L117.015771,213.47963 C116.785815,213.750003 116.509016,213.976795 116.198622,214.149151 C115.307929,214.61455 111.761501,215.275907 109.334568,213.504125 C106.907635,211.732343 105.518481,211.675189 104.260071,211.805827 C103.001662,211.936465 99.806608,211.920136 98.5645412,207.796865 Z" id="路径" fill="#333333" fill-rule="nonzero"></path>
                <path d="M147.201264,130.524318 C147.201264,130.524318 151.515812,128.132004 153.174625,127.756419 C154.833438,127.380834 157.464658,128.368786 158.747583,128.630063 C159.17255,128.744943 159.581547,128.91225 159.965135,129.128121 C161.053603,129.486137 162.161196,129.783256 163.282761,130.018095 C163.928309,129.97727 163.805736,130.687616 163.119331,130.883573 C163.401221,131.052398 163.699676,131.191929 164.010024,131.299983 C164.97426,131.651073 164.402255,132.116472 164.075396,132.116472 C163.619882,132.068475 163.168986,131.98383 162.727099,131.863361 C163.030036,132.282122 163.393549,132.653596 163.805736,132.965621 C164.328712,133.300382 163.397162,133.46368 163.078474,133.373866 C162.408411,133.153414 161.166344,131.740887 160.627026,131.740887 C161.06319,132.277532 161.365652,132.909952 161.509547,133.586153 C161.574919,134.231179 161.509547,134.737403 161.599433,135.047669 C161.68932,135.357935 160.913028,135.235461 160.700569,134.737403 C160.48811,134.239344 160.700569,133.651472 160.406396,133.341206 C160.038195,132.904151 159.52472,132.614287 158.960041,132.524717 C158.322665,132.475727 156.206248,132.100142 155.372756,130.891738 C155.217498,130.687616 154.833438,130.736605 153.738458,131.92868 C152.643478,133.120754 149.448424,136.419371 149.448424,136.419371 L147.201264,130.524318 Z" id="路径" fill="#FBBEBE" fill-rule="nonzero"></path>
                <path d="M136.954212,205.943434 C136.954212,205.943434 135.4098,210.344311 137.942963,212.238567 C140.100237,215.81479 133.448642,219.497156 129.036036,212.752955 C129.518154,211.021997 130.670335,208.621519 130.024787,205.404551 C134.322992,205.829126 136.954212,205.943434 136.954212,205.943434 Z" id="路径" fill="#FBBEBE" fill-rule="nonzero"></path>
                <path d="M129.10958,212.287556 C130.082253,212.581661 130.95007,213.148404 131.610056,213.920534 C132.803094,215.169763 135.891918,216.370002 138.024678,214.091997 C137.94089,213.469745 137.916265,212.840963 137.951134,212.214072 C140.089463,213.330918 142.402262,214.07638 144.790674,214.418593 C148.124642,214.728859 147.062348,217.431438 146.384115,218.174444 C145.705881,218.917449 142.608885,220.762715 139.716177,219.946225 C136.823469,219.129736 135.499687,219.546146 134.363849,220.101358 C133.228012,220.656571 130.220903,221.734337 127.638711,218.305082 C127.638711,216.925215 127.949228,216.827236 127.949228,216.827236 C127.949228,216.827236 127.279165,215.161598 129.10958,212.287556 Z" id="路径" fill="#333333" fill-rule="nonzero"></path>
                <path d="M127.63054,218.329577 C127.63054,216.94971 127.941056,216.851731 127.941056,216.851731 C129.199466,219.611465 133.064582,219.627795 135.221856,219.129736 C137.37913,218.631678 138.613025,218.925614 141.154359,219.276704 C143.695694,219.627795 146.874404,217.292635 146.874404,217.292635 L146.874404,217.292635 C146.758244,217.624715 146.580861,217.932116 146.351429,218.198938 C145.673195,218.950108 142.576199,220.787209 139.683491,219.97072 C136.790783,219.154231 135.467001,219.57064 134.331163,220.125853 C133.195326,220.681066 130.212731,221.775161 127.63054,218.329577 Z" id="路径" fill="#333333" fill-rule="nonzero"></path>
                <path d="M112.766595,132.66352 C112.766595,132.66352 111.181325,135.480408 110.535778,144.257668 C109.89023,153.034928 113.714488,173.790086 111.083268,179.15442 C108.452047,184.518755 102.960804,198.603195 102.960804,198.603195 C102.960804,198.603195 104.292757,203.845057 110.405034,202.171254 C114.033176,193.516467 119.646992,185.612851 121.166889,180.477133 C122.686787,175.341415 126.478359,143.139078 126.478359,143.139078 L112.766595,132.66352 Z" id="路径" fill="url(#linearGradient-18)" fill-rule="nonzero"></path>
                <path d="M118.184294,141.08969 C118.184294,141.08969 118.895214,144.567934 120.635742,153.190061 C122.37627,161.812188 132.696865,180.754739 131.610056,186.666122 C130.523248,192.577504 129.10958,207.543753 129.10958,207.543753 C129.10958,207.543753 131.806172,212.230402 137.281072,208.972609 C138.433253,199.664631 141.710021,190.536281 141.783564,185.180111 C141.857108,179.823942 135.646774,143.318705 135.646774,143.318705 L118.184294,141.08969 Z" id="路径" fill="url(#linearGradient-19)" fill-rule="nonzero"></path>
                <path d="M133.783673,81.3553328 C135.728489,82.3106253 137.624275,85.7562101 137.093128,89.0629918 C137.583417,90.0019545 138.890856,96.4113954 135.949119,98.8118739 C135.050255,99.5058898 133.007382,98.8118739 132.55795,99.4242409 C132.108517,100.036608 131.168796,103.996581 131.168796,103.996581 L123.986054,101.098044 C123.986054,101.098044 125.742925,98.1586825 125.007491,96.0358103 C124.272056,93.9129382 120.921744,91.6757575 121.861466,87.1850664 C122.801188,82.6943753 126.927791,77.9669023 133.783673,81.3553328 Z" id="路径" fill="#FBBEBE" fill-rule="nonzero"></path>
                <path d="M135.744832,85.6337367 C135.744832,85.6337367 138.727426,85.8378591 138.318852,81.0287371 C137.746847,81.1512105 135.51603,78.1955193 131.945088,79.2324607 C132.108517,78.4159714 124.795032,79.6896947 122.392613,82.9883114 C119.990194,86.2869282 121.534606,90.5245076 122.310898,91.6839224 C123.08719,92.8433372 124.819546,97.7341081 128.096315,96.6971667 C129.305696,96.3134167 132.01046,92.6147202 133.505843,90.5245076 C134.143219,89.6345343 134.927682,92.6228851 135.434315,91.6839224 C135.581402,91.4144809 134.919511,88.4751195 135.050255,88.2138429 C135.480813,87.4200291 135.718729,86.5362562 135.744832,85.6337367 L135.744832,85.6337367 Z" id="路径" fill="#333333" fill-rule="nonzero"></path>
                <path d="M126.805219,103.261741 C123.08719,102.17581 115.700161,100.322379 113.820717,103.669985 C111.941274,107.017591 103.124234,125.527404 112.268134,124.792563 C112.021225,128.569393 111.474744,132.320689 110.633835,136.011126 C110.225261,137.644105 111.818702,140.379344 116.35388,142.747163 C120.889058,145.114982 129.379239,148.209476 135.663117,143.318705 C136.807126,142.298094 136.970555,141.8082 136.847983,140.583466 C136.725411,139.358732 135.663117,131.602084 136.112549,124.751739 C137.2157,130.712111 138.482281,140.991711 144.153297,139.685328 C149.824313,138.378945 150.200202,137.113387 150.322774,135.970302 C150.445346,134.827217 149.914199,129.854797 146.809032,130.099744 C146.277885,130.222217 145.991883,130.263041 145.991883,130.263041 C145.991883,130.263041 142.396426,113.051447 140.598698,111.295995 C138.80097,109.540543 132.271947,104.84573 126.805219,103.261741 Z" id="路径" fill="url(#linearGradient-20)" fill-rule="nonzero"></path>
                <path d="M133.538529,106.299081 C133.762244,105.532873 133.640915,104.707304 133.206189,104.037707 C132.771462,103.36811 132.066444,102.920881 131.275025,102.812671 C128.251573,102.241129 125.448751,100.983735 124.460001,100.150916 C123.822624,100.077432 122.743987,100.665305 122.825702,102.829001 C123.095361,103.34339 125.677553,105.417272 131.446627,105.147831 C132.28829,105.5969 133.538529,106.299081 133.538529,106.299081 Z" id="路径" fill="url(#linearGradient-21)" fill-rule="nonzero"></path>
                <path d="M166.420614,41.4453362 C165.930324,41.4453362 164.475799,43.3967456 166.420614,45.3399901 C168.365429,47.2832346 171.54414,45.9523571 170.318416,45.3399901 C168.373601,44.3683679 166.910903,41.4453362 166.420614,41.4453362 Z" id="路径" fill="#E0E0E0"></path>
                <path d="M166.420614,41.6412936 C166.355325,42.6987638 166.729548,43.736303 167.454961,44.5090406 C168.180375,45.2817783 169.19271,45.7212516 170.253044,45.7237401" id="路径" stroke="#FFFFFF" stroke-width="0.3" stroke-linecap="round"></path>
                <path d="M166.420614,75.4357855 C165.930324,75.4357855 164.475799,77.3871949 166.420614,79.3304394 C168.365429,81.2736839 171.54414,79.9428064 170.318416,79.3304394 C168.373601,78.3833118 166.910903,75.4357855 166.420614,75.4357855 Z" id="路径" fill="#E0E0E0"></path>
                <path d="M166.420614,75.6562376 C166.355325,76.7137078 166.729548,77.7512469 167.454961,78.5239846 C168.180375,79.2967222 169.19271,79.7361955 170.253044,79.738684" id="路径" stroke="#FFFFFF" stroke-width="0.3" stroke-linecap="round"></path>
            </g>
        </g>
    </g>
</svg>