<?xml version="1.0" encoding="UTF-8"?>
<svg width="300px" height="244px" viewBox="0 0 300 244" version="1.1" xmlns="http://www.w3.org/2000/svg" xmlns:xlink="http://www.w3.org/1999/xlink">
    <title>资源 3</title>
    <defs>
        <linearGradient x1="-0.00821089158%" y1="49.9223602%" x2="99.9958934%" y2="49.9223602%" id="linearGradient-1">
            <stop stop-color="#F9E7A8" offset="0%"></stop>
            <stop stop-color="#F5A623" offset="100%"></stop>
        </linearGradient>
        <linearGradient x1="31.1938813%" y1="59.1215651%" x2="66.5588783%" y2="36.8775913%" id="linearGradient-2">
            <stop stop-color="#C6DFFE" offset="0%"></stop>
            <stop stop-color="#72B1FE" offset="100%"></stop>
        </linearGradient>
        <linearGradient x1="-0.00816792338%" y1="49.9928234%" x2="99.9822704%" y2="49.9928234%" id="linearGradient-3">
            <stop stop-color="#C6DFFE" offset="0%"></stop>
            <stop stop-color="#72B1FE" offset="100%"></stop>
        </linearGradient>
        <linearGradient x1="-0.0226459219%" y1="50.0002851%" x2="100.143552%" y2="50.0002851%" id="linearGradient-4">
            <stop stop-color="#C6DFFE" offset="0%"></stop>
            <stop stop-color="#72B1FE" offset="100%"></stop>
        </linearGradient>
        <linearGradient x1="-665.774096%" y1="347.972202%" x2="-560.618135%" y2="347.972202%" id="linearGradient-5">
            <stop stop-color="#C6DFFE" offset="0%"></stop>
            <stop stop-color="#72B1FE" offset="100%"></stop>
        </linearGradient>
        <linearGradient x1="-0.0548265901%" y1="50.0076576%" x2="99.9765458%" y2="50.0076576%" id="linearGradient-6">
            <stop stop-color="#C6DFFE" offset="0%"></stop>
            <stop stop-color="#72B1FE" offset="100%"></stop>
        </linearGradient>
        <linearGradient x1="0.0781361852%" y1="50.2588997%" x2="100.014317%" y2="50.2588997%" id="linearGradient-7">
            <stop stop-color="#C6DFFE" offset="0%"></stop>
            <stop stop-color="#72B1FE" offset="100%"></stop>
        </linearGradient>
        <linearGradient x1="0.0103263685%" y1="49.9638039%" x2="99.8372433%" y2="49.9638039%" id="linearGradient-8">
            <stop stop-color="#C6DFFE" offset="0%"></stop>
            <stop stop-color="#72B1FE" offset="100%"></stop>
        </linearGradient>
        <linearGradient x1="0%" y1="49.8768386%" x2="99.9865481%" y2="49.8768386%" id="linearGradient-9">
            <stop stop-color="#C6DFFE" offset="0%"></stop>
            <stop stop-color="#72B1FE" offset="100%"></stop>
        </linearGradient>
        <linearGradient x1="0.00374851787%" y1="50.0000273%" x2="99.9963438%" y2="50.0000273%" id="linearGradient-10">
            <stop stop-color="#C6DFFE" offset="0%"></stop>
            <stop stop-color="#72B1FE" offset="100%"></stop>
        </linearGradient>
        <linearGradient x1="6.46682808e-13%" y1="50%" x2="100%" y2="50%" id="linearGradient-11">
            <stop stop-color="#C6DFFE" offset="0%"></stop>
            <stop stop-color="#72B1FE" offset="100%"></stop>
        </linearGradient>
        <linearGradient x1="0.0108485001%" y1="49.9609761%" x2="100.008471%" y2="49.9609761%" id="linearGradient-12">
            <stop stop-color="#C6DFFE" offset="0%"></stop>
            <stop stop-color="#72B1FE" offset="100%"></stop>
        </linearGradient>
        <linearGradient x1="0%" y1="50%" x2="100%" y2="50%" id="linearGradient-13">
            <stop stop-color="#F9E7A8" offset="0%"></stop>
            <stop stop-color="#F5A623" offset="100%"></stop>
        </linearGradient>
        <linearGradient x1="50%" y1="-0.863155343%" x2="50%" y2="101.29511%" id="linearGradient-14">
            <stop stop-color="#C6DFFE" offset="0%"></stop>
            <stop stop-color="#72B1FE" offset="100%"></stop>
        </linearGradient>
        <linearGradient x1="49.7807192%" y1="-1.12601239%" x2="49.7807192%" y2="101.615862%" id="linearGradient-15">
            <stop stop-color="#C6DFFE" offset="0%"></stop>
            <stop stop-color="#72B1FE" offset="100%"></stop>
        </linearGradient>
        <linearGradient x1="50.0258398%" y1="-1.27446181%" x2="50.0258398%" y2="101.704957%" id="linearGradient-16">
            <stop stop-color="#BFD4FA" offset="0%"></stop>
            <stop stop-color="#5792F0" offset="100%"></stop>
        </linearGradient>
        <linearGradient x1="4.81397517e-14%" y1="50%" x2="100%" y2="50%" id="linearGradient-17">
            <stop stop-color="#BFD4FA" offset="0%"></stop>
            <stop stop-color="#5792F0" offset="100%"></stop>
        </linearGradient>
        <linearGradient x1="104.455665%" y1="25.5506821%" x2="5.45566502%" y2="37.5439439%" id="linearGradient-18">
            <stop stop-color="#C6DFFE" offset="0%"></stop>
            <stop stop-color="#72B1FE" offset="100%"></stop>
        </linearGradient>
        <linearGradient x1="80.4970139%" y1="34.9391647%" x2="46.4460903%" y2="67.9580247%" id="linearGradient-19">
            <stop stop-color="#C6DFFE" offset="0%"></stop>
            <stop stop-color="#72B1FE" offset="100%"></stop>
        </linearGradient>
        <linearGradient x1="103.182266%" y1="25.6400743%" x2="4.18226601%" y2="37.6208494%" id="linearGradient-20">
            <stop stop-color="#C6DFFE" offset="0%"></stop>
            <stop stop-color="#72B1FE" offset="100%"></stop>
        </linearGradient>
        <linearGradient x1="60.8318004%" y1="37.8451312%" x2="43.5700257%" y2="45.267774%" id="linearGradient-21">
            <stop stop-color="#C6DFFE" offset="0%"></stop>
            <stop stop-color="#72B1FE" offset="100%"></stop>
        </linearGradient>
        <linearGradient x1="105.837982%" y1="5.25123153%" x2="14.1041546%" y2="43.1576355%" id="linearGradient-22">
            <stop stop-color="#C6DFFE" offset="0%"></stop>
            <stop stop-color="#72B1FE" offset="100%"></stop>
        </linearGradient>
        <linearGradient x1="65.5241173%" y1="42.5519872%" x2="55.2103509%" y2="61.7009031%" id="linearGradient-23">
            <stop stop-color="#C6DFFE" offset="0%"></stop>
            <stop stop-color="#72B1FE" offset="100%"></stop>
        </linearGradient>
        <linearGradient x1="99.9728332%" y1="49.9579479%" x2="-0.0594722387%" y2="49.9579479%" id="linearGradient-24">
            <stop stop-color="#1A1114" offset="0%"></stop>
            <stop stop-color="#30231E" offset="25%"></stop>
            <stop stop-color="#4A372A" offset="50%"></stop>
            <stop stop-color="#5A372A" offset="59%"></stop>
            <stop stop-color="#60372A" offset="66%"></stop>
            <stop stop-color="#98372A" offset="98%"></stop>
        </linearGradient>
        <linearGradient x1="83.0276759%" y1="50%" x2="183.094365%" y2="50%" id="linearGradient-25">
            <stop stop-color="#1A1114" offset="0%"></stop>
            <stop stop-color="#30231E" offset="25%"></stop>
            <stop stop-color="#4A372A" offset="50%"></stop>
            <stop stop-color="#5A372A" offset="59%"></stop>
            <stop stop-color="#60372A" offset="66%"></stop>
            <stop stop-color="#98372A" offset="98%"></stop>
        </linearGradient>
        <linearGradient x1="99.9568678%" y1="50.0379262%" x2="-0.0524131962%" y2="50.0379262%" id="linearGradient-26">
            <stop stop-color="#F3835D" offset="0%"></stop>
            <stop stop-color="#FFC644" offset="100%"></stop>
        </linearGradient>
        <linearGradient x1="1.1259156%" y1="49.9839173%" x2="99.1259045%" y2="49.9839173%" id="linearGradient-27">
            <stop stop-color="#EAF2FD" offset="0%"></stop>
            <stop stop-color="#C4DFFD" offset="100%"></stop>
        </linearGradient>
        <linearGradient x1="0.373412995%" y1="49.4419643%" x2="100.074683%" y2="49.4419643%" id="linearGradient-28">
            <stop stop-color="#EAF2FD" offset="0%"></stop>
            <stop stop-color="#C4DFFD" offset="100%"></stop>
        </linearGradient>
        <linearGradient x1="50.28826%" y1="100%" x2="50.28826%" y2="-1.25216912%" id="linearGradient-29">
            <stop stop-color="#EAF2FD" offset="0%"></stop>
            <stop stop-color="#C4DFFD" offset="100%"></stop>
        </linearGradient>
    </defs>
    <g id="页面" stroke="none" stroke-width="1" fill="none" fill-rule="evenodd">
        <g id="缺省页" transform="translate(-856.000000, -71.000000)">
            <g id="资源-3" transform="translate(856.000000, 71.000000)">
                <path d="M151.728271,0 C124.687776,-0.0627149546 98.3587244,8.65401416 76.705799,24.837944 L85.0815787,24.837944 C86.9865603,24.837944 88.8135188,25.5940838 90.1605442,26.9400213 C91.5075696,28.2859588 92.2643205,30.1114418 92.2643205,32.0148849 L92.2643205,32.0148849 L92.2643205,32.5700976 C92.2643205,36.5338126 89.0484975,39.7470385 85.0815787,39.7470385 L60.125841,39.7470385 C55.3841489,44.8479277 51.0866993,50.3437836 47.280255,56.1748031 L35.4234195,56.1748031 C31.1528089,56.179309 27.6931853,59.6397927 27.6931877,63.9069567 L27.6931877,64.339696 C27.6904251,67.7825811 29.9708457,70.8106924 33.2824885,71.7615837 L44.1996023,71.7615837 C49.0807909,71.766085 53.0366521,75.7187513 53.0411571,80.5959978 L53.0411571,80.5959978 L53.0411571,83.3557316 C53.0411571,88.2348438 49.0826582,92.1901458 44.1996023,92.1901458 L6.68428077,92.1901458 C2.75547832,93.1778206 0,96.7071477 0,100.755118 L0,101.245012 C0,106.124124 3.9584989,110.079426 8.84155476,110.079426 L28.2733637,110.079426 C27.8920273,114.009461 27.6986354,117.983043 27.6931877,122.00017 C27.6931877,189.376866 83.2593359,244 151.728271,244 C206.526299,244 253.054776,209.054258 269.438618,160.587454 L274.088198,160.587454 C275.716514,160.575986 277.110319,159.417602 277.418199,157.819907 C277.726078,156.222213 276.862413,154.629511 275.354779,154.014715 L269.634734,154.014715 C265.671005,154.014718 262.456502,150.806465 262.451992,146.845939 L262.451992,146.845939 L262.451992,146.290726 C262.451992,142.327011 265.667816,139.113785 269.634734,139.113785 L274.562144,139.113785 L274.562144,139.023972 L286.819383,139.023972 C289.955911,139.023972 292.49857,136.483366 292.49857,133.349371 C292.49857,130.215376 289.955911,127.67477 286.819383,127.67477 L275.63261,127.67477 C275.72522,125.796845 275.768801,123.891703 275.763354,121.959345 C275.780531,104.534388 271.996469,87.3150719 264.674638,71.5003071 L284.531365,71.5003071 C293.072588,71.4958023 299.995492,64.5784898 300,56.0441648 L300,55.1786861 C300,46.9877608 293.606003,40.2186765 285.422058,39.7470385 L215.465911,39.7470385 C212.41513,39.7470385 209.941982,37.2758886 209.941982,34.2275709 C209.941982,31.1792531 212.41513,28.7081032 215.465911,28.7081032 L231.661809,28.7081032 L231.253235,28.3733426 L239.310326,28.3733426 C242.094446,28.3733435 244.764416,27.2676909 246.73232,25.2998452 C248.700223,23.3319996 249.804691,20.6633257 249.802522,17.8814552 L249.802522,17.3017478 C249.804691,14.5198773 248.700223,11.8512034 246.73232,9.8833578 C244.764416,7.91551217 242.094446,6.80985955 239.310326,6.8098604 L192.691962,6.8098604 C179.509658,2.2865046 165.666232,-0.0147307424 151.728271,0 Z" id="背景" fill="#EDF0F4" opacity="0.35"></path>
                <path d="M148.721161,190.242345 C176.798409,190.242345 202.081007,192.528515 219.755945,196.186387 C237.038651,196.300696 250.962874,201.477238 250.962874,207.837689 C250.962874,212.883593 242.219377,217.178327 229.986653,218.80314 C227.061259,219.668619 223.776319,220.476943 220.180862,221.252608 C220.271984,221.734485 220.318485,222.223724 220.319778,222.714124 C220.319778,233.818379 196.148503,242.824255 166.338899,242.824255 C139.520061,242.824255 117.309945,235.533006 113.06894,225.980081 C77.285975,223.269337 51.9788585,216.58229 51.9788585,208.768487 C51.9625201,198.497052 95.2796012,190.242345 148.721161,190.242345 Z" id="形状结合" fill="url(#linearGradient-1)" opacity="0.27"></path>
                <path d="M76.1991665,214.590056 C81.1510909,212.254896 89.7311579,204.792184 84.2317435,191.548728 C79.0428459,178.133809 70.4627789,185.572026 67.7661864,176.647798 C65.0695939,167.72357 65.4291395,165.282267 58.1728543,161.902002 C50.9165691,158.521736 54.9696293,155.133305 49.7071882,151.165167 C44.4447471,147.197029 41.5356958,146.690806 37.8421812,148.438093 C34.1486667,150.18538 40.4652303,160.415991 37.025032,164.310645 C33.5848337,168.205299 33.3723749,169.421868 39.2231635,175.36591 C45.073952,181.309952 47.3374554,181.358941 45.3762972,186.79676 C43.4151391,192.234579 45.3762972,193.981866 49.0371258,193.761414 C52.6979544,193.540962 58.3689701,193.524632 56.2035246,200.954684 C54.0380792,208.384737 54.8960859,211.013833 62.0297987,213.316332 C69.1635116,215.618832 69.3841419,217.774364 76.223681,214.573726 L76.1991665,214.590056 Z" id="路径" fill="url(#linearGradient-2)" fill-rule="nonzero"></path>
                <path d="M79.0019884,212.516173 C78.9196499,212.555258 78.8251321,212.560007 78.7392849,212.529372 C78.6534377,212.498737 78.5833148,212.435235 78.5443848,212.352875 L47.8032305,167.160193 C47.6561436,166.849927 47.6561436,166.849927 47.9666603,166.711124 C48.277177,166.57232 48.277177,166.564155 48.4242639,166.874421 L79.1654182,212.058939 C79.3125051,212.369205 79.3125051,212.369205 79.0019884,212.516173 Z" id="路径" fill="url(#linearGradient-3)" fill-rule="nonzero"></path>
                <path d="M58.9082886,182.706149 C58.5977719,182.844952 58.450685,182.542851 58.3035982,182.232585 L59.1942909,170.483304 C59.1942909,170.483304 59.3577207,170.034235 59.5048076,170.344501 C59.5048076,170.344501 59.9542396,170.507799 59.6518944,170.646602 L58.9082886,182.706149 L58.9082886,182.706149 Z M63.9255849,190.152531 L54.5937406,190.397478 C54.5125948,190.436245 54.4192567,190.440782 54.3347278,190.410069 C54.2501989,190.379356 54.1815792,190.315973 54.1443086,190.23418 C54.1028463,190.15227 54.0968642,190.056942 54.1277619,189.970498 C54.1586595,189.884054 54.2237261,189.81408 54.3077384,189.776946 L63.29638,189.678967 C63.9174135,189.393196 64.0563288,189.678967 63.892899,190.152531 L63.9255849,190.152531 Z M71.0266118,200.407637 L71.0266118,200.407637 C70.7160951,200.554605 70.5771797,200.244339 70.4300929,199.934073 L71.7865606,187.588755 C71.7865606,187.588755 71.9499905,187.131521 72.0970773,187.441787 C72.0970773,187.441787 72.5546809,187.605085 72.2441642,187.752053 L71.0266118,200.407637 Z M75.17773,206.768088 L62.3158009,206.768088 C62.0052842,206.906891 61.8581974,206.60479 62.1687141,206.457822 C62.0216272,206.147556 62.3321439,206.000588 62.4792308,206.310854 L75.0143001,206.449657 C75.3248168,206.302689 75.3248168,206.302689 75.161387,206.759923 L75.17773,206.768088 Z" id="形状" fill="url(#linearGradient-4)" fill-rule="nonzero"></path>
                <path d="M83.6188816,211.095481 C87.9497726,209.054258 90.2459619,209.111413 90.0825321,203.151041 C89.7475009,197.639738 93.931305,195.296414 91.259227,192.022292 C88.587149,188.74817 85.9477569,190.389313 86.6014763,182.134606 C87.2551957,173.8799 82.5892736,170.42615 79.8599951,169.446363 C77.1307166,168.466576 75.7742489,166.441682 73.3228012,161.959156 C70.8713535,157.47663 66.4832621,160.269023 66.1237164,162.702161 C65.7641707,165.135299 68.673222,171.316123 66.7447498,175.243437 C64.8162776,179.17075 68.5669926,182.322399 71.7293602,184.224819 C74.8917277,186.127239 72.971427,190.062717 71.2227276,192.773462 C69.5884292,195.786307 65.6987988,200.285163 68.6977365,202.644817 C71.6966742,205.004471 76.5260262,214.443088 83.6352246,211.095481 L83.6188816,211.095481 Z" id="路径" fill="url(#linearGradient-5)" fill-rule="nonzero"></path>
                <path d="M84.239915,210.801545 C84.1579387,210.842974 84.0625332,210.848951 83.9760198,210.818079 C83.8895064,210.787206 83.8194754,210.722192 83.7823114,210.638247 L75.7170485,176.680458 C75.6755862,176.598548 75.6696041,176.503219 75.7005018,176.416776 C75.7313994,176.330332 75.796466,176.260358 75.8804783,176.223224 C75.9628168,176.184139 76.0573346,176.17939 76.1431818,176.210025 C76.229029,176.24066 76.2991519,176.304161 76.3380819,176.386522 L84.239915,210.801545 C84.4033449,210.344311 84.5504317,210.654577 84.239915,210.801545 Z" id="路径" fill="url(#linearGradient-6)" fill-rule="nonzero"></path>
                <path d="M79.5413069,189.605483 L79.5413069,189.605483 C79.0837033,189.442185 79.0837033,189.442185 78.9366165,189.13192 L82.3931577,178.811495 L82.7036744,178.664527 L82.8507613,178.974793 L79.5821644,189.589154 L79.5413069,189.605483 Z M82.8752758,203.894046 L82.8752758,203.894046 L72.7262822,199.223727 L72.5873669,198.913461 L72.8897121,198.766493 L82.695503,203.58378 C83.0387056,203.436812 83.1857925,203.747078 82.8752758,203.894046 Z" id="形状" fill="url(#linearGradient-7)" fill-rule="nonzero"></path>
                <path d="M104.815733,217.643726 C105.971004,217.612313 107.044623,217.041222 107.715752,216.101118 C108.38688,215.161013 108.577785,213.960781 108.231417,212.859098 C107.553183,210.123859 106.523575,211.495561 106.180372,213.544949 C105.837169,215.594337 106.523575,212.516173 104.47253,211.838487 C102.421486,211.495561 104.47253,215.251412 103.786125,215.920933 C102.764688,216.255694 101.400049,212.499843 100.027238,214.206306 C98.6544276,215.912768 101.73508,217.627396 104.815733,217.627396 L104.815733,217.643726 Z" id="路径" fill="url(#linearGradient-8)" fill-rule="nonzero"></path>
                <path d="M244.131507,201.844658 C240.707651,201.844658 236.948765,197.762211 236.605562,195.010642 C236.605562,191.940643 240.364449,192.283568 240.364449,190.928196 C240.364449,189.572824 237.978373,189.564659 238.313404,188.535882 C238.648435,187.507106 240.707651,187.172345 240.364449,186.486494 C240.021246,185.800643 237.63517,186.82942 238.313404,185.122957 C238.999809,183.073569 240.364449,184.102345 239.343012,181.710032 C238.321575,179.317718 241.394057,181.710032 240.364449,179.660644 C239.343012,177.26833 238.313404,175.578197 240.364449,174.533091 C242.415493,173.487985 242.080462,181.367106 242.758696,180.681255 C243.788304,180.33833 245.152943,179.660644 245.496146,182.052957 C245.839348,184.445271 244.131507,185.122957 247.203988,185.465883 C249.941438,185.808808 246.182551,189.907584 248.233596,190.928196 C250.28464,191.948808 253.013919,194.684047 250.619672,197.46011 C248.568627,199.852424 247.203988,201.901812 244.131507,201.901812 L244.131507,201.844658 Z" id="路径" fill="url(#linearGradient-9)" fill-rule="nonzero"></path>
                <path d="M244.131507,201.84476 C244.221796,201.84476 244.308275,201.808297 244.371346,201.74374 C244.434417,201.679183 244.46874,201.591922 244.466538,201.501732 L242.415493,182.722479 C242.420076,182.63163 242.386533,182.542988 242.32294,182.477897 C242.259348,182.412806 242.171468,182.377164 242.080462,182.37944 C241.988763,182.37729 241.900146,182.412692 241.835285,182.4775 C241.770425,182.542308 241.734994,182.630854 241.737259,182.722479 L243.788304,201.501732 C243.786039,201.593357 243.82147,201.681903 243.88633,201.746711 C243.951191,201.811519 244.039808,201.846921 244.131507,201.84476 L244.131507,201.84476 Z" id="路径" fill="url(#linearGradient-10)" fill-rule="nonzero"></path>
                <path d="M243.788304,198.766493 L243.788304,198.766493 C244.131507,198.431733 244.131507,198.431733 244.131507,198.088807 L239.343012,194.324791 L238.999809,194.324791 L238.999809,194.659552 L243.788304,198.766493 Z M243.101899,191.940643 L243.101899,191.940643 L246.182551,187.498941 L246.182551,187.156015 L245.839348,187.156015 L242.758696,191.597717 L243.101899,191.940643 Z" id="形状" fill="url(#linearGradient-11)" fill-rule="nonzero"></path>
                <path d="M228.744586,201.501732 C228.744586,201.501732 230.109226,202.530509 233.533081,200.815881 C236.948765,198.766493 236.262359,197.060031 234.554517,197.745882 C232.846676,198.431733 229.774194,202.187583 229.087789,201.158807 C228.401384,200.13003 231.138834,198.088807 229.430992,196.039419 C227.72315,193.990031 228.744586,198.431733 228.058181,198.431733 C227.72315,198.431733 227.036744,196.039419 226.350339,197.060031 C225.663934,198.080642 227.379947,201.142477 227.72315,201.501732 C228.401384,201.844658 227.379947,201.844658 225.663934,201.158807 C223.956092,200.138195 223.612889,202.187583 225.328903,202.865269 C227.044916,203.542956 228.744586,201.501732 228.744586,201.501732 L228.744586,201.501732 Z" id="路径" fill="url(#linearGradient-12)" fill-rule="nonzero"></path>
                <ellipse id="椭圆形" fill="url(#linearGradient-13)" fill-rule="nonzero" opacity="0.41" cx="120.071909" cy="207.75604" rx="29.2621142" ry="5.00507937"></ellipse>
                <path d="M168.64326,70.0223427 C139.065519,69.9797884 110.712181,81.8191993 89.9599597,102.877991 L104.398987,117.305356 C139.282892,81.8523768 196.324793,81.3662015 231.808896,116.219426 C232.176613,116.578681 232.536159,116.937936 232.895705,117.305356 L247.342903,102.877991 C226.584606,81.8182629 198.225931,69.9790825 168.64326,70.0223427 L168.64326,70.0223427 Z" id="路径" stroke="url(#linearGradient-14)" opacity="0.6"></path>
                <path d="M117.424346,130.352855 L132.084003,145.000673 C141.310597,135.299554 154.018239,129.661086 167.407874,129.327228 C180.797508,128.99337 193.770793,133.991508 203.47016,143.220727 C204.074851,143.800434 204.67137,144.396471 205.251546,145.000673 L219.903032,130.352855 C192.600755,102.088179 147.537133,101.287646 119.246588,128.564744 C118.633726,129.144451 118.037208,129.748653 117.44886,130.352855 L117.424346,130.352855 Z" id="路径" stroke="url(#linearGradient-15)" opacity="0.6"></path>
                <path d="M144.913246,157.803225 L168.610574,181.530404 L192.348759,157.803225 C179.238172,144.742938 158.023833,144.742938 144.913246,157.803225 L144.913246,157.803225 Z" id="路径" stroke="url(#linearGradient-16)" opacity="0.6"></path>
                <path d="M205.831722,138.427934 C192.509373,138.427934 181.709476,149.219109 181.709476,162.530698 C181.709476,175.842287 192.509373,186.633462 205.831722,186.633462 C219.15407,186.633462 229.953967,175.842287 229.953967,162.530698 C229.953967,156.138248 227.412524,150.007616 222.888725,145.487471 C218.364927,140.967325 212.229339,138.427934 205.831722,138.427934 Z M216.544548,169.756629 C217.08982,170.165252 217.410726,170.806547 217.410726,171.487586 C217.410726,172.168625 217.08982,172.80992 216.544548,173.218543 C215.384196,174.377958 214.232016,174.377958 213.071664,173.218543 L205.848065,166.000778 L198.567265,173.218543 C197.601363,174.117853 196.096174,174.091318 195.162623,173.158521 C194.229072,172.225724 194.202515,170.721751 195.102552,169.756629 L202.326151,162.530698 L195.102552,155.312933 C193.9422,154.153518 193.9422,153.002268 195.102552,151.842854 C195.511506,151.298022 196.153319,150.977375 196.834909,150.977375 C197.516498,150.977375 198.158311,151.298022 198.567265,151.842854 L205.799036,159.068784 L213.022635,151.842854 C213.981646,150.884618 215.536509,150.884618 216.495519,151.842854 C217.45453,152.80109 217.45453,154.354697 216.495519,155.312933 L209.263749,162.530698 L216.544548,169.756629 Z" id="形状" fill="url(#linearGradient-17)" fill-rule="nonzero"></path>
                <ellipse id="椭圆形" fill="url(#linearGradient-18)" fill-rule="nonzero" transform="translate(81.122347, 104.051963) rotate(-34.830000) translate(-81.122347, -104.051963) " cx="81.1223467" cy="104.051963" rx="1.65837606" ry="1.6579104"></ellipse>
                <path d="M71.4025005,96.4195603 C71.8437611,96.9094539 74.8998992,99.3180973 77.5229483,101.367485 C77.8729249,101.625717 78.3564673,101.602081 78.679547,101.31095 C79.0026267,101.019818 79.0759376,100.541667 78.8549015,100.167246 C77.1143737,97.3421932 75.0469861,94.0354116 74.6057255,93.545518 C73.8114391,92.6616862 72.4504765,92.5885753 71.5659303,93.3822201 C70.6813842,94.175865 70.6082141,95.5357285 71.4025005,96.4195603 L71.4025005,96.4195603 Z" id="路径" fill="url(#linearGradient-19)" fill-rule="nonzero"></path>
                <ellipse id="椭圆形" fill="url(#linearGradient-20)" fill-rule="nonzero" transform="translate(85.883508, 102.218842) rotate(-3.570000) translate(-85.883508, -102.218842) " cx="85.8835079" cy="102.218842" rx="1.65880776" ry="1.65747846"></ellipse>
                <path d="M81.5269795,90.6306512 C81.6495519,91.2838426 83.0060197,94.9253849 84.1908861,98.0362091 C84.3527679,98.4411867 84.7783162,98.6756043 85.2074575,98.5961979 C85.6365988,98.5167915 85.9499172,98.1456572 85.9559284,97.7096134 C85.9559284,94.386502 85.882385,90.491848 85.7598126,89.8386566 C85.4944598,88.7130559 84.3874536,87.9972213 83.2510942,88.2164185 C82.1147347,88.4356158 81.3539456,89.5117374 81.5269795,90.6551459 L81.5269795,90.6306512 Z" id="路径" fill="url(#linearGradient-21)" fill-rule="nonzero"></path>
                <ellipse id="椭圆形" fill="url(#linearGradient-22)" fill-rule="nonzero" transform="translate(78.361897, 107.905567) rotate(-52.740000) translate(-78.361897, -107.905567) " cx="78.3618966" cy="107.905567" rx="1.65796446" ry="1.65832202"></ellipse>
                <path d="M66.0420015,106.886953 C66.6793779,107.058416 70.5608368,107.393176 73.8784627,107.654453 C74.3223856,107.699544 74.7331939,107.415324 74.8471521,106.984259 C74.9611104,106.553193 74.7443657,106.103338 74.3360662,105.923496 C71.3207856,104.519134 67.7988723,102.89432 67.1369815,102.731023 C66.3939959,102.535581 65.603098,102.751044 65.0622112,103.296248 C64.5213245,103.841452 64.3126225,104.633568 64.5147212,105.374213 C64.71682,106.114858 65.2990159,106.691512 66.0420015,106.886953 Z" id="路径" fill="url(#linearGradient-23)" fill-rule="nonzero"></path>
                <path d="M107.585869,103.849613 L108.656334,101.669586 C108.255143,100.875515 107.810485,100.104125 107.324381,99.3589218 C106.531631,98.1330804 105.634915,96.9775793 104.644132,95.905172 C103.938801,95.9121312 103.234628,95.963947 102.535886,96.060305 C101.718737,96.1827784 101.29382,96.3052518 101.032332,96.6563422 C101.032332,96.6563422 100.738158,97.0645868 100.868902,97.285039 C100.999646,97.5054911 101.326506,97.3911826 101.751423,97.4973262 C102.162676,97.6164484 102.525837,97.8621698 102.789203,98.199507 L104.382644,101.065384 C104.231541,101.810408 104.423555,102.583841 104.905619,103.171927 C105.580262,103.917636 106.63745,104.18494 107.585869,103.849613 L107.585869,103.849613 Z" id="路径" fill="#E39972" fill-rule="nonzero"></path>
                <path d="M131.225996,147.784902 C131.84703,150.250699 132.367281,152.817197 132.786751,155.484396 C135.875575,175.488383 131.19331,193.108222 125.693896,206.033248 L120.7338,206.033248 C121.510092,200.154525 122.065753,193.859393 122.294555,187.172345 C122.717044,174.726288 121.959161,162.268218 120.031052,149.964928 L131.225996,147.784902 Z" id="路径" fill="url(#linearGradient-24)" fill-rule="nonzero"></path>
                <path d="M124.844061,150.307854 C124.419143,153.171009 123.898891,156.094041 123.283306,159.076949 C119.782268,175.682141 113.717328,191.642085 105.306022,206.384338 L100.337755,206.384338 C101.824967,200.821325 103.244082,195.1059 104.595103,189.238063 C107.618555,176.027266 109.931087,163.322693 111.679786,151.214157 L124.844061,150.307854 Z" id="路径" fill="url(#linearGradient-25)" fill-rule="nonzero"></path>
                <path d="M114.613352,115.370277 C114.613352,113.867936 118.756299,107.09924 118.944243,105.972485 C119.050473,105.302964 108.738049,104.502804 107.087408,104.086395 C106.33563,103.898602 106.490889,100.175411 107.651241,100.142751 C113.673631,99.9549589 127.52431,100.355039 127.973742,101.081714 C128.701005,102.241129 119.614306,121.828707 120.447798,122.702351 C128.537575,131.169345 131.070738,144.020886 132.705036,153.728944 C130.97268,154.316816 128.104486,154.480114 126.053442,154.921018 C120.580402,156.141748 114.968881,156.62776 109.367254,156.366204 C109.277368,155.14147 109.653256,153.100247 109.555198,151.851018 C104.456187,141.179503 103.557323,139.391392 98.4501403,128.719877 C99.0384877,128.327962 75.5699616,124.278175 75.8723068,122.514558 C76.174652,120.750941 86.4053605,110.667298 89.7638439,108.225995 C89.9354452,108.095357 94.0293629,109.262937 92.5830087,111.230676 C90.5156212,114.055729 85.9967859,118.758707 85.9967859,118.758707 C85.9967859,118.758707 101.587993,118.864851 102.209027,118.603574 C107.520497,116.366394 111.132296,115.558069 114.613352,115.370277 Z" id="路径" fill="url(#linearGradient-26)" fill-rule="nonzero"></path>
                <path d="M105.992428,111.810383 L107.561354,116.448043 C107.766702,117.0877 107.903658,117.747293 107.969929,118.415782 C108.07474,119.407433 108.030672,120.409166 107.839185,121.387803 C106.965286,121.352496 106.104696,121.161715 105.297851,120.824425 C104.189232,120.349117 103.186431,119.657994 102.347942,118.791367 C101.803176,117.125729 101.25841,115.454647 100.713644,113.778123 L105.992428,111.810383 Z" id="路径" fill="#DBA491" fill-rule="nonzero"></path>
                <path d="M104.85659,114.578282 C105.521521,114.208689 106.111758,113.718607 106.597118,113.133096 C107.342461,112.215476 107.812732,111.105853 107.953586,109.932458 C107.850518,108.881318 107.557018,107.857664 107.087408,106.911448 C106.711519,106.274586 104.930134,103.376049 104.905619,103.253576 C104.783047,102.633044 104.2519,101.514453 102.454172,99.3262622 C101.407777,99.3473418 100.367823,99.495395 99.3571759,99.7671664 C97.0837718,100.388505 95.0111884,101.58997 93.3429575,103.253576 C94.0044135,105.799596 94.9472064,108.264213 96.1539509,110.601979 C96.741866,111.723738 97.3883032,112.813891 98.0905946,113.867936 C99.2905165,114.601708 100.663646,115.00458 102.070111,115.035516 C103.019169,115.055532 103.963786,114.90053 104.85659,114.578282 L104.85659,114.578282 Z" id="路径" fill="#EFBA9E" fill-rule="nonzero"></path>
                <path d="M95.042628,107.687113 C94.5523384,107.556474 93.7923896,107.605464 93.5554163,108.013708 C93.1468417,108.699559 94.1682783,110.528495 95.6473184,110.863256 C96.1067252,110.966462 96.5861593,110.935281 97.0283006,110.773442 C97.0036381,109.931658 96.6890364,109.124159 96.1376079,108.487272 C95.8690696,108.109006 95.4847772,107.828184 95.042628,107.687113 Z" id="路径" fill="#E39972" fill-rule="nonzero"></path>
                <path d="M92.6565522,111.042884 L90.3440198,110.316208 C90.0470768,109.475136 89.7934285,108.619424 89.584071,107.752432 C89.2471442,106.333788 89.0338876,104.88864 88.9466946,103.433203 C89.4342571,102.924515 89.9586509,102.452396 90.5156212,102.020677 C91.1611691,101.506289 91.5452292,101.294001 91.9783183,101.342991 C91.9783183,101.342991 92.4767793,101.40831 92.5503228,101.661422 C92.6238662,101.914533 92.305178,102.061501 92.0927192,102.437086 C91.8975879,102.816742 91.8234466,103.246984 91.8802604,103.669985 L92.8608395,106.805304 C93.5001685,107.216397 93.9249131,107.888864 94.0211914,108.642405 C94.092442,109.644329 93.5543083,110.590937 92.6565522,111.042884 Z" id="路径" fill="#E39972" fill-rule="nonzero"></path>
                <path d="M98.0579086,97.8810761 C98.0579086,97.8810761 102.519543,98.0688687 104.080299,100.412193 C105.649225,101.971687 105.649225,102.95964 104.080299,102.95964 C102.511372,102.95964 101.236619,101.130704 98.8096859,102.584054 C97.8699643,103.147432 97.2652739,104.151714 96.9302427,105.784692 C96.6278975,107.246208 97.167216,108.519932 96.554354,109.164958 C95.9414921,109.809985 94.0375344,108.470942 93.5472448,108.225995 C92.5584943,107.736102 92.2234631,102.020677 93.9231335,100.412193 C95.195935,99.4074573 96.583969,98.5577675 98.0579086,97.8810761 L98.0579086,97.8810761 Z" id="路径" fill="#131322" fill-rule="nonzero"></path>
                <path d="M121.264947,204.857503 C120.89723,204.857503 120.554027,205.445376 120.692943,206.817078 C120.831858,208.18878 120.627571,208.948115 121.779751,208.980774 C122.768502,208.980774 129.289353,208.580694 131.095252,208.474551 C131.716286,208.474551 131.528341,207.821359 131.495655,207.658062 C131.348569,206.996705 130.801079,206.025083 128.815406,205.927104 C127.36088,205.755642 125.873669,204.457424 125.228121,204.490083 C124.582573,204.522743 124.337428,205.151439 123.299649,205.151439 C122.616537,205.09079 121.937278,204.992663 121.264947,204.857503 L121.264947,204.857503 Z" id="路径" fill="#000000" fill-rule="nonzero"></path>
                <path d="M100.942445,205.429046 C100.566557,205.429046 100.231526,206.008753 100.362269,207.380455 C100.493013,208.752157 100.305069,209.511492 101.457249,209.544152 C102.437829,209.544152 108.966851,209.144072 110.772751,209.046093 C111.385613,209.046093 111.197668,208.392902 111.164982,208.229604 C111.017896,207.568248 110.470406,206.596625 108.492904,206.498647 C107.030207,206.327184 105.551167,205.028966 104.905619,205.061626 C104.260071,205.094285 104.014927,205.722982 102.977147,205.722982 C101.939368,205.722982 101.587993,205.429046 100.942445,205.429046 Z" id="路径" fill="#000000" fill-rule="nonzero"></path>
                <path d="M54.5773977,110.716288 L53.9318498,110.716288 C53.9318498,110.593814 53.9318498,110.471341 53.9318498,110.340703 C53.9318498,107.423156 51.5647991,105.058017 48.6448942,105.058017 C45.7249892,105.058017 43.3579386,107.423156 43.3579386,110.340703 C43.3495519,110.465758 43.3495519,110.591233 43.3579386,110.716288 L42.5407894,110.716288 C41.2346416,110.653587 39.9999394,111.31416 39.328075,112.435109 C38.6562106,113.556057 38.6562106,114.95548 39.328075,116.076429 C39.9999394,117.197378 41.2346416,117.857951 42.5407894,117.79525 L54.5773977,117.79525 C55.8835454,117.857951 57.1182476,117.197378 57.790112,116.076429 C58.4619764,114.95548 58.4619764,113.556057 57.790112,112.435109 C57.1182476,111.31416 55.8835454,110.653587 54.5773977,110.716288 L54.5773977,110.716288 Z" id="路径" fill="url(#linearGradient-27)" fill-rule="nonzero"></path>
                <path d="M125.554981,22.8620399 L125.162749,22.8620399 C125.167116,22.7913448 125.167116,22.7204478 125.162749,22.6497527 C125.162749,20.9812947 123.809103,19.6287423 122.139297,19.6287423 C120.46949,19.6287423 119.115845,20.9812947 119.115845,22.6497527 C119.115845,22.7232367 119.115845,22.7967208 119.115845,22.8620399 L118.674584,22.8620399 C117.546336,22.8620399 116.631711,23.7759267 116.631711,24.9032631 C116.631711,26.0305996 117.546336,26.9444864 118.674584,26.9444864 L125.530466,26.9444864 C126.658714,26.9444864 127.573339,26.0305996 127.573339,24.9032631 C127.573339,23.7759267 126.658714,22.8620399 125.530466,22.8620399 L125.554981,22.8620399 Z" id="路径" fill="url(#linearGradient-28)" fill-rule="nonzero"></path>
                <path d="M248.413369,65.0173821 L247.302046,65.0173821 C247.302046,64.8132598 247.302046,64.6091374 247.302046,64.3968502 C247.15845,59.73156 243.331961,56.0239409 238.660692,56.0239409 C233.989424,56.0239409 230.162935,59.73156 230.019339,64.3968502 C230.019339,64.6091374 230.019339,64.8132598 230.019339,65.0173821 L228.752758,65.0173821 C225.557561,65.0173821 222.967341,67.6055094 222.967341,70.7981263 C222.967341,73.9907431 225.557561,76.5788705 228.752758,76.5788705 L248.36434,76.5788705 C251.559537,76.5788705 254.149756,73.9907431 254.149756,70.7981263 C254.149756,67.6055094 251.559537,65.0173821 248.36434,65.0173821 L248.413369,65.0173821 Z" id="路径" fill="url(#linearGradient-29)" fill-rule="nonzero"></path>
            </g>
        </g>
    </g>
</svg>