<?xml version="1.0" encoding="UTF-8"?>
<svg width="300px" height="244px" viewBox="0 0 300 244" version="1.1" xmlns="http://www.w3.org/2000/svg" xmlns:xlink="http://www.w3.org/1999/xlink">
    <title>资源 1</title>
    <defs>
        <linearGradient x1="-0.00821089158%" y1="49.9223602%" x2="99.9958934%" y2="49.9223602%" id="linearGradient-1">
            <stop stop-color="#F9E7A8" offset="0%"></stop>
            <stop stop-color="#F5A623" offset="100%"></stop>
        </linearGradient>
        <linearGradient x1="31.1704071%" y1="59.1195351%" x2="66.5354041%" y2="36.8755613%" id="linearGradient-2">
            <stop stop-color="#C6DFFE" offset="0%"></stop>
            <stop stop-color="#72B1FE" offset="100%"></stop>
        </linearGradient>
        <linearGradient x1="-0.00816792338%" y1="49.9928234%" x2="99.9822704%" y2="49.9928234%" id="linearGradient-3">
            <stop stop-color="#C6DFFE" offset="0%"></stop>
            <stop stop-color="#72B1FE" offset="100%"></stop>
        </linearGradient>
        <linearGradient x1="-0.0226459219%" y1="50.0002851%" x2="100.143552%" y2="50.0002851%" id="linearGradient-4">
            <stop stop-color="#C6DFFE" offset="0%"></stop>
            <stop stop-color="#72B1FE" offset="100%"></stop>
        </linearGradient>
        <linearGradient x1="-422.13457%" y1="-198.345989%" x2="-316.978609%" y2="-198.345989%" id="linearGradient-5">
            <stop stop-color="#C6DFFE" offset="0%"></stop>
            <stop stop-color="#72B1FE" offset="100%"></stop>
        </linearGradient>
        <linearGradient x1="-0.0548265901%" y1="50.0076576%" x2="99.9765458%" y2="50.0076576%" id="linearGradient-6">
            <stop stop-color="#C6DFFE" offset="0%"></stop>
            <stop stop-color="#72B1FE" offset="100%"></stop>
        </linearGradient>
        <linearGradient x1="0.0781361852%" y1="50.2588997%" x2="100.014317%" y2="50.2588997%" id="linearGradient-7">
            <stop stop-color="#C6DFFE" offset="0%"></stop>
            <stop stop-color="#72B1FE" offset="100%"></stop>
        </linearGradient>
        <linearGradient x1="0.0103263685%" y1="49.9638039%" x2="99.8372433%" y2="49.9638039%" id="linearGradient-8">
            <stop stop-color="#C6DFFE" offset="0%"></stop>
            <stop stop-color="#72B1FE" offset="100%"></stop>
        </linearGradient>
        <linearGradient x1="0%" y1="49.8768386%" x2="99.9865481%" y2="49.8768386%" id="linearGradient-9">
            <stop stop-color="#C6DFFE" offset="0%"></stop>
            <stop stop-color="#72B1FE" offset="100%"></stop>
        </linearGradient>
        <linearGradient x1="0.00374851787%" y1="50.0000273%" x2="99.9963438%" y2="50.0000273%" id="linearGradient-10">
            <stop stop-color="#C6DFFE" offset="0%"></stop>
            <stop stop-color="#72B1FE" offset="100%"></stop>
        </linearGradient>
        <linearGradient x1="6.46682808e-13%" y1="50%" x2="100%" y2="50%" id="linearGradient-11">
            <stop stop-color="#C6DFFE" offset="0%"></stop>
            <stop stop-color="#72B1FE" offset="100%"></stop>
        </linearGradient>
        <linearGradient x1="0.0108485001%" y1="49.9609761%" x2="100.008471%" y2="49.9609761%" id="linearGradient-12">
            <stop stop-color="#C6DFFE" offset="0%"></stop>
            <stop stop-color="#72B1FE" offset="100%"></stop>
        </linearGradient>
        <linearGradient x1="0%" y1="50%" x2="100%" y2="50%" id="linearGradient-13">
            <stop stop-color="#F9E7A8" offset="0%"></stop>
            <stop stop-color="#F5A623" offset="100%"></stop>
        </linearGradient>
        <linearGradient x1="85.6210475%" y1="103.143988%" x2="22.5492894%" y2="7.46373813%" id="linearGradient-14">
            <stop stop-color="#C6DFFE" offset="0%"></stop>
            <stop stop-color="#72B1FE" offset="100%"></stop>
        </linearGradient>
        <linearGradient x1="35.6888708%" y1="79.7224183%" x2="63.7443844%" y2="17.6664314%" id="linearGradient-15">
            <stop stop-color="#1A1114" offset="0%"></stop>
            <stop stop-color="#30231E" offset="25%"></stop>
            <stop stop-color="#4A372A" offset="50%"></stop>
            <stop stop-color="#5A372A" offset="59%"></stop>
            <stop stop-color="#60372A" offset="66%"></stop>
            <stop stop-color="#98372A" offset="98%"></stop>
        </linearGradient>
        <linearGradient x1="-0.0107654215%" y1="50.0547447%" x2="100.010765%" y2="50.0547447%" id="linearGradient-16">
            <stop stop-color="#F3835D" offset="0%"></stop>
            <stop stop-color="#FFC644" offset="100%"></stop>
        </linearGradient>
        <linearGradient x1="0%" y1="50.0866551%" x2="100%" y2="50.0866551%" id="linearGradient-17">
            <stop stop-color="#EAF2FD" offset="0%"></stop>
            <stop stop-color="#C4DFFD" offset="100%"></stop>
        </linearGradient>
        <linearGradient x1="-1.23144322e-13%" y1="49.9133449%" x2="100%" y2="49.9133449%" id="linearGradient-18">
            <stop stop-color="#EAF2FD" offset="0%"></stop>
            <stop stop-color="#C4DFFD" offset="100%"></stop>
        </linearGradient>
        <linearGradient x1="0%" y1="50%" x2="100%" y2="50%" id="linearGradient-19">
            <stop stop-color="#EAF2FD" offset="0%"></stop>
            <stop stop-color="#C4DFFD" offset="100%"></stop>
        </linearGradient>
        <linearGradient x1="0.027005131%" y1="50%" x2="100%" y2="50%" id="linearGradient-20">
            <stop stop-color="#EAF2FD" offset="0%"></stop>
            <stop stop-color="#C4DFFD" offset="100%"></stop>
        </linearGradient>
        <linearGradient x1="-0.0650195059%" y1="49.8701299%" x2="99.9349805%" y2="49.8701299%" id="linearGradient-21">
            <stop stop-color="#EAF2FD" offset="0%"></stop>
            <stop stop-color="#C4DFFD" offset="100%"></stop>
        </linearGradient>
        <linearGradient x1="-0.0650195059%" y1="50.1298701%" x2="100%" y2="50.1298701%" id="linearGradient-22">
            <stop stop-color="#EAF2FD" offset="0%"></stop>
            <stop stop-color="#C4DFFD" offset="100%"></stop>
        </linearGradient>
        <linearGradient x1="0.160824201%" y1="49.7727168%" x2="100.222407%" y2="49.7727168%" id="linearGradient-23">
            <stop stop-color="#C6DFFE" offset="0%"></stop>
            <stop stop-color="#72B1FE" offset="100%"></stop>
        </linearGradient>
        <linearGradient x1="-0.188963279%" y1="50.163283%" x2="99.8094059%" y2="50.163283%" id="linearGradient-24">
            <stop stop-color="#C6DFFE" offset="0%"></stop>
            <stop stop-color="#72B1FE" offset="100%"></stop>
        </linearGradient>
    </defs>
    <g id="页面" stroke="none" stroke-width="1" fill="none" fill-rule="evenodd">
        <g id="缺省页" transform="translate(-47.000000, -71.000000)">
            <g id="资源-1" transform="translate(47.000000, 71.000000)">
                <path d="M151.728271,0 C124.687776,-0.0627149546 98.3587244,8.65401416 76.705799,24.837944 L85.0815787,24.837944 C86.9865603,24.837944 88.8135188,25.5940838 90.1605442,26.9400213 C91.5075696,28.2859588 92.2643205,30.1114418 92.2643205,32.0148849 L92.2643205,32.0148849 L92.2643205,32.5700976 C92.2643205,36.5338126 89.0484975,39.7470385 85.0815787,39.7470385 L60.125841,39.7470385 C55.3841489,44.8479277 51.0866993,50.3437836 47.280255,56.1748031 L35.4234195,56.1748031 C31.1528089,56.179309 27.6931853,59.6397927 27.6931877,63.9069567 L27.6931877,64.339696 C27.6904251,67.7825811 29.9708457,70.8106924 33.2824885,71.7615837 L44.1996023,71.7615837 C49.0807909,71.766085 53.0366521,75.7187513 53.0411571,80.5959978 L53.0411571,80.5959978 L53.0411571,83.3557316 C53.0411571,88.2348438 49.0826582,92.1901458 44.1996023,92.1901458 L6.68428077,92.1901458 C2.75547832,93.1778206 0,96.7071477 0,100.755118 L0,101.245012 C0,106.124124 3.9584989,110.079426 8.84155476,110.079426 L28.2733637,110.079426 C27.8920273,114.009461 27.6986354,117.983043 27.6931877,122.00017 C27.6931877,189.376866 83.2593359,244 151.728271,244 C206.526299,244 253.054776,209.054258 269.438618,160.587454 L274.088198,160.587454 C275.716514,160.575986 277.110319,159.417602 277.418199,157.819907 C277.726078,156.222213 276.862413,154.629511 275.354779,154.014715 L269.634734,154.014715 C265.671005,154.014718 262.456502,150.806465 262.451992,146.845939 L262.451992,146.845939 L262.451992,146.290726 C262.451992,142.327011 265.667816,139.113785 269.634734,139.113785 L274.562144,139.113785 L274.562144,139.023972 L286.819383,139.023972 C289.955911,139.023972 292.49857,136.483366 292.49857,133.349371 C292.49857,130.215376 289.955911,127.67477 286.819383,127.67477 L275.63261,127.67477 C275.72522,125.796845 275.768801,123.891703 275.763354,121.959345 C275.780531,104.534388 271.996469,87.3150719 264.674638,71.5003071 L284.531365,71.5003071 C293.072588,71.4958023 299.995492,64.5784898 300,56.0441648 L300,55.1786861 C300,46.9877608 293.606003,40.2186765 285.422058,39.7470385 L215.465911,39.7470385 C212.41513,39.7470385 209.941982,37.2758886 209.941982,34.2275709 C209.941982,31.1792531 212.41513,28.7081032 215.465911,28.7081032 L231.661809,28.7081032 L231.253235,28.3733426 L239.310326,28.3733426 C242.094446,28.3733435 244.764416,27.2676909 246.73232,25.2998452 C248.700223,23.3319996 249.804691,20.6633257 249.802522,17.8814552 L249.802522,17.3017478 C249.804691,14.5198773 248.700223,11.8512034 246.73232,9.8833578 C244.764416,7.91551217 242.094446,6.80985955 239.310326,6.8098604 L192.691962,6.8098604 C179.509658,2.2865046 165.666232,-0.0147307424 151.728271,0 Z" id="背景" fill="#EDF0F4" opacity="0.35"></path>
                <path d="M148.721161,190.242345 C176.798409,190.242345 202.081007,192.528515 219.755945,196.186387 C237.038651,196.300696 250.962874,201.477238 250.962874,207.837689 C250.962874,212.883593 242.219377,217.178327 229.986653,218.80314 C227.061259,219.668619 223.776319,220.476943 220.180862,221.252608 C220.271984,221.734485 220.318485,222.223724 220.319778,222.714124 C220.319778,233.818379 196.148503,242.824255 166.338899,242.824255 C139.520061,242.824255 117.309945,235.533006 113.06894,225.980081 C77.285975,223.269337 51.9788585,216.58229 51.9788585,208.768487 C51.9625201,198.497052 95.2796012,190.242345 148.721161,190.242345 Z" id="形状结合" fill="url(#linearGradient-1)" opacity="0.27"></path>
                <path d="M76.1991665,214.590056 C81.1510909,212.254896 89.7311579,204.792184 84.2317435,191.548728 C79.0428459,178.133809 70.4627789,185.572026 67.7661864,176.647798 C65.0695939,167.72357 65.4291395,165.282267 58.1728543,161.902002 C50.9165691,158.521736 54.9696293,155.133305 49.7071882,151.165167 C44.4447471,147.197029 41.5356958,146.690806 37.8421812,148.438093 C34.1486667,150.18538 40.4652303,160.415991 37.025032,164.310645 C33.5848337,168.205299 33.3723749,169.421868 39.2231635,175.36591 C45.073952,181.309952 47.3374554,181.358941 45.3762972,186.79676 C43.4151391,192.234579 45.3762972,193.981866 49.0371258,193.761414 C52.6979544,193.540962 58.3689701,193.524632 56.2035246,200.954684 C54.0380792,208.384737 54.8960859,211.013833 62.0297987,213.316332 C69.1635116,215.618832 69.3841419,217.774364 76.223681,214.573726 L76.1991665,214.590056 Z" id="路径" fill="url(#linearGradient-2)" fill-rule="nonzero"></path>
                <path d="M79.0019884,212.516173 C78.9196499,212.555258 78.8251321,212.560007 78.7392849,212.529372 C78.6534377,212.498737 78.5833148,212.435235 78.5443848,212.352875 L47.8032305,167.160193 C47.6561436,166.849927 47.6561436,166.849927 47.9666603,166.711124 C48.277177,166.57232 48.277177,166.564155 48.4242639,166.874421 L79.1654182,212.058939 C79.3125051,212.369205 79.3125051,212.369205 79.0019884,212.516173 Z" id="路径" fill="url(#linearGradient-3)" fill-rule="nonzero"></path>
                <path d="M58.9082886,182.706149 C58.5977719,182.844952 58.450685,182.542851 58.3035982,182.232585 L59.1942909,170.483304 C59.1942909,170.483304 59.3577207,170.034235 59.5048076,170.344501 C59.5048076,170.344501 59.9542396,170.507799 59.6518944,170.646602 L58.9082886,182.706149 L58.9082886,182.706149 Z M63.9255849,190.152531 L54.5937406,190.397478 C54.5125948,190.436245 54.4192567,190.440782 54.3347278,190.410069 C54.2501989,190.379356 54.1815792,190.315973 54.1443086,190.23418 C54.1028463,190.15227 54.0968642,190.056942 54.1277619,189.970498 C54.1586595,189.884054 54.2237261,189.81408 54.3077384,189.776946 L63.29638,189.678967 C63.9174135,189.393196 64.0563288,189.678967 63.892899,190.152531 L63.9255849,190.152531 Z M71.0266118,200.407637 L71.0266118,200.407637 C70.7160951,200.554605 70.5771797,200.244339 70.4300929,199.934073 L71.7865606,187.588755 C71.7865606,187.588755 71.9499905,187.131521 72.0970773,187.441787 C72.0970773,187.441787 72.5546809,187.605085 72.2441642,187.752053 L71.0266118,200.407637 Z M75.17773,206.768088 L62.3158009,206.768088 C62.0052842,206.906891 61.8581974,206.60479 62.1687141,206.457822 C62.0216272,206.147556 62.3321439,206.000588 62.4792308,206.310854 L75.0143001,206.449657 C75.3248168,206.302689 75.3248168,206.302689 75.161387,206.759923 L75.17773,206.768088 Z" id="形状" fill="url(#linearGradient-4)" fill-rule="nonzero"></path>
                <path d="M83.6188816,211.095481 C87.9497726,209.054258 90.2459619,209.111413 90.0825321,203.151041 C89.7475009,197.639738 93.931305,195.296414 91.259227,192.022292 C88.587149,188.74817 85.9477569,190.389313 86.6014763,182.134606 C87.2551957,173.8799 82.5892736,170.42615 79.8599951,169.446363 C77.1307166,168.466576 75.7742489,166.441682 73.3228012,161.959156 C70.8713535,157.47663 66.4832621,160.269023 66.1237164,162.702161 C65.7641707,165.135299 68.673222,171.316123 66.7447498,175.243437 C64.8162776,179.17075 68.5669926,182.322399 71.7293602,184.224819 C74.8917277,186.127239 72.971427,190.062717 71.2227276,192.773462 C69.5884292,195.786307 65.6987988,200.285163 68.6977365,202.644817 C71.6966742,205.004471 76.5260262,214.443088 83.6352246,211.095481 L83.6188816,211.095481 Z" id="路径" fill="url(#linearGradient-5)" fill-rule="nonzero"></path>
                <path d="M84.239915,210.801545 C84.1579387,210.842974 84.0625332,210.848951 83.9760198,210.818079 C83.8895064,210.787206 83.8194754,210.722192 83.7823114,210.638247 L75.7170485,176.680458 C75.6755862,176.598548 75.6696041,176.503219 75.7005018,176.416776 C75.7313994,176.330332 75.796466,176.260358 75.8804783,176.223224 C75.9628168,176.184139 76.0573346,176.17939 76.1431818,176.210025 C76.229029,176.24066 76.2991519,176.304161 76.3380819,176.386522 L84.239915,210.801545 C84.4033449,210.344311 84.5504317,210.654577 84.239915,210.801545 Z" id="路径" fill="url(#linearGradient-6)" fill-rule="nonzero"></path>
                <path d="M79.5413069,189.605483 L79.5413069,189.605483 C79.0837033,189.442185 79.0837033,189.442185 78.9366165,189.13192 L82.3931577,178.811495 L82.7036744,178.664527 L82.8507613,178.974793 L79.5821644,189.589154 L79.5413069,189.605483 Z M82.8752758,203.894046 L82.8752758,203.894046 L72.7262822,199.223727 L72.5873669,198.913461 L72.8897121,198.766493 L82.695503,203.58378 C83.0387056,203.436812 83.1857925,203.747078 82.8752758,203.894046 Z" id="形状" fill="url(#linearGradient-7)" fill-rule="nonzero"></path>
                <path d="M104.815733,217.643726 C105.971004,217.612313 107.044623,217.041222 107.715752,216.101118 C108.38688,215.161013 108.577785,213.960781 108.231417,212.859098 C107.553183,210.123859 106.523575,211.495561 106.180372,213.544949 C105.837169,215.594337 106.523575,212.516173 104.47253,211.838487 C102.421486,211.495561 104.47253,215.251412 103.786125,215.920933 C102.764688,216.255694 101.400049,212.499843 100.027238,214.206306 C98.6544276,215.912768 101.73508,217.627396 104.815733,217.627396 L104.815733,217.643726 Z" id="路径" fill="url(#linearGradient-8)" fill-rule="nonzero"></path>
                <path d="M244.131507,201.844658 C240.707651,201.844658 236.948765,197.762211 236.605562,195.010642 C236.605562,191.940643 240.364449,192.283568 240.364449,190.928196 C240.364449,189.572824 237.978373,189.564659 238.313404,188.535882 C238.648435,187.507106 240.707651,187.172345 240.364449,186.486494 C240.021246,185.800643 237.63517,186.82942 238.313404,185.122957 C238.999809,183.073569 240.364449,184.102345 239.343012,181.710032 C238.321575,179.317718 241.394057,181.710032 240.364449,179.660644 C239.343012,177.26833 238.313404,175.578197 240.364449,174.533091 C242.415493,173.487985 242.080462,181.367106 242.758696,180.681255 C243.788304,180.33833 245.152943,179.660644 245.496146,182.052957 C245.839348,184.445271 244.131507,185.122957 247.203988,185.465883 C249.941438,185.808808 246.182551,189.907584 248.233596,190.928196 C250.28464,191.948808 253.013919,194.684047 250.619672,197.46011 C248.568627,199.852424 247.203988,201.901812 244.131507,201.901812 L244.131507,201.844658 Z" id="路径" fill="url(#linearGradient-9)" fill-rule="nonzero"></path>
                <path d="M244.131507,201.84476 C244.221796,201.84476 244.308275,201.808297 244.371346,201.74374 C244.434417,201.679183 244.46874,201.591922 244.466538,201.501732 L242.415493,182.722479 C242.420076,182.63163 242.386533,182.542988 242.32294,182.477897 C242.259348,182.412806 242.171468,182.377164 242.080462,182.37944 C241.988763,182.37729 241.900146,182.412692 241.835285,182.4775 C241.770425,182.542308 241.734994,182.630854 241.737259,182.722479 L243.788304,201.501732 C243.786039,201.593357 243.82147,201.681903 243.88633,201.746711 C243.951191,201.811519 244.039808,201.846921 244.131507,201.84476 L244.131507,201.84476 Z" id="路径" fill="url(#linearGradient-10)" fill-rule="nonzero"></path>
                <path d="M243.788304,198.766493 L243.788304,198.766493 C244.131507,198.431733 244.131507,198.431733 244.131507,198.088807 L239.343012,194.324791 L238.999809,194.324791 L238.999809,194.659552 L243.788304,198.766493 Z M243.101899,191.940643 L243.101899,191.940643 L246.182551,187.498941 L246.182551,187.156015 L245.839348,187.156015 L242.758696,191.597717 L243.101899,191.940643 Z" id="形状" fill="url(#linearGradient-11)" fill-rule="nonzero"></path>
                <path d="M228.744586,201.501732 C228.744586,201.501732 230.109226,202.530509 233.533081,200.815881 C236.948765,198.766493 236.262359,197.060031 234.554517,197.745882 C232.846676,198.431733 229.774194,202.187583 229.087789,201.158807 C228.401384,200.13003 231.138834,198.088807 229.430992,196.039419 C227.72315,193.990031 228.744586,198.431733 228.058181,198.431733 C227.72315,198.431733 227.036744,196.039419 226.350339,197.060031 C225.663934,198.080642 227.379947,201.142477 227.72315,201.501732 C228.401384,201.844658 227.379947,201.844658 225.663934,201.158807 C223.956092,200.138195 223.612889,202.187583 225.328903,202.865269 C227.044916,203.542956 228.744586,201.501732 228.744586,201.501732 L228.744586,201.501732 Z" id="路径" fill="url(#linearGradient-12)" fill-rule="nonzero"></path>
                <ellipse id="椭圆形" fill="url(#linearGradient-13)" fill-rule="nonzero" opacity="0.41" cx="182.175251" cy="225.718805" rx="29.2621142" ry="5.00507937"></ellipse>
                <path d="M210.824504,184.151335 L179.233514,152.585859 C201.008728,129.538243 201.29823,93.6075911 179.897215,70.2126554 C158.4962,46.8177197 122.655344,43.8847177 97.7298737,63.48857 C72.8044036,83.0924223 67.2390829,118.591332 84.9710376,144.87198 C102.702992,171.152627 137.724626,179.311113 165.260262,163.575805 L198.338463,196.627291 C201.786388,200.072431 207.376579,200.072431 210.824504,196.627291 C214.272428,193.182151 214.272428,187.596475 210.824504,184.151335 Z M93.7597028,111.042884 C93.7597028,94.2891114 103.860527,79.1851771 119.351821,72.7745491 C134.843115,66.3639212 152.673852,69.9091802 164.528965,81.7570538 C176.384077,93.6049273 179.928687,111.421963 173.509823,126.899482 C167.09096,142.377001 151.972826,152.466688 135.205513,152.463386 C124.211985,152.463386 113.668843,148.099192 105.896011,140.331106 C98.1231788,132.56302 93.7575362,122.027533 93.7597028,111.042884 Z" id="形状" fill="url(#linearGradient-14)" fill-rule="nonzero"></path>
                <path d="M144.431128,115.615224 C143.801923,116.268415 144.431128,120.84892 144.431128,120.84892 L149.440253,124.768069 L150.698663,123.461686 C150.698663,123.461686 150.698663,118.236154 150.069458,117.574798 C149.734426,117.223707 149.848827,118.56275 149.440253,119.542537 C149.168019,120.096203 148.731404,120.552426 148.190014,120.84892 L146.187999,119.215941 C146.187999,119.215941 145.060333,114.962032 144.431128,115.615224 Z" id="路径" fill="#EFBA9E" fill-rule="nonzero"></path>
                <path d="M227.61692,130.352855 C228.246125,131.006047 227.976466,135.080328 227.61692,135.578387 C227.257375,136.076445 222.444366,139.293413 222.444366,139.293413 L221.349386,138.199317 C221.349386,138.199317 221.349386,132.965621 221.978591,132.31243 C222.313622,131.961339 222.199221,133.292217 222.607796,134.272004 C222.880029,134.82567 223.316645,135.281893 223.858034,135.578387 C223.858034,135.578387 225.42696,134.386312 225.86005,133.945408 C226.293139,133.504504 226.987716,129.691499 227.61692,130.352855 Z" id="路径" fill="#EFBA9E" fill-rule="nonzero"></path>
                <path d="M186.040367,113.320889 L186.040367,118.554585 C186.657656,119.376972 187.62643,119.860968 188.655245,119.860968 C189.684059,119.860968 190.652833,119.376972 191.270122,118.554585 L191.270122,113.320889 L186.040367,113.320889 Z" id="路径" fill="#E2AD96" fill-rule="nonzero"></path>
                <path d="M183.041429,99.6120334 C183.041429,99.6120334 181.627761,107.491155 182.698227,110.226394 C183.768692,112.961633 186.914717,114.561952 187.69918,114.896713 C188.483643,115.231474 193.206766,114.586447 194.285403,113.263734 C195.36404,111.941022 197.039196,103.69448 197.039196,103.69448 L191.662354,95.529587 L183.041429,99.6120334 Z" id="路径" fill="#EFBA9E" fill-rule="nonzero"></path>
                <path d="M170.99665,153.867747 L171.102879,222.003778 L175.915888,222.648805 C175.915888,222.648805 183.613434,170.066895 185.223218,170.066895 C186.833002,170.066895 192.365102,223.285667 192.365102,223.285667 L196.287419,223.285667 C196.287419,223.285667 201.100428,161.714209 198.48555,159.093278 C195.870673,156.472348 170.99665,153.867747 170.99665,153.867747 Z" id="路径" fill="url(#linearGradient-15)" fill-rule="nonzero"></path>
                <path d="M189.684853,92.8841617 C186.456875,92.9457828 183.40669,94.3731965 181.29273,96.8114752 C179.879062,98.5995867 179.985291,100.738789 182.600169,100.738789 C185.215046,100.738789 187.838095,99.4242409 190.452973,99.4242409 C193.067851,99.4242409 196.050445,107.262538 198.673494,105.956155 C200.307793,105.139666 199.613216,99.4242409 198.305777,96.8196401 C196.998338,94.2150392 193.321167,92.8841617 189.684853,92.8841617 Z" id="路径" fill="#131322" fill-rule="nonzero"></path>
                <path d="M192.430474,222.901917 C192.0219,222.901917 191.613325,223.538778 191.793098,225.049284 C191.972871,226.559789 191.727726,227.400773 192.994307,227.433432 C194.081116,227.474257 201.272029,226.992528 203.257702,226.886384 C203.935935,226.886384 203.731648,226.159709 203.690791,225.996411 C203.535532,225.269736 202.930842,224.183805 200.749053,224.093991 C199.114755,223.898034 197.480457,222.461012 196.794051,222.510002 C196.107646,222.558991 195.813472,223.236677 194.677635,223.236677 C193.541797,223.236677 193.141394,222.901917 192.430474,222.901917 Z" id="路径" fill="#000000" fill-rule="nonzero"></path>
                <path d="M175.809659,221.636358 C176.218233,221.636358 176.626808,222.27322 176.447035,223.783725 C176.267262,225.29423 176.504236,226.167874 175.245826,226.167874 C174.159017,226.167874 166.968104,225.72697 164.982431,225.620826 C164.304197,225.580002 164.508485,224.894151 164.549342,224.730853 C164.712772,224.004177 165.317462,222.918246 167.491079,222.828433 C169.125378,222.632475 170.759676,221.195454 171.446082,221.244443 C172.132487,221.293433 172.426661,221.971119 173.57067,221.971119 C174.714679,221.971119 175.098739,221.636358 175.809659,221.636358 Z" id="路径" fill="#000000" fill-rule="nonzero"></path>
                <path d="M178.841282,117.901394 C182.109879,115.933654 195.184267,117.248202 197.815488,118.554585 C200.446708,119.860968 206.975731,131.618414 208.291341,136.860275 C209.606951,142.102136 214.828535,140.787588 214.828535,140.787588 L221.365729,136.860275 L223.988778,138.166658 L212.213657,148.601391 L206.975731,148.601391 L196.508049,140.754929 L200.430365,160.350672 L169.019149,157.729741 L175.556342,139.424051 L162.481955,145.955966 L148.083785,123.722962 L150.706834,121.102032 L165.758723,134.835382 C165.758723,134.835382 175.564514,119.860968 178.841282,117.901394 Z" id="路径" fill="url(#linearGradient-16)" fill-rule="nonzero"></path>
                <path d="M67.3980459,62.3677044 L81.5371874,62.3619926 C82.8376083,62.3614672 83.8922336,63.4152408 83.892759,64.7156618 C83.8927592,64.7162959 83.8927592,64.71693 83.892759,64.7175642 C83.8922331,66.0193441 82.8370633,67.0745138 81.5352834,67.0750397 L67.3961419,67.0807515 C66.095721,67.0812769 65.0410956,66.0275033 65.0405703,64.7270823 C65.0405701,64.7264482 65.0405701,64.7258141 65.0405703,64.7251799 C65.0410962,63.4234 66.096266,62.3682303 67.3980459,62.3677044 Z" id="矩形" fill="url(#linearGradient-17)" fill-rule="nonzero" transform="translate(74.466665, 64.721372) rotate(45.000000) translate(-74.466665, -64.721372) "></path>
                <path d="M67.3901915,62.3639211 L81.529333,62.3696329 C82.8311129,62.3701588 83.8862826,63.4253286 83.8868085,64.7271085 C83.8873339,66.0275294 82.8335603,67.0821547 81.5331393,67.0826801 C81.5325052,67.0826803 81.5318711,67.0826803 81.5312369,67.0826801 L67.3920954,67.0769682 C66.0903155,67.0764424 65.0351458,66.0212726 65.0346199,64.7194927 C65.0340945,63.4190717 66.0878681,62.3644464 67.3882891,62.3639211 C67.3889232,62.3639208 67.3895574,62.3639208 67.3901915,62.3639211 Z" id="矩形" fill="url(#linearGradient-18)" fill-rule="nonzero" transform="translate(74.460714, 64.723301) rotate(135.000000) translate(-74.460714, -64.723301) "></path>
                <path d="M216.280447,60.1249042 L241.527265,60.1147052 C242.907976,60.1121284 244.027716,61.2309643 244.028274,62.611676 C244.028274,62.6123493 244.028274,62.6130226 244.026255,62.6136951 L244.025219,65.1774419 C244.022641,66.5573641 242.904132,67.6758735 241.524209,67.6784516 L216.277392,67.6886506 C214.896681,67.6912275 213.77694,66.5723916 213.776383,65.1916798 C213.776382,65.1910065 213.776382,65.1903332 213.778402,65.1896608 L213.779437,62.625914 C213.782016,61.2459918 214.900525,60.1274824 216.280447,60.1249042 Z" id="矩形" fill="url(#linearGradient-19)" fill-rule="nonzero" transform="translate(228.902328, 63.901678) rotate(45.000000) translate(-228.902328, -63.901678) "></path>
                <path d="M216.280191,60.1143006 L241.527009,60.1244996 C242.906931,60.1270778 244.02544,61.2455872 244.028019,62.6255094 L244.029054,65.1892562 C244.031631,66.5699671 242.912795,67.6897073 241.532083,67.6902651 C241.53141,67.6902654 241.530737,67.6902654 241.530064,67.688246 L216.283247,67.678047 C214.903324,67.6754689 213.784815,66.5569595 213.782237,65.1770373 L213.781201,62.6132905 C213.778624,61.2325795 214.89746,60.1128393 216.278172,60.1122816 C216.278845,60.1122813 216.279519,60.1122813 216.280191,60.1143006 Z" id="矩形" fill="url(#linearGradient-20)" fill-rule="nonzero" transform="translate(228.905128, 63.901273) rotate(135.000000) translate(-228.905128, -63.901273) "></path>
                <path d="M127.739635,12.5318083 L137.222315,12.5279776 C138.072833,12.5263902 138.762593,13.2155931 138.762937,14.0661116 C138.762937,14.0665263 138.762937,14.0669411 138.761693,14.0673553 L138.761667,14.1321097 C138.760079,14.9821418 138.071077,15.6711436 137.221045,15.6727317 L127.738364,15.6765625 C126.887846,15.6781498 126.198086,14.9889469 126.197743,14.1384285 C126.197743,14.1380137 126.197743,14.137599 126.198987,14.1371847 L126.199013,14.0724303 C126.200601,13.2223982 126.889603,12.5333964 127.739635,12.5318083 Z" id="矩形" fill="url(#linearGradient-21)" fill-rule="nonzero" transform="translate(132.480340, 14.102270) rotate(45.000000) translate(-132.480340, -14.102270) "></path>
                <path d="M127.741269,12.5227544 L137.22395,12.5265851 C138.073982,12.5281732 138.762984,13.217175 138.764572,14.0672071 L138.764598,14.1319615 C138.766185,14.9824795 138.076983,15.6722394 137.226464,15.672583 C137.226049,15.6725832 137.225635,15.6725832 137.22522,15.6713393 L127.74254,15.6675085 C126.892508,15.6659204 126.203506,14.9769186 126.201918,14.1268865 L126.201892,14.0621321 C126.200304,13.2116142 126.889507,12.5218542 127.740026,12.5215106 C127.74044,12.5215105 127.740855,12.5215105 127.741269,12.5227544 Z" id="矩形" fill="url(#linearGradient-22)" fill-rule="nonzero" transform="translate(132.483245, 14.097047) rotate(135.000000) translate(-132.483245, -14.097047) "></path>
                <path d="M206.591671,103.016794 C206.69734,103.284425 206.673207,103.585841 206.526299,103.833283 C206.40123,104.086345 206.176121,104.275758 205.905265,104.355836 C205.631696,104.434852 205.337954,104.402567 205.088116,104.266022 C204.832979,104.141245 204.640769,103.916689 204.556969,103.645491 C204.403134,103.101857 204.69553,102.53179 205.227031,102.339108 C205.501113,102.255825 205.7976,102.291374 206.044181,102.437086 C206.301254,102.543192 206.500548,102.754214 206.591671,103.016794 L206.591671,103.016794 Z M214.542533,93.4557042 C215.099531,95.3396958 214.211172,97.34984 212.442459,98.2076719 C211.731639,98.479037 211.002572,98.700036 210.260671,98.8690282 C209.747817,98.978803 209.256453,99.1718798 208.806145,99.4405707 C208.325953,99.7292788 207.93772,100.148345 207.686651,100.648975 L207.40882,101.179693 L206.289325,100.599985 L206.567156,100.069267 C206.821047,99.5563928 207.193608,99.11136 207.653965,98.7710495 C208.481369,98.2226978 209.408788,97.8425968 210.383243,97.6524591 C210.996105,97.4565017 211.445537,97.3176985 211.68251,97.2115549 C212.276813,96.9617776 212.769217,96.5186842 213.079835,95.9541614 C213.469175,95.2822892 213.575015,94.4832536 213.374009,93.7333105 C213.088017,92.9540906 212.498459,92.3237722 211.739711,91.9860234 C210.910361,91.480942 209.883447,91.4227462 209.002261,91.8308905 C208.188404,92.2462323 207.540062,92.9257217 207.163675,93.7578052 L206.060524,93.1862627 C206.589996,92.0828141 207.505704,91.2114158 208.634544,90.7367948 C209.845486,90.2825362 211.197042,90.3995765 212.311715,91.0552256 C213.338804,91.5359481 214.138716,92.3966958 214.542533,93.4557042 L214.542533,93.4557042 Z" id="形状" fill="url(#linearGradient-23)" fill-rule="nonzero"></path>
                <path d="M214.093101,109.875304 C214.092297,110.156417 213.966558,110.422649 213.749898,110.601979 C213.546693,110.79681 213.271002,110.897519 212.989949,110.879586 C212.411682,110.824209 211.973663,110.333171 211.984856,109.75283 C211.995864,109.481092 212.120348,109.226402 212.328058,109.05065 C212.518551,108.845897 212.792951,108.740444 213.071664,108.764878 C213.644643,108.822757 214.083592,109.299948 214.093101,109.875304 L214.093101,109.875304 Z M224.846785,103.620996 C224.810254,104.690062 224.316293,105.692051 223.490317,106.372565 C222.871739,106.943193 222.081671,107.293413 221.243156,107.368682 C220.481167,107.374979 219.719584,107.331339 218.96331,107.238043 C218.443497,107.156774 217.914197,107.156774 217.394383,107.238043 C216.848652,107.354044 216.343744,107.61334 215.931686,107.989214 L215.482254,108.397458 L214.665105,107.46666 L215.106366,107.066581 C215.527083,106.684728 216.030492,106.405282 216.577234,106.250091 C217.543577,106.019475 218.545828,105.980638 219.527143,106.135783 C220.172691,106.135783 220.638466,106.184772 220.899954,106.135783 C221.544233,106.111244 222.159767,105.86292 222.640482,105.433602 C223.239975,104.938074 223.616525,104.223795 223.686433,103.449533 C223.680706,102.61543 223.335551,101.819561 222.730368,101.245012 C222.12444,100.486474 221.18203,100.076796 220.213548,100.150916 C219.305247,100.266345 218.462073,100.683278 217.819301,101.334826 L217.002152,100.420358 C217.876375,99.5516849 219.039682,99.0344315 220.270749,98.9670069 C221.564884,98.9569746 222.793862,99.5334369 223.612889,100.534666 C224.405392,101.365224 224.839701,102.473577 224.82227,103.620996 L224.846785,103.620996 Z" id="形状" fill="url(#linearGradient-24)" fill-rule="nonzero"></path>
            </g>
        </g>
    </g>
</svg>